<mxfile host="Electron" agent="Mozilla/5.0 (Windows NT 10.0; Win64; x64) AppleWebKit/537.36 (KHTML, like Gecko) draw.io/24.7.17 Chrome/128.0.6613.36 Electron/32.0.1 Safari/537.36" version="24.7.17">
  <diagram id="R_4n1X6c1b3SrPai1uE2" name="NoArio">
    <mxGraphModel dx="1420" dy="1991" grid="1" gridSize="10" guides="1" tooltips="1" connect="1" arrows="1" fold="1" page="1" pageScale="1" pageWidth="827" pageHeight="1169" math="0" shadow="0">
      <root>
        <mxCell id="0" />
        <mxCell id="1" parent="0" />
        <mxCell id="mm0ojPfIeQABG_KORU4J-1" value="" style="endArrow=none;html=1;rounded=0;strokeWidth=3;entryX=0.5;entryY=1;entryDx=0;entryDy=0;strokeColor=#53a92e;" parent="1" target="mm0ojPfIeQABG_KORU4J-192" edge="1">
          <mxGeometry width="50" height="50" relative="1" as="geometry">
            <mxPoint x="520" y="80" as="sourcePoint" />
            <mxPoint x="640" y="10" as="targetPoint" />
          </mxGeometry>
        </mxCell>
        <mxCell id="mm0ojPfIeQABG_KORU4J-2" value="" style="endArrow=none;html=1;rounded=0;strokeWidth=3;exitX=0.5;exitY=0;exitDx=0;exitDy=0;entryX=0.5;entryY=1;entryDx=0;entryDy=0;" parent="1" source="mm0ojPfIeQABG_KORU4J-84" target="mm0ojPfIeQABG_KORU4J-30" edge="1">
          <mxGeometry width="50" height="50" relative="1" as="geometry">
            <mxPoint x="1400" y="250" as="sourcePoint" />
            <mxPoint x="852" y="51" as="targetPoint" />
          </mxGeometry>
        </mxCell>
        <mxCell id="mm0ojPfIeQABG_KORU4J-3" value="" style="endArrow=none;html=1;rounded=0;exitX=0;exitY=0.5;exitDx=0;exitDy=0;strokeWidth=3;strokeColor=#03a9f4;" parent="1" source="mm0ojPfIeQABG_KORU4J-169" edge="1">
          <mxGeometry width="50" height="50" relative="1" as="geometry">
            <mxPoint x="1620" y="514" as="sourcePoint" />
            <mxPoint x="1360" y="300" as="targetPoint" />
          </mxGeometry>
        </mxCell>
        <mxCell id="mm0ojPfIeQABG_KORU4J-4" value="" style="group" parent="1" vertex="1" connectable="0">
          <mxGeometry x="180" y="80" width="213.60000000000002" height="380" as="geometry" />
        </mxCell>
        <mxCell id="mm0ojPfIeQABG_KORU4J-5" value="" style="rounded=1;whiteSpace=wrap;html=1;dashed=1;" parent="mm0ojPfIeQABG_KORU4J-4" vertex="1">
          <mxGeometry width="200" height="380" as="geometry" />
        </mxCell>
        <mxCell id="mm0ojPfIeQABG_KORU4J-6" value="" style="rounded=1;whiteSpace=wrap;html=1;fillStyle=cross-hatch;fillColor=#cb3a3a;align=right;direction=south;" parent="mm0ojPfIeQABG_KORU4J-4" vertex="1">
          <mxGeometry x="20.00999999999999" y="72.31" width="49.99" height="297.69" as="geometry" />
        </mxCell>
        <mxCell id="mm0ojPfIeQABG_KORU4J-7" value="&lt;b style=&quot;font-size: 14px;&quot;&gt;Cluster:&lt;/b&gt;&lt;div style=&quot;font-size: 14px;&quot;&gt;&lt;b style=&quot;background-color: initial; font-size: 14px;&quot;&gt;RabbitMQ,&amp;nbsp;&lt;/b&gt;&lt;b style=&quot;background-color: initial; font-size: 14px;&quot;&gt;etcd,&amp;nbsp;&lt;/b&gt;&lt;b style=&quot;background-color: initial; font-size: 14px;&quot;&gt;&amp;nbsp;haproxy,&amp;nbsp;&lt;/b&gt;&lt;b style=&quot;background-color: initial; font-size: 14px;&quot;&gt;&amp;nbsp;&lt;/b&gt;&lt;/div&gt;&lt;div style=&quot;font-size: 14px;&quot;&gt;&lt;b style=&quot;background-color: initial; font-size: 14px;&quot;&gt;keepalived&lt;/b&gt;&lt;/div&gt;" style="text;html=1;align=left;verticalAlign=middle;resizable=0;points=[];autosize=1;strokeColor=none;fillColor=none;rotation=0;fontSize=14;" parent="mm0ojPfIeQABG_KORU4J-4" vertex="1">
          <mxGeometry x="13.600000000000023" y="8.13000000000001" width="200" height="60" as="geometry" />
        </mxCell>
        <mxCell id="mm0ojPfIeQABG_KORU4J-8" value="" style="shape=image;verticalLabelPosition=bottom;labelBackgroundColor=none;verticalAlign=top;aspect=fixed;imageAspect=0;image=https://gladilov.org.ru/blog/pictures/keepalived/logo.png;fontStyle=1;direction=east;horizontal=1;" parent="mm0ojPfIeQABG_KORU4J-4" vertex="1">
          <mxGeometry x="24.400000000000006" y="79.06" width="41.21" height="21.19" as="geometry" />
        </mxCell>
        <mxCell id="mm0ojPfIeQABG_KORU4J-9" value="" style="rounded=0;whiteSpace=wrap;html=1;fillColor=#ff6600;rotation=90;" parent="mm0ojPfIeQABG_KORU4J-4" vertex="1">
          <mxGeometry x="69.25" y="76.36000000000001" width="14.39" height="12.95" as="geometry" />
        </mxCell>
        <mxCell id="mm0ojPfIeQABG_KORU4J-10" value="" style="rounded=0;whiteSpace=wrap;html=1;fillColor=#9e3f00;rotation=90;" parent="mm0ojPfIeQABG_KORU4J-4" vertex="1">
          <mxGeometry x="69.25" y="102.86000000000001" width="14.38" height="13.2" as="geometry" />
        </mxCell>
        <mxCell id="mm0ojPfIeQABG_KORU4J-11" value="" style="group;rotation=-90;" parent="mm0ojPfIeQABG_KORU4J-4" vertex="1" connectable="0">
          <mxGeometry x="80" y="160" width="70.01" height="159.2" as="geometry" />
        </mxCell>
        <mxCell id="mm0ojPfIeQABG_KORU4J-12" value="" style="rounded=1;whiteSpace=wrap;html=1;rotation=-90;" parent="mm0ojPfIeQABG_KORU4J-11" vertex="1">
          <mxGeometry width="70.01000000000002" height="159.20000000000005" as="geometry" />
        </mxCell>
        <mxCell id="mm0ojPfIeQABG_KORU4J-13" value="" style="shape=image;verticalLabelPosition=bottom;labelBackgroundColor=default;verticalAlign=top;aspect=fixed;imageAspect=0;image=https://upload.wikimedia.org/wikipedia/commons/a/ab/Haproxy-logo.png;direction=east;rotation=-90;" parent="mm0ojPfIeQABG_KORU4J-11" vertex="1">
          <mxGeometry x="-48" y="56" width="59.644921115870886" height="46.86595653536727" as="geometry" />
        </mxCell>
        <mxCell id="mm0ojPfIeQABG_KORU4J-14" value="" style="shape=image;verticalLabelPosition=bottom;labelBackgroundColor=default;verticalAlign=top;aspect=fixed;imageAspect=0;image=data:image/svg+xml,PHN2ZyB4bWxucz0iaHR0cDovL3d3dy53My5vcmcvMjAwMC9zdmciIHZpZXdCb3g9IjAgMCAyODggMTAyLjE3IiBoZWlnaHQ9Ijg4NyIgd2lkdGg9IjI1MDAiPjx0aXRsZT5ldGNkPC90aXRsZT48cGF0aCBmaWxsPSIjNDE5ZWRhIiBkPSJNNDEuMTQgNTMuOTRhNS44NiA1Ljg2IDAgMSAxLTUuODYtNS44NiA1Ljg2IDUuODYgMCAwIDEgNS44NiA1Ljg2ek00OC43MiA1My45NGE1Ljg2IDUuODYgMCAxIDAgNS44Ni01Ljg2IDUuODYgNS44NiAwIDAgMC01Ljg2IDUuODZ6Ii8+PHBhdGggZmlsbD0iIzQxOWVkYSIgZD0iTTg4LjYyIDYwLjNoLTEuMjlhMTYuOTIgMTYuOTIgMCAwIDEtNy40NC0xLjczIDY5LjEgNjkuMSAwIDAgMCAxLTEzLjE2IDY4LjExIDY4LjExIDAgMCAwLTguNTItMTAuMSAxNi45MiAxNi45MiAwIDAgMSA2LTYuNDNsMS4xLS42OC0uODYtMWE0NC44NiA0NC44NiAwIDAgMC0xNS42Ni0xMS4zNWwtMS4xOS0uNTItLjMgMS4yNmExNi44OCAxNi44OCAwIDAgMS00LjI1IDcuNzEgNjguMTMgNjguMTMgMCAwIDAtMTIuMjctNS4wNiA2Ny44OSA2Ny44OSAwIDAgMC0xMi4yNiA1IDE2Ljg0IDE2Ljg0IDAgMCAxLTQuMjMtNy42OWwtLjMxLTEuMjYtMS4xOS41MmE0NS4yOSA0NS4yOSAwIDAgMC0xNS42NyAxMS40NmwtLjg2IDEgMS4xLjY4YTE2LjkgMTYuOSAwIDAgMSA2IDYuNEE2OC42MiA2OC42MiAwIDAgMCA5IDQ1LjM4YTY5IDY5IDAgMCAwIDEgMTMuMjUgMTYuODcgMTYuODcgMCAwIDEtNy40IDEuNzJIMS4zTDAgNjAuMTlsLjEyIDEuMjlhNDQuNTkgNDQuNTkgMCAwIDAgNiAxOC40NEw2LjggODFsMS0uODRhMTYuODYgMTYuODYgMCAwIDEgOC0zLjc0IDY4LjUgNjguNSAwIDAgMCA2LjggMTEuMTggNjkuMTkgNjkuMTkgMCAwIDAgMTIuOTUgMy4xOCAxNi44MyAxNi44MyAwIDAgMS0xLjA4IDguODNsLS40NyAxLjIgMS4yNi4yOGE0NS4xMyA0NS4xMyAwIDAgMCA5LjcgMS4wN2w5LjctMS4wNyAxLjI2LS4yOC0uNDktMS4yYTE2LjgxIDE2LjgxIDAgMCAxLTEuMDctOC44NSA2OS4yIDY5LjIgMCAwIDAgMTIuOS0zLjE3IDY4LjIgNjguMiAwIDAgMCA2Ljg0LTExLjE0IDE2LjkgMTYuOSAwIDAgMSA4IDMuNzRsMSAuODMuNjYtMS4xMWE0NC40OCA0NC40OCAwIDAgMCA2LTE4LjQ0bC4xMi0xLjI5em0tMjkuOCAxNS43NmE1Mi4zNyA1Mi4zNyAwIDAgMS0yNy43OCAwIDUzLjE0IDUzLjE0IDAgMCAxLTguNDUtMjYuMjYgNTIuODggNTIuODggMCAwIDEgMTAuMDctOS41OCA1My42OCA1My42OCAwIDAgMSAxMi4yOC02LjY4IDUzLjg1IDUzLjg1IDAgMCAxIDEyLjI1IDYuNjYgNTMuMjggNTMuMjggMCAwIDEgMTAuMTEgOS42NCA1My41MyA1My41MyAwIDAgMS0yLjUzIDEzLjY4IDUzLjggNTMuOCAwIDAgMS01Ljk1IDEyLjU0eiIvPjxwYXRoIGQ9Ik0xMjUuNTUgMjUuNDFjMTQuNzMgMCAyMyAxMC41NyAyMyAyNy4wN2EzNC40NCAzNC40NCAwIDAgMS0uMzYgNS4zNGgtMzljLjcxIDEyLjQ3IDguMiAyMC4zMSAxOS4yNCAyMC4zMWEyNi4wOCAyNi4wOCAwIDAgMCAxNC4zNy00LjUxbDMuNTMgNi4zOGEzNC4zNiAzNC4zNiAwIDAgMS0xOSA1Ljk0QzExMS45IDg2IDk5LjY3IDc0LjY5IDk5LjY3IDU1LjgxczEyLjctMzAuNCAyNS44OC0zMC40em0xNC40OSAyNmMwLTExLjc2LTUuMjMtMTguMjktMTQuMjUtMTguMjktOC4wOCAwLTE1LjQ0IDYuNjUtMTYuNjIgMTguMjlIMTQwek0xNTkuNjMgMzQuNzloLTguNTV2LTcuMzZsOS0uNTkgMS4xOS0xNi4xNWg4LjE5djE2LjE1SDE4NXY4aC0xNS41MXYzMi4wMmMwIDcuMTMgMi4yNiAxMS4xNiA4LjkxIDExLjE2YTIwLjkyIDIwLjkyIDAgMCAwIDYuNTMtMS41NWwxLjkgNy4zNkEzNS42MyAzNS42MyAwIDAgMSAxNzYuMTQgODZjLTEyLjM1IDAtMTYuNTEtNy44NC0xNi41MS0xOS4yNFYzNC43OXpNMjE2Ljg3IDI1LjQxYTIzLjc5IDIzLjc5IDAgMCAxIDE2Ljg2IDYuODlsLTQuODcgNi4yOWMtMy40NC0zLTctNS4xLTExLjY0LTUuMS0xMC40NSAwLTE4IDktMTggMjIuMzJTMjA2LjQyIDc3LjkgMjE3IDc3LjljNS40NiAwIDEwLjEtMi43MyAxMy41NC01LjgybDQuMzkgNi40MUEyOC41OCAyOC41OCAwIDAgMSAyMTYuMTYgODZjLTE1LjMyIDAtMjcuMDctMTEtMjcuMDctMzAuMTYtLjAxLTE5LjM5IDEyLjkxLTMwLjQzIDI3Ljc4LTMwLjQzek0yNjIuNDcgMjUuNDFjNi42NSAwIDExIDIuNDkgMTYuMTUgNi42NWwtLjQ4LTkuODZWMEgyODh2ODQuNTVoLTguMDdsLS44My02Ljc3aC0uMzZjLTQuNTEgNC4zOS0xMC42OSA4LjIyLTE3LjQ2IDguMjItMTQuNDggMC0yMy44Ni0xMS0yMy44Ni0zMC4xOSAwLTE4LjgxIDExLjg3LTMwLjQgMjUuMDUtMzAuNHptLjk1IDUyLjM3YzUuMzQgMCAxMC0yLjYxIDE0LjczLThWMzkuNjZjLTQuODctNC4zOS05LjI2LTYuMDYtMTQtNi4wNi05LjI2IDAtMTYuNjIgOC45LTE2LjYyIDIyLjA5LS4wMiAxMy43OCA1LjggMjIuMDkgMTUuODkgMjIuMDl6Ii8+PC9zdmc+;direction=east;movable=1;resizable=1;rotatable=1;deletable=1;editable=1;locked=0;connectable=1;container=0;rotation=-90;" parent="mm0ojPfIeQABG_KORU4J-11" vertex="1">
          <mxGeometry x="61" y="70" width="50.27465573085364" height="17.848124542889984" as="geometry" />
        </mxCell>
        <mxCell id="mm0ojPfIeQABG_KORU4J-15" value="" style="shape=image;verticalLabelPosition=bottom;labelBackgroundColor=default;verticalAlign=top;aspect=fixed;imageAspect=0;image=https://cdn.prod.website-files.com/6064b31ff49a2d31e0493af1/64836bf8d0bac274cea41125_rabbitmq.svg;rotation=-90;" parent="mm0ojPfIeQABG_KORU4J-11" vertex="1">
          <mxGeometry x="8" y="53" width="53.88085466513427" height="53.88085466513427" as="geometry" />
        </mxCell>
        <mxCell id="mm0ojPfIeQABG_KORU4J-16" value="" style="group;rotation=-90;" parent="mm0ojPfIeQABG_KORU4J-4" vertex="1" connectable="0">
          <mxGeometry x="80" y="80" width="70" height="158.14" as="geometry" />
        </mxCell>
        <mxCell id="mm0ojPfIeQABG_KORU4J-17" value="" style="rounded=1;whiteSpace=wrap;html=1;rotation=-90;" parent="mm0ojPfIeQABG_KORU4J-16" vertex="1">
          <mxGeometry width="70" height="158.14" as="geometry" />
        </mxCell>
        <mxCell id="mm0ojPfIeQABG_KORU4J-18" value="" style="shape=image;verticalLabelPosition=bottom;labelBackgroundColor=default;verticalAlign=top;aspect=fixed;imageAspect=0;image=https://upload.wikimedia.org/wikipedia/commons/a/ab/Haproxy-logo.png;direction=east;rotation=-90;" parent="mm0ojPfIeQABG_KORU4J-16" vertex="1">
          <mxGeometry x="-48" y="56" width="59.63640162992374" height="46.85926235503082" as="geometry" />
        </mxCell>
        <mxCell id="mm0ojPfIeQABG_KORU4J-19" value="" style="shape=image;verticalLabelPosition=bottom;labelBackgroundColor=default;verticalAlign=top;aspect=fixed;imageAspect=0;image=data:image/svg+xml,PHN2ZyB4bWxucz0iaHR0cDovL3d3dy53My5vcmcvMjAwMC9zdmciIHZpZXdCb3g9IjAgMCAyODggMTAyLjE3IiBoZWlnaHQ9Ijg4NyIgd2lkdGg9IjI1MDAiPjx0aXRsZT5ldGNkPC90aXRsZT48cGF0aCBmaWxsPSIjNDE5ZWRhIiBkPSJNNDEuMTQgNTMuOTRhNS44NiA1Ljg2IDAgMSAxLTUuODYtNS44NiA1Ljg2IDUuODYgMCAwIDEgNS44NiA1Ljg2ek00OC43MiA1My45NGE1Ljg2IDUuODYgMCAxIDAgNS44Ni01Ljg2IDUuODYgNS44NiAwIDAgMC01Ljg2IDUuODZ6Ii8+PHBhdGggZmlsbD0iIzQxOWVkYSIgZD0iTTg4LjYyIDYwLjNoLTEuMjlhMTYuOTIgMTYuOTIgMCAwIDEtNy40NC0xLjczIDY5LjEgNjkuMSAwIDAgMCAxLTEzLjE2IDY4LjExIDY4LjExIDAgMCAwLTguNTItMTAuMSAxNi45MiAxNi45MiAwIDAgMSA2LTYuNDNsMS4xLS42OC0uODYtMWE0NC44NiA0NC44NiAwIDAgMC0xNS42Ni0xMS4zNWwtMS4xOS0uNTItLjMgMS4yNmExNi44OCAxNi44OCAwIDAgMS00LjI1IDcuNzEgNjguMTMgNjguMTMgMCAwIDAtMTIuMjctNS4wNiA2Ny44OSA2Ny44OSAwIDAgMC0xMi4yNiA1IDE2Ljg0IDE2Ljg0IDAgMCAxLTQuMjMtNy42OWwtLjMxLTEuMjYtMS4xOS41MmE0NS4yOSA0NS4yOSAwIDAgMC0xNS42NyAxMS40NmwtLjg2IDEgMS4xLjY4YTE2LjkgMTYuOSAwIDAgMSA2IDYuNEE2OC42MiA2OC42MiAwIDAgMCA5IDQ1LjM4YTY5IDY5IDAgMCAwIDEgMTMuMjUgMTYuODcgMTYuODcgMCAwIDEtNy40IDEuNzJIMS4zTDAgNjAuMTlsLjEyIDEuMjlhNDQuNTkgNDQuNTkgMCAwIDAgNiAxOC40NEw2LjggODFsMS0uODRhMTYuODYgMTYuODYgMCAwIDEgOC0zLjc0IDY4LjUgNjguNSAwIDAgMCA2LjggMTEuMTggNjkuMTkgNjkuMTkgMCAwIDAgMTIuOTUgMy4xOCAxNi44MyAxNi44MyAwIDAgMS0xLjA4IDguODNsLS40NyAxLjIgMS4yNi4yOGE0NS4xMyA0NS4xMyAwIDAgMCA5LjcgMS4wN2w5LjctMS4wNyAxLjI2LS4yOC0uNDktMS4yYTE2LjgxIDE2LjgxIDAgMCAxLTEuMDctOC44NSA2OS4yIDY5LjIgMCAwIDAgMTIuOS0zLjE3IDY4LjIgNjguMiAwIDAgMCA2Ljg0LTExLjE0IDE2LjkgMTYuOSAwIDAgMSA4IDMuNzRsMSAuODMuNjYtMS4xMWE0NC40OCA0NC40OCAwIDAgMCA2LTE4LjQ0bC4xMi0xLjI5em0tMjkuOCAxNS43NmE1Mi4zNyA1Mi4zNyAwIDAgMS0yNy43OCAwIDUzLjE0IDUzLjE0IDAgMCAxLTguNDUtMjYuMjYgNTIuODggNTIuODggMCAwIDEgMTAuMDctOS41OCA1My42OCA1My42OCAwIDAgMSAxMi4yOC02LjY4IDUzLjg1IDUzLjg1IDAgMCAxIDEyLjI1IDYuNjYgNTMuMjggNTMuMjggMCAwIDEgMTAuMTEgOS42NCA1My41MyA1My41MyAwIDAgMS0yLjUzIDEzLjY4IDUzLjggNTMuOCAwIDAgMS01Ljk1IDEyLjU0eiIvPjxwYXRoIGQ9Ik0xMjUuNTUgMjUuNDFjMTQuNzMgMCAyMyAxMC41NyAyMyAyNy4wN2EzNC40NCAzNC40NCAwIDAgMS0uMzYgNS4zNGgtMzljLjcxIDEyLjQ3IDguMiAyMC4zMSAxOS4yNCAyMC4zMWEyNi4wOCAyNi4wOCAwIDAgMCAxNC4zNy00LjUxbDMuNTMgNi4zOGEzNC4zNiAzNC4zNiAwIDAgMS0xOSA1Ljk0QzExMS45IDg2IDk5LjY3IDc0LjY5IDk5LjY3IDU1LjgxczEyLjctMzAuNCAyNS44OC0zMC40em0xNC40OSAyNmMwLTExLjc2LTUuMjMtMTguMjktMTQuMjUtMTguMjktOC4wOCAwLTE1LjQ0IDYuNjUtMTYuNjIgMTguMjlIMTQwek0xNTkuNjMgMzQuNzloLTguNTV2LTcuMzZsOS0uNTkgMS4xOS0xNi4xNWg4LjE5djE2LjE1SDE4NXY4aC0xNS41MXYzMi4wMmMwIDcuMTMgMi4yNiAxMS4xNiA4LjkxIDExLjE2YTIwLjkyIDIwLjkyIDAgMCAwIDYuNTMtMS41NWwxLjkgNy4zNkEzNS42MyAzNS42MyAwIDAgMSAxNzYuMTQgODZjLTEyLjM1IDAtMTYuNTEtNy44NC0xNi41MS0xOS4yNFYzNC43OXpNMjE2Ljg3IDI1LjQxYTIzLjc5IDIzLjc5IDAgMCAxIDE2Ljg2IDYuODlsLTQuODcgNi4yOWMtMy40NC0zLTctNS4xLTExLjY0LTUuMS0xMC40NSAwLTE4IDktMTggMjIuMzJTMjA2LjQyIDc3LjkgMjE3IDc3LjljNS40NiAwIDEwLjEtMi43MyAxMy41NC01LjgybDQuMzkgNi40MUEyOC41OCAyOC41OCAwIDAgMSAyMTYuMTYgODZjLTE1LjMyIDAtMjcuMDctMTEtMjcuMDctMzAuMTYtLjAxLTE5LjM5IDEyLjkxLTMwLjQzIDI3Ljc4LTMwLjQzek0yNjIuNDcgMjUuNDFjNi42NSAwIDExIDIuNDkgMTYuMTUgNi42NWwtLjQ4LTkuODZWMEgyODh2ODQuNTVoLTguMDdsLS44My02Ljc3aC0uMzZjLTQuNTEgNC4zOS0xMC42OSA4LjIyLTE3LjQ2IDguMjItMTQuNDggMC0yMy44Ni0xMS0yMy44Ni0zMC4xOSAwLTE4LjgxIDExLjg3LTMwLjQgMjUuMDUtMzAuNHptLjk1IDUyLjM3YzUuMzQgMCAxMC0yLjYxIDE0LjczLThWMzkuNjZjLTQuODctNC4zOS05LjI2LTYuMDYtMTQtNi4wNi05LjI2IDAtMTYuNjIgOC45LTE2LjYyIDIyLjA5LS4wMiAxMy43OCA1LjggMjIuMDkgMTUuODkgMjIuMDl6Ii8+PC9zdmc+;direction=east;movable=1;resizable=1;rotatable=1;deletable=1;editable=1;locked=0;connectable=1;container=0;rotation=-90;" parent="mm0ojPfIeQABG_KORU4J-16" vertex="1">
          <mxGeometry x="61" y="69" width="50.267474663044624" height="17.845575175007838" as="geometry" />
        </mxCell>
        <mxCell id="mm0ojPfIeQABG_KORU4J-20" value="" style="shape=image;verticalLabelPosition=bottom;labelBackgroundColor=default;verticalAlign=top;aspect=fixed;imageAspect=0;image=https://cdn.prod.website-files.com/6064b31ff49a2d31e0493af1/64836bf8d0bac274cea41125_rabbitmq.svg;rotation=-90;" parent="mm0ojPfIeQABG_KORU4J-16" vertex="1">
          <mxGeometry x="8" y="52" width="53.873158499634314" height="53.873158499634314" as="geometry" />
        </mxCell>
        <mxCell id="mm0ojPfIeQABG_KORU4J-21" value="" style="group;rotation=-90;" parent="mm0ojPfIeQABG_KORU4J-4" vertex="1" connectable="0">
          <mxGeometry x="80" y="240" width="70.01" height="159.2" as="geometry" />
        </mxCell>
        <mxCell id="mm0ojPfIeQABG_KORU4J-22" value="" style="rounded=1;whiteSpace=wrap;html=1;rotation=-90;" parent="mm0ojPfIeQABG_KORU4J-21" vertex="1">
          <mxGeometry width="70.01000000000002" height="159.20000000000005" as="geometry" />
        </mxCell>
        <mxCell id="mm0ojPfIeQABG_KORU4J-23" value="" style="shape=image;verticalLabelPosition=bottom;labelBackgroundColor=default;verticalAlign=top;aspect=fixed;imageAspect=0;image=https://upload.wikimedia.org/wikipedia/commons/a/ab/Haproxy-logo.png;direction=east;rotation=-90;" parent="mm0ojPfIeQABG_KORU4J-21" vertex="1">
          <mxGeometry x="-48" y="56" width="59.644921115870886" height="46.86595653536727" as="geometry" />
        </mxCell>
        <mxCell id="mm0ojPfIeQABG_KORU4J-24" value="" style="shape=image;verticalLabelPosition=bottom;labelBackgroundColor=default;verticalAlign=top;aspect=fixed;imageAspect=0;image=data:image/svg+xml,PHN2ZyB4bWxucz0iaHR0cDovL3d3dy53My5vcmcvMjAwMC9zdmciIHZpZXdCb3g9IjAgMCAyODggMTAyLjE3IiBoZWlnaHQ9Ijg4NyIgd2lkdGg9IjI1MDAiPjx0aXRsZT5ldGNkPC90aXRsZT48cGF0aCBmaWxsPSIjNDE5ZWRhIiBkPSJNNDEuMTQgNTMuOTRhNS44NiA1Ljg2IDAgMSAxLTUuODYtNS44NiA1Ljg2IDUuODYgMCAwIDEgNS44NiA1Ljg2ek00OC43MiA1My45NGE1Ljg2IDUuODYgMCAxIDAgNS44Ni01Ljg2IDUuODYgNS44NiAwIDAgMC01Ljg2IDUuODZ6Ii8+PHBhdGggZmlsbD0iIzQxOWVkYSIgZD0iTTg4LjYyIDYwLjNoLTEuMjlhMTYuOTIgMTYuOTIgMCAwIDEtNy40NC0xLjczIDY5LjEgNjkuMSAwIDAgMCAxLTEzLjE2IDY4LjExIDY4LjExIDAgMCAwLTguNTItMTAuMSAxNi45MiAxNi45MiAwIDAgMSA2LTYuNDNsMS4xLS42OC0uODYtMWE0NC44NiA0NC44NiAwIDAgMC0xNS42Ni0xMS4zNWwtMS4xOS0uNTItLjMgMS4yNmExNi44OCAxNi44OCAwIDAgMS00LjI1IDcuNzEgNjguMTMgNjguMTMgMCAwIDAtMTIuMjctNS4wNiA2Ny44OSA2Ny44OSAwIDAgMC0xMi4yNiA1IDE2Ljg0IDE2Ljg0IDAgMCAxLTQuMjMtNy42OWwtLjMxLTEuMjYtMS4xOS41MmE0NS4yOSA0NS4yOSAwIDAgMC0xNS42NyAxMS40NmwtLjg2IDEgMS4xLjY4YTE2LjkgMTYuOSAwIDAgMSA2IDYuNEE2OC42MiA2OC42MiAwIDAgMCA5IDQ1LjM4YTY5IDY5IDAgMCAwIDEgMTMuMjUgMTYuODcgMTYuODcgMCAwIDEtNy40IDEuNzJIMS4zTDAgNjAuMTlsLjEyIDEuMjlhNDQuNTkgNDQuNTkgMCAwIDAgNiAxOC40NEw2LjggODFsMS0uODRhMTYuODYgMTYuODYgMCAwIDEgOC0zLjc0IDY4LjUgNjguNSAwIDAgMCA2LjggMTEuMTggNjkuMTkgNjkuMTkgMCAwIDAgMTIuOTUgMy4xOCAxNi44MyAxNi44MyAwIDAgMS0xLjA4IDguODNsLS40NyAxLjIgMS4yNi4yOGE0NS4xMyA0NS4xMyAwIDAgMCA5LjcgMS4wN2w5LjctMS4wNyAxLjI2LS4yOC0uNDktMS4yYTE2LjgxIDE2LjgxIDAgMCAxLTEuMDctOC44NSA2OS4yIDY5LjIgMCAwIDAgMTIuOS0zLjE3IDY4LjIgNjguMiAwIDAgMCA2Ljg0LTExLjE0IDE2LjkgMTYuOSAwIDAgMSA4IDMuNzRsMSAuODMuNjYtMS4xMWE0NC40OCA0NC40OCAwIDAgMCA2LTE4LjQ0bC4xMi0xLjI5em0tMjkuOCAxNS43NmE1Mi4zNyA1Mi4zNyAwIDAgMS0yNy43OCAwIDUzLjE0IDUzLjE0IDAgMCAxLTguNDUtMjYuMjYgNTIuODggNTIuODggMCAwIDEgMTAuMDctOS41OCA1My42OCA1My42OCAwIDAgMSAxMi4yOC02LjY4IDUzLjg1IDUzLjg1IDAgMCAxIDEyLjI1IDYuNjYgNTMuMjggNTMuMjggMCAwIDEgMTAuMTEgOS42NCA1My41MyA1My41MyAwIDAgMS0yLjUzIDEzLjY4IDUzLjggNTMuOCAwIDAgMS01Ljk1IDEyLjU0eiIvPjxwYXRoIGQ9Ik0xMjUuNTUgMjUuNDFjMTQuNzMgMCAyMyAxMC41NyAyMyAyNy4wN2EzNC40NCAzNC40NCAwIDAgMS0uMzYgNS4zNGgtMzljLjcxIDEyLjQ3IDguMiAyMC4zMSAxOS4yNCAyMC4zMWEyNi4wOCAyNi4wOCAwIDAgMCAxNC4zNy00LjUxbDMuNTMgNi4zOGEzNC4zNiAzNC4zNiAwIDAgMS0xOSA1Ljk0QzExMS45IDg2IDk5LjY3IDc0LjY5IDk5LjY3IDU1LjgxczEyLjctMzAuNCAyNS44OC0zMC40em0xNC40OSAyNmMwLTExLjc2LTUuMjMtMTguMjktMTQuMjUtMTguMjktOC4wOCAwLTE1LjQ0IDYuNjUtMTYuNjIgMTguMjlIMTQwek0xNTkuNjMgMzQuNzloLTguNTV2LTcuMzZsOS0uNTkgMS4xOS0xNi4xNWg4LjE5djE2LjE1SDE4NXY4aC0xNS41MXYzMi4wMmMwIDcuMTMgMi4yNiAxMS4xNiA4LjkxIDExLjE2YTIwLjkyIDIwLjkyIDAgMCAwIDYuNTMtMS41NWwxLjkgNy4zNkEzNS42MyAzNS42MyAwIDAgMSAxNzYuMTQgODZjLTEyLjM1IDAtMTYuNTEtNy44NC0xNi41MS0xOS4yNFYzNC43OXpNMjE2Ljg3IDI1LjQxYTIzLjc5IDIzLjc5IDAgMCAxIDE2Ljg2IDYuODlsLTQuODcgNi4yOWMtMy40NC0zLTctNS4xLTExLjY0LTUuMS0xMC40NSAwLTE4IDktMTggMjIuMzJTMjA2LjQyIDc3LjkgMjE3IDc3LjljNS40NiAwIDEwLjEtMi43MyAxMy41NC01LjgybDQuMzkgNi40MUEyOC41OCAyOC41OCAwIDAgMSAyMTYuMTYgODZjLTE1LjMyIDAtMjcuMDctMTEtMjcuMDctMzAuMTYtLjAxLTE5LjM5IDEyLjkxLTMwLjQzIDI3Ljc4LTMwLjQzek0yNjIuNDcgMjUuNDFjNi42NSAwIDExIDIuNDkgMTYuMTUgNi42NWwtLjQ4LTkuODZWMEgyODh2ODQuNTVoLTguMDdsLS44My02Ljc3aC0uMzZjLTQuNTEgNC4zOS0xMC42OSA4LjIyLTE3LjQ2IDguMjItMTQuNDggMC0yMy44Ni0xMS0yMy44Ni0zMC4xOSAwLTE4LjgxIDExLjg3LTMwLjQgMjUuMDUtMzAuNHptLjk1IDUyLjM3YzUuMzQgMCAxMC0yLjYxIDE0LjczLThWMzkuNjZjLTQuODctNC4zOS05LjI2LTYuMDYtMTQtNi4wNi05LjI2IDAtMTYuNjIgOC45LTE2LjYyIDIyLjA5LS4wMiAxMy43OCA1LjggMjIuMDkgMTUuODkgMjIuMDl6Ii8+PC9zdmc+;direction=east;movable=1;resizable=1;rotatable=1;deletable=1;editable=1;locked=0;connectable=1;container=0;rotation=-90;" parent="mm0ojPfIeQABG_KORU4J-21" vertex="1">
          <mxGeometry x="61" y="70" width="50.27465573085364" height="17.848124542889984" as="geometry" />
        </mxCell>
        <mxCell id="mm0ojPfIeQABG_KORU4J-25" value="" style="shape=image;verticalLabelPosition=bottom;labelBackgroundColor=default;verticalAlign=top;aspect=fixed;imageAspect=0;image=https://cdn.prod.website-files.com/6064b31ff49a2d31e0493af1/64836bf8d0bac274cea41125_rabbitmq.svg;rotation=-90;" parent="mm0ojPfIeQABG_KORU4J-21" vertex="1">
          <mxGeometry x="8" y="53" width="53.88085466513427" height="53.88085466513427" as="geometry" />
        </mxCell>
        <mxCell id="mm0ojPfIeQABG_KORU4J-26" value="" style="endArrow=none;html=1;rounded=0;exitX=0.5;exitY=0;exitDx=0;exitDy=0;strokeWidth=3;strokeColor=#9e3f00;" parent="mm0ojPfIeQABG_KORU4J-4" source="mm0ojPfIeQABG_KORU4J-10" edge="1">
          <mxGeometry width="50" height="50" relative="1" as="geometry">
            <mxPoint x="83.63999999999999" y="109.28999999999999" as="sourcePoint" />
            <mxPoint x="233.64" y="109.28999999999999" as="targetPoint" />
          </mxGeometry>
        </mxCell>
        <mxCell id="mm0ojPfIeQABG_KORU4J-27" value="15672" style="edgeLabel;html=1;align=center;verticalAlign=middle;resizable=0;points=[];labelBorderColor=#9e3f00;" parent="mm0ojPfIeQABG_KORU4J-26" vertex="1" connectable="0">
          <mxGeometry x="-0.5339" relative="1" as="geometry">
            <mxPoint x="-11" y="-8" as="offset" />
          </mxGeometry>
        </mxCell>
        <mxCell id="mm0ojPfIeQABG_KORU4J-28" value="" style="rounded=1;whiteSpace=wrap;html=1;fillColor=#326CE5;arcSize=15;" parent="1" vertex="1">
          <mxGeometry x="450" y="110" width="870" height="200" as="geometry" />
        </mxCell>
        <mxCell id="mm0ojPfIeQABG_KORU4J-29" value="" style="rounded=1;whiteSpace=wrap;html=1;fillStyle=cross-hatch;align=right;fontColor=#FFFFFF;" parent="1" vertex="1">
          <mxGeometry x="760" y="120" width="538.49" height="61.86" as="geometry" />
        </mxCell>
        <mxCell id="mm0ojPfIeQABG_KORU4J-30" value="" style="rounded=1;whiteSpace=wrap;html=1;dashed=1;" parent="1" vertex="1">
          <mxGeometry x="700" y="-66.69" width="370" height="101" as="geometry" />
        </mxCell>
        <mxCell id="mm0ojPfIeQABG_KORU4J-31" value="" style="group;rounded=1;fillStyle=cross-hatch;strokeColor=default;align=right;verticalAlign=middle;fontFamily=Helvetica;fontSize=12;fontColor=default;fillColor=#cb3a3a;" parent="1" vertex="1" connectable="0">
          <mxGeometry x="710" y="-56.69" width="350" height="81" as="geometry" />
        </mxCell>
        <mxCell id="mm0ojPfIeQABG_KORU4J-32" value="" style="rounded=1;whiteSpace=wrap;html=1;labelBackgroundColor=default;fillColor=#cb3a3a;opacity=20;fillStyle=cross-hatch;strokeColor=default;align=right;verticalAlign=middle;fontFamily=Helvetica;fontSize=12;fontColor=default;" parent="mm0ojPfIeQABG_KORU4J-31" vertex="1">
          <mxGeometry width="349.99999999999994" height="81" as="geometry" />
        </mxCell>
        <mxCell id="mm0ojPfIeQABG_KORU4J-33" value="Virtual IP 1" style="shape=image;verticalLabelPosition=bottom;labelBackgroundColor=none;verticalAlign=middle;aspect=fixed;imageAspect=0;image=https://gladilov.org.ru/blog/pictures/keepalived/logo.png;fontStyle=1;rounded=1;fillStyle=cross-hatch;strokeColor=default;align=center;fontFamily=Helvetica;fontSize=12;fontColor=default;fillColor=#cb3a3a;" parent="mm0ojPfIeQABG_KORU4J-31" vertex="1">
          <mxGeometry x="134.93" y="8.79" width="80.14" height="41.21" as="geometry" />
        </mxCell>
        <mxCell id="mm0ojPfIeQABG_KORU4J-34" value="Node 2 &#xa;(slave)" style="shape=image;verticalLabelPosition=bottom;labelBackgroundColor=default;verticalAlign=top;aspect=fixed;imageAspect=0;image=https://upload.wikimedia.org/wikipedia/commons/a/ab/Haproxy-logo.png;" parent="mm0ojPfIeQABG_KORU4J-31" vertex="1">
          <mxGeometry x="290" y="7.33" width="43.66" height="34.3" as="geometry" />
        </mxCell>
        <mxCell id="mm0ojPfIeQABG_KORU4J-35" value="Node 1 &#xa;(master)" style="shape=image;verticalLabelPosition=bottom;labelBackgroundColor=default;verticalAlign=top;aspect=fixed;imageAspect=0;image=https://upload.wikimedia.org/wikipedia/commons/a/ab/Haproxy-logo.png;" parent="mm0ojPfIeQABG_KORU4J-31" vertex="1">
          <mxGeometry x="20" y="8.79" width="39.95" height="31.39" as="geometry" />
        </mxCell>
        <mxCell id="mm0ojPfIeQABG_KORU4J-36" value="" style="group" parent="1" vertex="1" connectable="0">
          <mxGeometry x="1154.43" y="-106.33" width="223.19" height="106.00000000000006" as="geometry" />
        </mxCell>
        <mxCell id="mm0ojPfIeQABG_KORU4J-37" value="" style="rounded=1;whiteSpace=wrap;html=1;align=center;" parent="mm0ojPfIeQABG_KORU4J-36" vertex="1">
          <mxGeometry x="30" y="-15" width="180" height="110" as="geometry" />
        </mxCell>
        <mxCell id="mm0ojPfIeQABG_KORU4J-38" value="" style="ellipse;whiteSpace=wrap;html=1;aspect=fixed;fillColor=#4c0099;" parent="mm0ojPfIeQABG_KORU4J-36" vertex="1">
          <mxGeometry x="102.57000000000008" y="86.00000000000006" width="20" height="20" as="geometry" />
        </mxCell>
        <mxCell id="mm0ojPfIeQABG_KORU4J-39" value="" style="ellipse;whiteSpace=wrap;html=1;aspect=fixed;fillColor=#ef5098;" parent="mm0ojPfIeQABG_KORU4J-36" vertex="1">
          <mxGeometry x="126.57000000000002" y="86.33000000000006" width="20" height="20" as="geometry" />
        </mxCell>
        <mxCell id="mm0ojPfIeQABG_KORU4J-40" value="" style="ellipse;whiteSpace=wrap;html=1;aspect=fixed;fillColor=#9e3f00;" parent="mm0ojPfIeQABG_KORU4J-36" vertex="1">
          <mxGeometry x="151.19000000000005" y="86.00000000000006" width="20" height="20" as="geometry" />
        </mxCell>
        <mxCell id="mm0ojPfIeQABG_KORU4J-41" value="" style="ellipse;whiteSpace=wrap;html=1;aspect=fixed;fillColor=#000000;" parent="mm0ojPfIeQABG_KORU4J-36" vertex="1">
          <mxGeometry x="54" y="86" width="20" height="20" as="geometry" />
        </mxCell>
        <mxCell id="mm0ojPfIeQABG_KORU4J-42" value="" style="group" parent="1" vertex="1" connectable="0">
          <mxGeometry x="772" y="-220" width="223.19" height="119" as="geometry" />
        </mxCell>
        <mxCell id="mm0ojPfIeQABG_KORU4J-43" value="&lt;div&gt;&lt;br&gt;&lt;/div&gt;&lt;div&gt;&lt;br&gt;&lt;/div&gt;&lt;div&gt;&lt;br&gt;&lt;/div&gt;&lt;div&gt;&lt;br&gt;&lt;/div&gt;Пользователи веб-клиента и мобильных приложений" style="rounded=1;whiteSpace=wrap;html=1;align=center;" parent="mm0ojPfIeQABG_KORU4J-42" vertex="1">
          <mxGeometry width="223.19" height="106" as="geometry" />
        </mxCell>
        <mxCell id="mm0ojPfIeQABG_KORU4J-44" value="" style="sketch=0;pointerEvents=1;shadow=0;dashed=0;html=1;strokeColor=none;fillColor=#505050;labelPosition=center;verticalLabelPosition=bottom;verticalAlign=top;outlineConnect=0;align=center;shape=mxgraph.office.users.mobile_user;" parent="mm0ojPfIeQABG_KORU4J-42" vertex="1">
          <mxGeometry x="27.39" y="6" width="59" height="56" as="geometry" />
        </mxCell>
        <mxCell id="mm0ojPfIeQABG_KORU4J-45" value="" style="sketch=0;pointerEvents=1;shadow=0;dashed=0;html=1;strokeColor=none;labelPosition=center;verticalLabelPosition=bottom;verticalAlign=top;align=center;fillColor=#505050;shape=mxgraph.mscae.intune.user_group" parent="mm0ojPfIeQABG_KORU4J-42" vertex="1">
          <mxGeometry x="110" y="9" width="72.6" height="57" as="geometry" />
        </mxCell>
        <mxCell id="mm0ojPfIeQABG_KORU4J-46" value="" style="shape=image;verticalLabelPosition=bottom;labelBackgroundColor=default;verticalAlign=top;aspect=fixed;imageAspect=0;image=https://www.directum.ru/application/images/logo_rx_vertical.svg;" parent="mm0ojPfIeQABG_KORU4J-42" vertex="1">
          <mxGeometry x="172.19" y="6" width="43.67" height="30" as="geometry" />
        </mxCell>
        <mxCell id="mm0ojPfIeQABG_KORU4J-47" value="" style="ellipse;whiteSpace=wrap;html=1;aspect=fixed;fillColor=#000000;" parent="mm0ojPfIeQABG_KORU4J-42" vertex="1">
          <mxGeometry x="103.59" y="99" width="20" height="20" as="geometry" />
        </mxCell>
        <mxCell id="mm0ojPfIeQABG_KORU4J-48" value="Администратор&lt;div&gt;системы&lt;/div&gt;" style="sketch=0;pointerEvents=1;shadow=0;dashed=0;html=1;strokeColor=none;labelPosition=right;verticalLabelPosition=middle;verticalAlign=middle;align=center;fillColor=#515151;shape=mxgraph.mscae.system_center.admin_console" parent="1" vertex="1">
          <mxGeometry x="1196.4300000000003" y="-101.33" width="80" height="69" as="geometry" />
        </mxCell>
        <mxCell id="mm0ojPfIeQABG_KORU4J-49" value="" style="endArrow=none;html=1;rounded=0;strokeWidth=3;exitX=0.5;exitY=1;exitDx=0;exitDy=0;entryX=0.5;entryY=0;entryDx=0;entryDy=0;" parent="1" source="mm0ojPfIeQABG_KORU4J-47" target="mm0ojPfIeQABG_KORU4J-52" edge="1">
          <mxGeometry width="50" height="50" relative="1" as="geometry">
            <mxPoint x="850" y="-91" as="sourcePoint" />
            <mxPoint x="850" y="-52" as="targetPoint" />
          </mxGeometry>
        </mxCell>
        <mxCell id="mm0ojPfIeQABG_KORU4J-50" value="80, 443" style="edgeLabel;html=1;align=center;verticalAlign=middle;resizable=0;points=[];fontSize=12;labelBorderColor=default;rotation=0;" parent="mm0ojPfIeQABG_KORU4J-49" vertex="1" connectable="0">
          <mxGeometry x="0.122" relative="1" as="geometry">
            <mxPoint y="142" as="offset" />
          </mxGeometry>
        </mxCell>
        <mxCell id="mm0ojPfIeQABG_KORU4J-51" value="" style="endArrow=none;html=1;rounded=0;strokeWidth=3;strokeColor=#9e3f00;entryX=0.5;entryY=1;entryDx=0;entryDy=0;" parent="1" target="mm0ojPfIeQABG_KORU4J-40" edge="1">
          <mxGeometry width="50" height="50" relative="1" as="geometry">
            <mxPoint x="1316" y="80" as="sourcePoint" />
            <mxPoint x="1475.19" y="-24" as="targetPoint" />
            <Array as="points" />
          </mxGeometry>
        </mxCell>
        <mxCell id="mm0ojPfIeQABG_KORU4J-52" value="" style="rounded=0;whiteSpace=wrap;html=1;fillColor=#000000;" parent="1" vertex="1">
          <mxGeometry x="874.1700000000001" y="-66.68999999999993" width="21.66" height="12.95" as="geometry" />
        </mxCell>
        <mxCell id="mm0ojPfIeQABG_KORU4J-53" value="" style="shape=image;verticalLabelPosition=middle;labelBackgroundColor=none;verticalAlign=middle;aspect=fixed;imageAspect=0;image=data:image/svg+xml,PHN2ZyB4bWxuczp4bGluaz0iaHR0cDovL3d3dy53My5vcmcvMTk5OS94bGluayIgeG1sbnM9Imh0dHA6Ly93d3cudzMub3JnLzIwMDAvc3ZnIiB4bWw6c3BhY2U9InByZXNlcnZlIiBzdHlsZT0iZW5hYmxlLWJhY2tncm91bmQ6bmV3IDAgMCA1MDMuMSA4OS41OyIgdmlld0JveD0iMCAwIDUwMy4xIDg5LjUiIHk9IjBweCIgeD0iMHB4IiBpZD0iTGF5ZXJfMSIgdmVyc2lvbj0iMS4xIj4mI3hhOzxzdHlsZSB0eXBlPSJ0ZXh0L2NzcyI+JiN4YTsJLnN0MHtmaWxsOiNGRkZGRkY7c3Ryb2tlOiNGRkZGRkY7c3Ryb2tlLXdpZHRoOjU7c3Ryb2tlLW1pdGVybGltaXQ6MTA7fSYjeGE7CS5zdDF7ZmlsbDojMzI2REU2O30mI3hhOwkuc3Qye2ZpbGw6I0ZGRkZGRjt9JiN4YTs8L3N0eWxlPiYjeGE7PHRpdGxlPkt1YmVybmV0ZXNfTG9nb19IcnpfbG9ja3VwX1JFVjwvdGl0bGU+JiN4YTs8ZyBpZD0iTGF5ZXJfMiI+JiN4YTsJPGcgaWQ9IkxheWVyXzEtMiI+JiN4YTsJCTxwYXRoIGQ9Ik04Mi4zLDIxLjNjLTAuNS0xLjYtMS43LTIuOS0zLjItMy43TDQ4LjYsM2MtMC44LTAuNC0xLjctMC41LTIuNS0wLjVjLTAuOCwwLTEuNywwLTIuNSwwLjJMMTMuMSwxNy40JiMxMDsmIzk7JiM5OyYjOTtjLTEuNSwwLjctMi42LDItMywzLjdMMi42LDU0Yy0wLjMsMS43LDAuMSwzLjQsMS4xLDQuOGwyMS4xLDI2LjFjMS4yLDEuMiwyLjksMiw0LjYsMi4xSDYzYzEuOCwwLjIsMy41LTAuNiw0LjYtMi4xbDIxLjEtMjYuMSYjMTA7JiM5OyYjOTsmIzk7YzEtMS40LDEuNC0zLjEsMS4yLTQuOEw4Mi4zLDIxLjN6IiBjbGFzcz0ic3QwIi8+JiN4YTsJCTxwYXRoIGQ9Ik04Mi4zLDIxLjNjLTAuNS0xLjYtMS43LTIuOS0zLjItMy43TDQ4LjYsM2MtMC44LTAuNC0xLjctMC41LTIuNS0wLjVjLTAuOCwwLTEuNywwLTIuNSwwLjJMMTMuMSwxNy40JiMxMDsmIzk7JiM5OyYjOTtjLTEuNSwwLjctMi42LDItMywzLjdMMi42LDU0Yy0wLjMsMS43LDAuMSwzLjQsMS4xLDQuOGwyMS4xLDI2LjFjMS4yLDEuMiwyLjksMiw0LjYsMi4xSDYzYzEuOCwwLjIsMy41LTAuNiw0LjYtMi4xbDIxLjEtMjYuMSYjMTA7JiM5OyYjOTsmIzk7YzEtMS40LDEuNC0zLjEsMS4yLTQuOEw4Mi4zLDIxLjN6IiBjbGFzcz0ic3QxIi8+JiN4YTsJCTxwYXRoIGQ9Ik03Ny42LDUyLjdMNzcuNiw1Mi43Yy0wLjEsMC0wLjIsMC0wLjItMC4xcy0wLjItMC4xLTAuNC0wLjFjLTAuNC0wLjEtMC44LTAuMS0xLjItMC4xYy0wLjIsMC0wLjQsMC0wLjYtMC4xJiMxMDsmIzk7JiM5OyYjOTtoLTAuMWMtMS4xLTAuMS0yLjMtMC4zLTMuNC0wLjZjLTAuMy0wLjEtMC42LTAuNC0wLjctMC43QzcxLjEsNTEsNzEsNTEsNzEsNTFsMCwwbC0wLjgtMC4yYzAuNC0yLjksMC4yLTUuOS0wLjQtOC44JiMxMDsmIzk7JiM5OyYjOTtjLTAuNy0yLjktMS45LTUuNy0zLjUtOC4ybDAuNi0wLjZsMCwwdi0wLjFjMC0wLjMsMC4xLTAuNywwLjMtMC45YzAuOS0wLjgsMS44LTEuNCwyLjgtMmwwLDBjMC4yLTAuMSwwLjQtMC4yLDAuNi0wLjMmIzEwOyYjOTsmIzk7JiM5O2MwLjQtMC4yLDAuNy0wLjQsMS4xLTAuNmMwLjEtMC4xLDAuMi0wLjEsMC4zLTAuMlM3MiwyOSw3MiwyOC45bDAsMGMwLjktMC43LDEuMS0xLjksMC40LTIuOGMtMC4zLTAuNC0wLjktMC43LTEuNC0wLjcmIzEwOyYjOTsmIzk7JiM5O2MtMC41LDAtMSwwLjItMS40LDAuNWwwLDBsLTAuMSwwLjFjLTAuMSwwLjEtMC4yLDAuMi0wLjMsMC4yYy0wLjMsMC4zLTAuNiwwLjYtMC44LDAuOWMtMC4xLDAuMi0wLjMsMC4zLTAuNCwwLjRsMCwwJiMxMDsmIzk7JiM5OyYjOTtjLTAuNywwLjgtMS42LDEuNi0yLjUsMi4yYy0wLjIsMC4xLTAuNCwwLjItMC42LDAuMmMtMC4xLDAtMC4zLDAtMC40LTAuMWgtMC4xbC0wLjgsMC41Yy0wLjgtMC44LTEuNy0xLjYtMi41LTIuNCYjMTA7JiM5OyYjOTsmIzk7Yy0zLjctMi45LTguMy00LjctMTMtNS4ybC0wLjEtMC44bDAsMEw0OCwyMmMtMC4zLTAuMi0wLjQtMC41LTAuNS0wLjhjMC0xLjEsMC0yLjIsMC4yLTMuNHYtMC4xYzAtMC4yLDAuMS0wLjQsMC4xLTAuNiYjMTA7JiM5OyYjOTsmIzk7YzAuMS0wLjQsMC4xLTAuOCwwLjItMS4ydi0wLjZsMCwwYzAuMS0xLTAuNy0yLTEuNy0yLjFjLTAuNi0wLjEtMS4yLDAuMi0xLjcsMC43Yy0wLjQsMC40LTAuNiwwLjktMC42LDEuNGwwLDB2MC41JiMxMDsmIzk7JiM5OyYjOTtjMCwwLjQsMC4xLDAuOCwwLjIsMS4yYzAuMSwwLjIsMC4xLDAuNCwwLjEsMC42djAuMWMwLjIsMS4xLDAuMiwyLjIsMC4yLDMuNGMtMC4xLDAuMy0wLjIsMC42LTAuNSwwLjhMNDQsMjIuMWwwLDBsLTAuMSwwLjgmIzEwOyYjOTsmIzk7JiM5O2MtMS4xLDAuMS0yLjIsMC4zLTMuNCwwLjVjLTQuNywxLTksMy41LTEyLjMsN0wyNy42LDMwaC0wLjFjLTAuMSwwLTAuMiwwLjEtMC40LDAuMWMtMC4yLDAtMC40LTAuMS0wLjYtMC4yJiMxMDsmIzk7JiM5OyYjOTtjLTAuOS0wLjctMS44LTEuNS0yLjUtMi4zbDAsMGMtMC4xLTAuMi0wLjMtMC4zLTAuNC0wLjRjLTAuMy0wLjMtMC41LTAuNi0wLjgtMC45Yy0wLjEtMC4xLTAuMi0wLjEtMC4zLTAuMnMtMC4xLTAuMS0wLjEtMC4xbDAsMCYjMTA7JiM5OyYjOTsmIzk7Yy0wLjQtMC4zLTAuOS0wLjUtMS40LTAuNWMtMC42LDAtMS4xLDAuMi0xLjQsMC43Yy0wLjYsMC45LTAuNCwyLjEsMC40LDIuOGwwLDBjMC4xLDAsMC4xLDAuMSwwLjEsMC4xczAuMiwwLjIsMC4zLDAuMiYjMTA7JiM5OyYjOTsmIzk7YzAuMywwLjIsMC43LDAuNCwxLjEsMC42YzAuMiwwLjEsMC40LDAuMiwwLjYsMC4zbDAsMGMxLDAuNiwyLDEuMiwyLjgsMmMwLjIsMC4yLDAuNCwwLjYsMC4zLDAuOVYzM2wwLDBsMC42LDAuNiYjMTA7JiM5OyYjOTsmIzk7Yy0wLjEsMC4yLTAuMiwwLjMtMC4zLDAuNUMyMi40LDM5LDIxLjEsNDQuOCwyMiw1MC41bC0wLjgsMC4ybDAsMGMwLDAuMS0wLjEsMC4xLTAuMSwwLjFjLTAuMSwwLjMtMC40LDAuNS0wLjcsMC43JiMxMDsmIzk7JiM5OyYjOTtjLTEuMSwwLjMtMi4yLDAuNS0zLjQsMC42SDE3Yy0wLjIsMC0wLjQsMC0wLjYsMC4xYy0wLjQsMC0wLjgsMC4xLTEuMiwwLjFjLTAuMSwwLTAuMiwwLjEtMC40LDAuMWMtMC4xLDAtMC4xLDAtMC4yLDAuMWwwLDAmIzEwOyYjOTsmIzk7JiM5O2MtMS4xLDAuMi0xLjgsMS4yLTEuNiwyLjNjMCwwLDAsMCwwLDBjMC4yLDAuOSwxLjEsMS41LDIsMS40YzAuMiwwLDAuMywwLDAuNS0wLjFsMCwwYzAuMSwwLDAuMSwwLDAuMS0wLjFTMTUuOSw1NiwxNiw1NiYjMTA7JiM5OyYjOTsmIzk7YzAuNC0wLjEsMC44LTAuMywxLjEtMC40YzAuMi0wLjEsMC40LTAuMiwwLjYtMC4yaDAuMWMxLjEtMC40LDIuMS0wLjcsMy4zLTAuOWgwLjFjMC4zLDAsMC42LDAuMSwwLjgsMC4zYzAuMSwwLDAuMSwwLjEsMC4xLDAuMSYjMTA7JiM5OyYjOTsmIzk7bDAsMGwwLjktMC4xYzEuNSw0LjYsNC4zLDguNyw4LjIsMTEuN2MwLjksMC43LDEuNywxLjMsMi43LDEuOEwzMy40LDY5bDAsMGMwLDAuMSwwLjEsMC4xLDAuMSwwLjFjMC4yLDAuMywwLjIsMC43LDAuMSwxJiMxMDsmIzk7JiM5OyYjOTtjLTAuNCwxLTEsMi0xLjYsMi45djAuMWMtMC4xLDAuMi0wLjIsMC4zLTAuNCwwLjVzLTAuNCwwLjYtMC43LDFjLTAuMSwwLjEtMC4xLDAuMi0wLjIsMC4zYzAsMCwwLDAuMS0wLjEsMC4xbDAsMCYjMTA7JiM5OyYjOTsmIzk7Yy0wLjUsMS0wLjEsMi4yLDAuOCwyLjdjMC4yLDAuMSwwLjUsMC4yLDAuNywwLjJjMC44LDAsMS41LTAuNSwxLjktMS4ybDAsMGMwLDAsMC0wLjEsMC4xLTAuMWMwLTAuMSwwLjEtMC4yLDAuMi0wLjMmIzEwOyYjOTsmIzk7JiM5O2MwLjEtMC40LDAuMy0wLjcsMC40LTEuMWwwLjItMC42bDAsMGMwLjMtMS4xLDAuOC0yLjEsMS4zLTMuMWMwLjItMC4zLDAuNS0wLjUsMC44LTAuNmMwLjEsMCwwLjEsMCwwLjEtMC4xbDAsMGwwLjQtMC44JiMxMDsmIzk7JiM5OyYjOTtjMi44LDEuMSw1LjcsMS42LDguNywxLjZjMS44LDAsMy42LTAuMiw1LjQtMC43YzEuMS0wLjIsMi4yLTAuNiwzLjItMC45bDAuNCwwLjdsMCwwYzAuMSwwLDAuMSwwLDAuMSwwLjEmIzEwOyYjOTsmIzk7JiM5O2MwLjMsMC4xLDAuNiwwLjMsMC44LDAuNmMwLjUsMSwxLDIsMS4zLDMuMXYwLjFsMC4yLDAuNmMwLjEsMC40LDAuMiwwLjgsMC40LDEuMWMwLjEsMC4xLDAuMSwwLjIsMC4yLDAuM2MwLDAsMCwwLjEsMC4xLDAuMWwwLDAmIzEwOyYjOTsmIzk7JiM5O2MwLjQsMC43LDEuMSwxLjIsMS45LDEuMmMwLjMsMCwwLjUtMC4xLDAuOC0wLjJjMC40LTAuMiwwLjgtMC42LDAuOS0xLjFjMC4xLTAuNSwwLjEtMS0wLjEtMS41bDAsMGMwLTAuMS0wLjEtMC4xLTAuMS0wLjEmIzEwOyYjOTsmIzk7JiM5O2MwLTAuMS0wLjEtMC4yLTAuMi0wLjNjLTAuMi0wLjQtMC40LTAuNy0wLjctMWMtMC4xLTAuMi0wLjItMC4zLTAuNC0wLjVWNzNjLTAuNy0wLjktMS4yLTEuOS0xLjYtMi45Yy0wLjEtMC4zLTAuMS0wLjcsMC4xLTEmIzEwOyYjOTsmIzk7JiM5O2MwLTAuMSwwLjEtMC4xLDAuMS0wLjFsMCwwbC0wLjMtMC44YzUuMS0zLjEsOS03LjksMTAuOC0xMy42bDAuOCwwLjFsMCwwYzAuMSwwLDAuMS0wLjEsMC4xLTAuMWMwLjItMC4yLDAuNS0wLjMsMC44LTAuM2gwLjEmIzEwOyYjOTsmIzk7JiM5O2MxLjEsMC4yLDIuMiwwLjUsMy4yLDAuOWgwLjFjMC4yLDAuMSwwLjQsMC4yLDAuNiwwLjJjMC40LDAuMiwwLjcsMC40LDEuMSwwLjVjMC4xLDAsMC4yLDAuMSwwLjQsMC4xYzAuMSwwLDAuMSwwLDAuMiwwLjFsMCwwJiMxMDsmIzk7JiM5OyYjOTtjMC4yLDAuMSwwLjMsMC4xLDAuNSwwLjFjMC45LDAsMS43LTAuNiwyLTEuNEM3OS4zLDUzLjcsNzguNSw1Mi45LDc3LjYsNTIuN3ogTTQ4LjcsNDkuNkw0Niw1MC45bC0yLjctMS4zbC0wLjctMi45bDEuOS0yLjRoMyYjMTA7JiM5OyYjOTsmIzk7bDEuOSwyLjRMNDguNyw0OS42eiBNNjUsNDMuMWMwLjUsMi4xLDAuNiw0LjIsMC40LDYuM2wtOS41LTIuN2wwLDBjLTAuOS0wLjItMS40LTEuMS0xLjItMmMwLjEtMC4zLDAuMi0wLjUsMC40LTAuN2w3LjUtNi44JiMxMDsmIzk7JiM5OyYjOTtDNjMuNywzOSw2NC41LDQxLDY1LDQzLjF6IE01OS42LDMzLjVsLTguMiw1LjhjLTAuNywwLjQtMS43LDAuMy0yLjItMC40Yy0wLjItMC4yLTAuMy0wLjQtMC4zLTAuN2wtMC42LTEwLjEmIzEwOyYjOTsmIzk7JiM5O0M1Mi43LDI4LjYsNTYuNiwzMC41LDU5LjYsMzMuNUw1OS42LDMzLjV6IE00MS41LDI4LjRsMi0wLjRMNDMsMzhsMCwwYzAsMC45LTAuOCwxLjYtMS43LDEuNmMtMC4zLDAtMC41LTAuMS0wLjgtMC4ybC04LjMtNS45JiMxMDsmIzk7JiM5OyYjOTtDMzQuOCwzMSwzOCwyOS4yLDQxLjUsMjguNHogTTI5LjMsMzcuMmw3LjQsNi42bDAsMGMwLjcsMC42LDAuOCwxLjYsMC4yLDIuM2MtMC4yLDAuMy0wLjQsMC40LTAuOCwwLjVsLTkuNywyLjgmIzEwOyYjOTsmIzk7JiM5O0MyNi4xLDQ1LjIsMjcuMSw0MC45LDI5LjMsMzcuMnogTTI3LjYsNTQuMWw5LjktMS43YzAuOCwwLDEuNiwwLjUsMS43LDEuM2MwLjEsMC4zLDAuMSwwLjctMC4xLDFsMCwwbC0zLjgsOS4yJiMxMDsmIzk7JiM5OyYjOTtDMzEuOCw2MS42LDI5LDU4LjEsMjcuNiw1NC4xeiBNNTAuMyw2Ni41QzQ4LjksNjYuOCw0Ny41LDY3LDQ2LDY3Yy0yLjEsMC00LjMtMC40LTYuMy0xbDQuOS04LjljMC41LTAuNiwxLjMtMC44LDItMC40JiMxMDsmIzk7JiM5OyYjOTtjMC4zLDAuMiwwLjUsMC40LDAuOCwwLjdsMCwwbDQuOCw4LjdDNTEuNiw2Ni4yLDUxLDY2LjMsNTAuMyw2Ni41eiBNNjIuNSw1Ny44Yy0xLjUsMi40LTMuNiw0LjUtNiw2bC0zLjktOS40JiMxMDsmIzk7JiM5OyYjOTtjLTAuMi0wLjgsMC4yLTEuNiwwLjktMS45YzAuMy0wLjEsMC42LTAuMiwwLjktMC4ybDEwLDEuN0M2My45LDU1LjQsNjMuMyw1Ni43LDYyLjUsNTcuOHoiIGNsYXNzPSJzdDIiLz4mI3hhOwkJPGcgaWQ9ImxheWVyMSI+JiN4YTsJCQk8ZyBpZD0idGV4dDQzNzMiPiYjeGE7CQkJCTxwYXRoIGQ9Ik0xMjguMSw0OC40YzEuMS0xLjIsMi4xLTIuNCwzLjMtMy42YzEuMS0xLjMsMi4yLTIuNSwzLjMtMy43YzEuMS0xLjMsMi4xLTIuNCwzLTMuNSYjMTA7JiM5OyYjOTsmIzk7JiM5OyYjOTtzMS44LTIuMSwyLjUtMi45SDE1M2MtMi42LDIuOS01LjEsNS44LTcuNSw4LjVjLTIuNSwyLjctNS4xLDUuNS04LDguM2MxLjYsMS41LDMuMSwzLDQuNSw0LjdjMS41LDEuOCwzLDMuNiw0LjUsNS42JiMxMDsmIzk7JiM5OyYjOTsmIzk7JiM5O2MxLjQsMS45LDIuOCwzLjksNCw1LjhjMS4yLDEuOSwyLjIsMy43LDMsNS4zaC0xMi40Yy0wLjgtMS4zLTEuNy0yLjYtMi43LTQuMXMtMi4xLTMtMy4xLTQuNmMtMS4xLTEuNS0yLjMtMy0zLjYtNC40JiMxMDsmIzk7JiM5OyYjOTsmIzk7JiM5O2MtMS4xLTEuMy0yLjMtMi41LTMuNi0zLjV2MTYuN2gtMTAuOFYxOC4ybDEwLjgtMS43TDEyOC4xLDQ4LjQiIGNsYXNzPSJzdDIiIGlkPSJwYXRoMjk4NSIvPiYjeGE7CQkJCTxwYXRoIGQ9Ik0xOTEuMSw3MS40Yy0yLjMsMC42LTQuNywxLjEtNy4xLDEuNGMtMywwLjUtNi4xLDAuNy05LjEsMC43Yy0yLjgsMC4xLTUuNS0wLjQtOC4xLTEuMyYjMTA7JiM5OyYjOTsmIzk7JiM5OyYjOTtjLTItMC44LTMuNy0yLTUuMS0zLjZjLTEuMy0xLjctMi4yLTMuNi0yLjctNS43Yy0wLjYtMi4zLTAuOC00LjgtMC44LTcuMlYzNC42SDE2OXYxOS45YzAsMy41LDAuNSw2LDEuNCw3LjVzMi42LDIuMyw1LjEsMi4zJiMxMDsmIzk7JiM5OyYjOTsmIzk7JiM5O2MwLjgsMCwxLjYsMCwyLjUtMC4xczEuNi0wLjEsMi4zLTAuM1YzNC42aDEwLjhMMTkxLjEsNzEuNCIgY2xhc3M9InN0MiIgaWQ9InBhdGgyOTg3Ii8+JiN4YTsJCQkJPHBhdGggZD0iTTIyNS43LDUzLjRjMC03LTIuNi0xMC40LTcuNy0xMC40Yy0xLjEsMC0yLjIsMC4xLTMuMywwLjRjLTAuOSwwLjItMS44LDAuNi0yLjYsMS4xdjE5LjYmIzEwOyYjOTsmIzk7JiM5OyYjOTsmIzk7YzAuNSwwLjEsMS4yLDAuMiwyLDAuM2MwLjgsMC4xLDEuNywwLjEsMi43LDAuMWMyLjYsMC4yLDUuMS0wLjksNi43LTNDMjI1LDU5LjEsMjI1LjgsNTYuMywyMjUuNyw1My40IE0yMzYuNyw1My44JiMxMDsmIzk7JiM5OyYjOTsmIzk7JiM5O2MwLDIuOC0wLjQsNS42LTEuNCw4LjNjLTAuOCwyLjQtMi4xLDQuNS0zLjgsNi4zYy0xLjgsMS44LTMuOSwzLjItNi4yLDQuMWMtMi43LDEtNS41LDEuNC04LjQsMS40Yy0xLjMsMC0yLjctMC4xLTQuMS0wLjImIzEwOyYjOTsmIzk7JiM5OyYjOTsmIzk7Yy0xLjQtMC4xLTIuOC0wLjMtNC4yLTAuNGMtMS4zLTAuMi0yLjYtMC40LTMuOS0wLjdjLTEuMy0wLjItMi40LTAuNS0zLjMtMC45VjE4LjJsMTAuOC0xLjd2MTljMS4yLTAuNSwyLjUtMC45LDMuOC0xLjImIzEwOyYjOTsmIzk7JiM5OyYjOTsmIzk7YzEuNC0wLjMsMi44LTAuNCw0LjItMC40YzIuNSwwLDQuOSwwLjQsNy4yLDEuNWMyLDAuOSwzLjgsMi4zLDUuMiw0YzEuNSwxLjksMi42LDQsMy4yLDYuM0MyMzYuNCw0OC4yLDIzNi43LDUxLDIzNi43LDUzLjgiIGNsYXNzPSJzdDIiIGlkPSJwYXRoMjk4OSIvPiYjeGE7CQkJCTxwYXRoIGQ9Ik0yNDMuMiw1NGMtMC4xLTMsMC41LTYsMS41LTguOGMwLjktMi40LDIuMy00LjUsNC4xLTYuNGMxLjctMS43LDMuNi0zLDUuOC0zLjgmIzEwOyYjOTsmIzk7JiM5OyYjOTsmIzk7YzIuMi0wLjksNC41LTEuMyw2LjgtMS4zYzUuNCwwLDkuNywxLjcsMTIuOCw1YzMuMSwzLjMsNC43LDguMiw0LjcsMTQuNWMwLDAuNiwwLDEuMy0wLjEsMi4xcy0wLjEsMS40LTAuMSwyaC0yNC41JiMxMDsmIzk7JiM5OyYjOTsmIzk7JiM5O2MwLjIsMi4xLDEuMyw0LjEsMy4xLDUuM2MyLjIsMS40LDQuOCwyLjEsNy40LDJjMS45LDAsMy45LTAuMiw1LjgtMC41YzEuNi0wLjMsMy4yLTAuOCw0LjctMS40bDEuNSw4LjgmIzEwOyYjOTsmIzk7JiM5OyYjOTsmIzk7Yy0wLjcsMC40LTEuNSwwLjYtMi4zLDAuOWMtMS4xLDAuMy0yLjIsMC42LTMuMywwLjdjLTEuMiwwLjItMi40LDAuNC0zLjgsMC42Yy0xLjMsMC4xLTIuNywwLjItNC4xLDAuMmMtMy4xLDAuMS02LjEtMC40LTktMS41JiMxMDsmIzk7JiM5OyYjOTsmIzk7JiM5O2MtMi40LTAuOS00LjUtMi4zLTYuMy00LjFjLTEuNy0xLjgtMi45LTQtMy43LTYuM0MyNDMuNiw1OS4zLDI0My4yLDU2LjcsMjQzLjIsNTQgTTI2OC42LDQ5LjljMC0wLjktMC4yLTEuOC0wLjUtMi43JiMxMDsmIzk7JiM5OyYjOTsmIzk7JiM5O2MtMC4yLTAuOS0wLjctMS42LTEuMi0yLjNjLTAuNi0wLjctMS4zLTEuMy0yLjEtMS43Yy0xLTAuNS0yLTAuNy0zLjEtMC43Yy0xLjEsMC0yLjEsMC4yLTMuMSwwLjdjLTAuOCwwLjQtMS42LDAuOS0yLjIsMS42JiMxMDsmIzk7JiM5OyYjOTsmIzk7JiM5O2MtMC42LDAuNy0xLjEsMS41LTEuNCwyLjRjLTAuMywwLjktMC41LDEuOC0wLjYsMi43TDI2OC42LDQ5LjkiIGNsYXNzPSJzdDIiIGlkPSJwYXRoMjk5MSIvPiYjeGE7CQkJCTxwYXRoIGQ9Ik0zMTAuMyw0NC4yYy0xLTAuMi0yLjEtMC41LTMuNC0wLjdjLTEuNC0wLjMtMi44LTAuNC00LjItMC40Yy0wLjgsMC0xLjYsMC4xLTIuNSwwLjImIzEwOyYjOTsmIzk7JiM5OyYjOTsmIzk7Yy0wLjcsMC4xLTEuNCwwLjItMi4xLDAuNHYyOS4xaC0xMC44VjM2LjZjMi4yLTAuOCw0LjUtMS40LDYuOC0xLjljMi45LTAuNyw1LjktMSw4LjgtMC45YzAuNywwLDEuNCwwLjEsMi4xLDAuMSYjMTA7JiM5OyYjOTsmIzk7JiM5OyYjOTtjMC44LDAsMS42LDAuMSwyLjUsMC4zYzAuOCwwLjEsMS42LDAuMiwyLjUsMC40YzAuNywwLjEsMS40LDAuMywyLjEsMC42TDMxMC4zLDQ0LjIiIGNsYXNzPSJzdDIiIGlkPSJwYXRoMjk5MyIvPiYjeGE7CQkJCTxwYXRoIGQ9Ik0zMTcuOSwzNS45YzIuMy0wLjYsNC43LTEuMSw3LjEtMS41YzMtMC41LDYuMS0wLjcsOS4xLTAuN2MyLjctMC4xLDUuNCwwLjQsOCwxLjMmIzEwOyYjOTsmIzk7JiM5OyYjOTsmIzk7YzIsMC43LDMuOCwxLjksNS4xLDMuNWMxLjMsMS42LDIuMiwzLjUsMi43LDUuNWMwLjYsMi4zLDAuOCw0LjcsMC44LDcuMXYyMS41SDM0MFY1Mi41YzAtMy41LTAuNS01LjktMS40LTcuNCYjMTA7JiM5OyYjOTsmIzk7JiM5OyYjOTtjLTAuOS0xLjQtMi42LTIuMi01LjEtMi4yYy0wLjgsMC0xLjYsMC0yLjUsMC4xYy0wLjksMC0xLjYsMC4xLTIuMywwLjJ2MjkuNGgtMTAuOEwzMTcuOSwzNS45IiBjbGFzcz0ic3QyIiBpZD0icGF0aDI5OTUiLz4mI3hhOwkJCQk8cGF0aCBkPSJNMzU4LjksNTRjLTAuMS0zLDAuNS02LDEuNS04LjhjMC45LTIuNCwyLjMtNC41LDQuMS02LjRjMS43LTEuNywzLjYtMyw1LjgtMy44JiMxMDsmIzk7JiM5OyYjOTsmIzk7JiM5O2MyLjItMC45LDQuNS0xLjMsNi44LTEuM2M1LjQsMCw5LjcsMS43LDEyLjgsNWMzLjEsMy4zLDQuNyw4LjIsNC43LDE0LjZjMCwwLjYsMCwxLjMtMC4xLDIuMXMtMC4xLDEuNC0wLjEsMmgtMjQuNSYjMTA7JiM5OyYjOTsmIzk7JiM5OyYjOTtjMC4yLDIuMSwxLjMsNC4xLDMuMSw1LjNjMi4yLDEuNCw0LjgsMi4xLDcuNCwyYzEuOSwwLDMuOS0wLjIsNS44LTAuNWMxLjYtMC4zLDMuMi0wLjgsNC44LTEuNWwxLjUsOC44JiMxMDsmIzk7JiM5OyYjOTsmIzk7JiM5O2MtMC43LDAuNC0xLjUsMC42LTIuMywwLjljLTEuMSwwLjMtMi4yLDAuNi0zLjMsMC43Yy0xLjIsMC4yLTIuNCwwLjQtMy44LDAuNmMtMS4zLDAuMS0yLjcsMC4yLTQuMSwwLjJjLTMuMSwwLjEtNi4xLTAuNC05LTEuNSYjMTA7JiM5OyYjOTsmIzk7JiM5OyYjOTtjLTIuNC0wLjktNC41LTIuMy02LjMtNC4xYy0xLjctMS44LTIuOS00LTMuNy02LjNDMzU5LjIsNTkuMywzNTguOCw1Ni42LDM1OC45LDU0IE0zODQuMiw0OS45YzAtMC45LTAuMi0xLjgtMC41LTIuNyYjMTA7JiM5OyYjOTsmIzk7JiM5OyYjOTtjLTAuMi0wLjktMC43LTEuNi0xLjItMi4zYy0wLjYtMC43LTEuMy0xLjMtMi4xLTEuN2MtMS0wLjUtMi0wLjctMy4xLTAuN2MtMS4xLDAtMi4xLDAuMi0zLjEsMC43Yy0wLjgsMC40LTEuNSwwLjktMi4xLDEuNiYjMTA7JiM5OyYjOTsmIzk7JiM5OyYjOTtjLTAuNiwwLjctMS4xLDEuNS0xLjQsMi40Yy0wLjMsMC45LTAuNSwxLjgtMC42LDIuN0wzODQuMiw0OS45IiBjbGFzcz0ic3QyIiBpZD0icGF0aDI5OTciLz4mI3hhOwkJCQk8cGF0aCBkPSJNNDAyLjYsMjUuMWwxMC44LTEuN3YxMS4yaDEzdjloLTEzVjU3Yy0wLjEsMS45LDAuMywzLjgsMS4yLDUuNGMwLjgsMS4zLDIuNCwyLDQuOSwyJiMxMDsmIzk7JiM5OyYjOTsmIzk7JiM5O2MxLjIsMCwyLjQtMC4xLDMuNS0wLjNjMS4yLTAuMiwyLjMtMC41LDMuNC0wLjlsMS41LDguNGMtMS40LDAuNi0yLjksMS00LjQsMS40Yy0xLjksMC40LTMuOSwwLjYtNS45LDAuNiYjMTA7JiM5OyYjOTsmIzk7JiM5OyYjOTtjLTIuNSwwLjEtNS0wLjMtNy4zLTEuMmMtMS44LTAuNy0zLjQtMS45LTQuNi0zLjNjLTEuMi0xLjUtMi0zLjMtMi41LTUuMmMtMC41LTIuMi0wLjctNC41LTAuNi02LjdWMjUuMSIgY2xhc3M9InN0MiIgaWQ9InBhdGgyOTk5Ii8+JiN4YTsJCQkJPHBhdGggZD0iTTQzMS45LDU0Yy0wLjEtMywwLjUtNiwxLjUtOC44YzAuOS0yLjQsMi4zLTQuNSw0LjEtNi40YzEuNy0xLjcsMy42LTMsNS44LTMuOCYjMTA7JiM5OyYjOTsmIzk7JiM5OyYjOTtjMi4yLTAuOSw0LjUtMS4zLDYuOC0xLjNjNS40LDAsOS43LDEuNywxMi44LDVzNC43LDguMiw0LjcsMTQuNmMwLDAuNiwwLDEuMy0wLjEsMi4xYzAsMC44LTAuMSwxLjQtMC4xLDJINDQzJiMxMDsmIzk7JiM5OyYjOTsmIzk7JiM5O2MwLjIsMi4xLDEuMyw0LjEsMy4xLDUuM2MyLjIsMS40LDQuOCwyLjEsNy40LDJjMS45LDAsMy45LTAuMiw1LjgtMC41YzEuNi0wLjMsMy4yLTAuOCw0LjctMS41bDEuNSw4LjgmIzEwOyYjOTsmIzk7JiM5OyYjOTsmIzk7Yy0wLjcsMC40LTEuNSwwLjYtMi4zLDAuOWMtMS4xLDAuMy0yLjIsMC42LTMuMywwLjdjLTEuMiwwLjItMi40LDAuNC0zLjgsMC42Yy0xLjMsMC4xLTIuNywwLjItNC4xLDAuMmMtMy4xLDAuMS02LjEtMC40LTktMS41JiMxMDsmIzk7JiM5OyYjOTsmIzk7JiM5O2MtMi40LTAuOS00LjUtMi4zLTYuMy00LjFjLTEuNy0xLjgtMi45LTQtMy43LTYuM0M0MzIuMyw1OS4zLDQzMS45LDU2LjYsNDMxLjksNTQgTTQ1Ny4yLDQ5LjljMC0wLjktMC4yLTEuOC0wLjUtMi43JiMxMDsmIzk7JiM5OyYjOTsmIzk7JiM5O2MtMC4yLTAuOS0wLjctMS42LTEuMi0yLjNjLTAuNi0wLjctMS4zLTEuMy0yLjEtMS43Yy0xLTAuNS0yLTAuNy0zLjEtMC43Yy0xLjEsMC0yLjEsMC4yLTMuMSwwLjdjLTAuOCwwLjQtMS42LDAuOS0yLjIsMS42JiMxMDsmIzk7JiM5OyYjOTsmIzk7JiM5O2MtMC42LDAuNy0xLjEsMS41LTEuNCwyLjRjLTAuMywwLjktMC41LDEuOC0wLjYsMi43TDQ1Ny4yLDQ5LjkiIGNsYXNzPSJzdDIiIGlkPSJwYXRoMzAwMSIvPiYjeGE7CQkJCTxwYXRoIGQ9Ik00ODcsNjVjMS40LDAuMSwyLjktMC4xLDQuMi0wLjZjMC44LTAuNCwxLjMtMS4zLDEuMi0yLjJjLTAuMS0xLTAuNy0xLjktMS42LTIuMiYjMTA7JiM5OyYjOTsmIzk7JiM5OyYjOTtjLTEuNS0wLjktMy4yLTEuNy00LjktMi4yYy0xLjctMC42LTMuMi0xLjMtNC42LTJjLTEuMy0wLjYtMi40LTEuNC0zLjUtMi40Yy0xLTEtMS43LTIuMS0yLjItMy40Yy0wLjYtMS41LTAuOC0zLjEtMC44LTQuNyYjMTA7JiM5OyYjOTsmIzk7JiM5OyYjOTtjLTAuMS0zLjMsMS40LTYuNSw0LTguNWMyLjctMi4xLDYuMy0zLjEsMTAuOS0zLjFjMi4yLDAsNC41LDAuMiw2LjcsMC43YzEuNywwLjMsMy40LDAuNyw1LjEsMS4zbC0xLjksOC41JiMxMDsmIzk7JiM5OyYjOTsmIzk7JiM5O2MtMS40LTAuNS0yLjctMC44LTQuMS0xLjJjLTEuNi0wLjQtMy4zLTAuNS00LjktMC41Yy0zLjQsMC01LjEsMC45LTUuMSwyLjhjMCwwLjQsMC4xLDAuOCwwLjIsMS4yYzAuMiwwLjQsMC41LDAuNywwLjksMSYjMTA7JiM5OyYjOTsmIzk7JiM5OyYjOTtjMC40LDAuMywxLDAuNiwxLjcsMWMwLjcsMC40LDEuNywwLjgsMi45LDEuMmMyLDAuNyw0LDEuNiw1LjgsMi42YzEuNCwwLjcsMi42LDEuNiwzLjYsMi44YzAuOSwwLjksMS41LDIsMS45LDMuMyYjMTA7JiM5OyYjOTsmIzk7JiM5OyYjOTtjMC40LDEuNCwwLjYsMi44LDAuNiw0LjJjMC4yLDMuNC0xLjQsNi43LTQuMyw4LjZjLTIuOCwxLjktNi44LDIuOS0xMiwyLjljLTIuOSwwLjEtNS43LTAuMi04LjUtMC45Yy0xLjYtMC40LTMuMS0wLjktNC42LTEuNCYjMTA7JiM5OyYjOTsmIzk7JiM5OyYjOTtsMS44LTguOGMxLjgsMC43LDMuNywxLjMsNS42LDEuN0M0ODMuMSw2NC44LDQ4NSw2NSw0ODcsNjUiIGNsYXNzPSJzdDIiIGlkPSJwYXRoMzAwMyIvPiYjeGE7CQkJPC9nPiYjeGE7CQk8L2c+JiN4YTsJPC9nPiYjeGE7PC9nPiYjeGE7PC9zdmc+;direction=north;labelPosition=right;align=center;textShadow=1;horizontal=0;fontColor=default;" parent="1" vertex="1">
          <mxGeometry x="460" y="123.82" width="29.71" height="166.06" as="geometry" />
        </mxCell>
        <mxCell id="mm0ojPfIeQABG_KORU4J-54" value="" style="endArrow=none;html=1;rounded=0;strokeColor=#fec514;entryX=0.25;entryY=1;entryDx=0;entryDy=0;strokeWidth=3;" parent="1" source="mm0ojPfIeQABG_KORU4J-68" edge="1">
          <mxGeometry width="50" height="50" relative="1" as="geometry">
            <mxPoint x="1224.34" y="325.05999999999995" as="sourcePoint" />
            <mxPoint x="1224.34" y="269.0599999999999" as="targetPoint" />
          </mxGeometry>
        </mxCell>
        <mxCell id="mm0ojPfIeQABG_KORU4J-55" value="" style="rounded=1;whiteSpace=wrap;html=1;" parent="1" vertex="1">
          <mxGeometry x="769.09" y="149.06" width="120" height="120" as="geometry" />
        </mxCell>
        <mxCell id="mm0ojPfIeQABG_KORU4J-56" value="web-server replica 1" style="shape=image;verticalLabelPosition=bottom;labelBackgroundColor=default;verticalAlign=top;aspect=fixed;imageAspect=0;image=https://www.directum.ru/application/images/logo_rx_vertical.svg;" parent="1" vertex="1">
          <mxGeometry x="775.4300000000001" y="161.06" width="110" height="75.58" as="geometry" />
        </mxCell>
        <mxCell id="mm0ojPfIeQABG_KORU4J-57" value="" style="rounded=1;whiteSpace=wrap;html=1;" parent="1" vertex="1">
          <mxGeometry x="904.09" y="149.06" width="120" height="120" as="geometry" />
        </mxCell>
        <mxCell id="mm0ojPfIeQABG_KORU4J-58" value="web-server replica n" style="shape=image;verticalLabelPosition=bottom;labelBackgroundColor=default;verticalAlign=top;aspect=fixed;imageAspect=0;image=https://www.directum.ru/application/images/logo_rx_vertical.svg;" parent="1" vertex="1">
          <mxGeometry x="910.4300000000001" y="161.06" width="110" height="75.57" as="geometry" />
        </mxCell>
        <mxCell id="mm0ojPfIeQABG_KORU4J-59" value="" style="rounded=1;whiteSpace=wrap;html=1;" parent="1" vertex="1">
          <mxGeometry x="1039.0900000000001" y="149.06" width="120" height="120" as="geometry" />
        </mxCell>
        <mxCell id="mm0ojPfIeQABG_KORU4J-60" value="service replica 1" style="shape=image;verticalLabelPosition=bottom;labelBackgroundColor=default;verticalAlign=top;aspect=fixed;imageAspect=0;image=https://www.directum.ru/application/images/logo_rx_vertical.svg;" parent="1" vertex="1">
          <mxGeometry x="1044.43" y="161.06" width="110" height="75.58" as="geometry" />
        </mxCell>
        <mxCell id="mm0ojPfIeQABG_KORU4J-61" value="" style="rounded=1;whiteSpace=wrap;html=1;" parent="1" vertex="1">
          <mxGeometry x="1174.0900000000001" y="149.06" width="120" height="120" as="geometry" />
        </mxCell>
        <mxCell id="mm0ojPfIeQABG_KORU4J-62" value="service replica n" style="shape=image;verticalLabelPosition=bottom;labelBackgroundColor=default;verticalAlign=top;aspect=fixed;imageAspect=0;image=https://www.directum.ru/application/images/logo_rx_vertical.svg;" parent="1" vertex="1">
          <mxGeometry x="1181.4300000000003" y="161.06" width="110" height="75.58" as="geometry" />
        </mxCell>
        <mxCell id="mm0ojPfIeQABG_KORU4J-63" value="" style="aspect=fixed;sketch=0;html=1;dashed=0;whitespace=wrap;verticalLabelPosition=bottom;verticalAlign=top;fillColor=#FFFFFF;strokeColor=#000000;points=[[0.005,0.63,0],[0.1,0.2,0],[0.9,0.2,0],[0.5,0,0],[0.995,0.63,0],[0.72,0.99,0],[0.5,1,0],[0.28,0.99,0]];shape=mxgraph.kubernetes.icon2;kubernetesLabel=1;prIcon=ing" parent="1" vertex="1">
          <mxGeometry x="762" y="122.13" width="29.17" height="28" as="geometry" />
        </mxCell>
        <mxCell id="mm0ojPfIeQABG_KORU4J-64" value="" style="ellipse;whiteSpace=wrap;html=1;aspect=fixed;fillColor=#ff6600;" parent="1" vertex="1">
          <mxGeometry x="819.0200000000001" y="139.06" width="20" height="20" as="geometry" />
        </mxCell>
        <mxCell id="mm0ojPfIeQABG_KORU4J-65" value="" style="ellipse;whiteSpace=wrap;html=1;aspect=fixed;fillColor=#ff6600;" parent="1" vertex="1">
          <mxGeometry x="954.09" y="139.06" width="20" height="20" as="geometry" />
        </mxCell>
        <mxCell id="mm0ojPfIeQABG_KORU4J-66" value="" style="ellipse;whiteSpace=wrap;html=1;aspect=fixed;fillColor=#ff6600;" parent="1" vertex="1">
          <mxGeometry x="1100.4300000000003" y="139.06" width="20" height="20" as="geometry" />
        </mxCell>
        <mxCell id="mm0ojPfIeQABG_KORU4J-67" value="" style="ellipse;whiteSpace=wrap;html=1;aspect=fixed;fillColor=#ff6600;" parent="1" vertex="1">
          <mxGeometry x="1239.43" y="139.06" width="20" height="20" as="geometry" />
        </mxCell>
        <mxCell id="mm0ojPfIeQABG_KORU4J-68" value="" style="ellipse;whiteSpace=wrap;html=1;aspect=fixed;fillColor=#fec514;" parent="1" vertex="1">
          <mxGeometry x="1216.09" y="139.06" width="20" height="20" as="geometry" />
        </mxCell>
        <mxCell id="mm0ojPfIeQABG_KORU4J-69" value="" style="ellipse;whiteSpace=wrap;html=1;aspect=fixed;fillColor=#03a9f4;" parent="1" vertex="1">
          <mxGeometry x="1126" y="139.06" width="20" height="20" as="geometry" />
        </mxCell>
        <mxCell id="mm0ojPfIeQABG_KORU4J-72" value="" style="ellipse;whiteSpace=wrap;html=1;aspect=fixed;fillColor=#fec514;" parent="1" vertex="1">
          <mxGeometry x="1073.48" y="139.06" width="20" height="20" as="geometry" />
        </mxCell>
        <mxCell id="mm0ojPfIeQABG_KORU4J-75" value="" style="ellipse;whiteSpace=wrap;html=1;aspect=fixed;fillColor=#03a9f4;" parent="1" vertex="1">
          <mxGeometry x="1262.75" y="139.06" width="20" height="20" as="geometry" />
        </mxCell>
        <mxCell id="mm0ojPfIeQABG_KORU4J-84" value="" style="rounded=0;whiteSpace=wrap;html=1;fillColor=#000000;" parent="1" vertex="1">
          <mxGeometry x="874.1700000000001" y="107.05000000000007" width="21.66" height="12.95" as="geometry" />
        </mxCell>
        <mxCell id="mm0ojPfIeQABG_KORU4J-85" value="" style="group" parent="1" vertex="1" connectable="0">
          <mxGeometry x="1399.9999999999998" y="119.99999999999994" width="274" height="302.9500000000001" as="geometry" />
        </mxCell>
        <mxCell id="mm0ojPfIeQABG_KORU4J-86" value="" style="rounded=1;whiteSpace=wrap;html=1;dashed=1;" parent="mm0ojPfIeQABG_KORU4J-85" vertex="1">
          <mxGeometry y="12.950000000000045" width="274" height="290" as="geometry" />
        </mxCell>
        <mxCell id="mm0ojPfIeQABG_KORU4J-87" value="&lt;font style=&quot;font-size: 18px;&quot;&gt;Узел решения интеграции с&amp;nbsp;&lt;/font&gt;&lt;div&gt;&lt;font style=&quot;font-size: 18px;&quot;&gt;онлайн редакторами:&lt;/font&gt;&lt;/div&gt;&lt;div&gt;&lt;font style=&quot;font-size: 18px;&quot;&gt;OnlyOffice или R7 Office&lt;/font&gt;&lt;/div&gt;" style="text;html=1;align=left;verticalAlign=middle;resizable=0;points=[];autosize=1;strokeColor=none;fillColor=none;rotation=0;fontSize=20;" parent="mm0ojPfIeQABG_KORU4J-85" vertex="1">
          <mxGeometry x="14" y="202.9500000000001" width="260" height="90" as="geometry" />
        </mxCell>
        <mxCell id="mm0ojPfIeQABG_KORU4J-88" value="" style="rounded=1;whiteSpace=wrap;html=1;fillColor=#CCCCCC;" parent="mm0ojPfIeQABG_KORU4J-85" vertex="1">
          <mxGeometry x="11" y="52.02000000000004" width="250" height="149.27" as="geometry" />
        </mxCell>
        <mxCell id="mm0ojPfIeQABG_KORU4J-89" value="" style="shape=image;verticalLabelPosition=bottom;labelBackgroundColor=default;verticalAlign=top;aspect=fixed;imageAspect=0;image=data:image/png,iVBORw0KGgoAAAANSUhEUgAAAp4AAACaCAYAAAAAeEisAABJrUlEQVR42u2deXwV9dX/32fuTUhC2MIigkZQVApVKVhcSluwFKnVFhfQ2kX91aValapPn2KxNX30ebrI09a2LpTaurS2DdQqPnXFSltci4raIFRQRMFIAAkEQpJ75/z++E4EkSV37jJzk/PmNS/EZOZ+Z+4snznfcz5HMGLN4+NJVrUyHJ8zUM4FBgPJ935BWA08ivLQUc8wL+rxGoZhGIZh7AmJegDGnqkbz8B0K59D5Up89lOhUnYWnY62YNkoyBO++v+xsZz6CQtJRT1+wzAMwzCMnTHhGVNeOq50uEjqayhTFA4AEvtYJQU0gTyX8NM1PT2eO/ApmqPeD8MwDMMwjHZMeMaQF48tGZ1I6JdV/dOA6gxXbwVZ4KXT36eaZ0fOpTXq/TEMwzAMwwATnrHjxWNLRnuefgXxTwXJVHQCINCCMF/Em9Uz1fayRT4NwzAMw4gDJjxjxNKPl4z2Vb8CeqqGFJ3tCLQo8jtPmG3i0zAMwzCMOGDCMyasnFhevb019U1VPQNkYC62KUqzr/zK8/itiU/DMAzDMKLGhGcMWD6+dHg6zbU+OgmRqlxuW5TtKtzvpWVOD79lkYlPwzAMwzCiwoRnxCwf36Ofr623+OhkoDJPH9OCymNeIvFdv9/Ql0fOrbOCI8MwDMMwCk4y+00YYVk+vke/NC2zFM7I80d1Q3Sir+nuuvHVS4ClUe+7YRiGYRhdD4t4RsTy8aXDU3C9qJxewI9NAStV/LNGLmxbEvUxMAzDMAyja2HCMwKWnlAyWv3ElYJ+HiRf0+t7IgWs9BPJ06SqaYX5fBqGYRiGUShMeBaY5RPLx6nvXaTqnwTktJCog6hCGnhCNXlNz5Yt1uHIMAzDMIyCYMKzgCyfWD7OV+98VE8EcmKZFBqhVZUF6iW+T6psyciFDU1RHx/DMAzDMDo3JjwLxKsnVoxOpeRylBORiEVngKAtiMz3lTmarnjKxKdhGIZhGPnEhGcBePXEitFpX76Cz5lxEZ3tuA5HzPc85rT1qnhq5FwTn4ZhGIZh5AcTnnlm5cQ+1b60fdNXPQPJTUeiXCOq232R+z3ROeW9+iw6cO5blvNpGIZhGEbOSUQ9gM7M8vE9+qUT/rUIpyHeQESI6ZIUYRiwn9+S+te40Z9bN3fpUo36+BmGYRiG0bkwA/k8IqXMAk6XwlsmhRltN0Qm+up3H7354fOBFVGPyDAMwzCMzoVNteeB5af06CdtMgvlnKjHEoIUIk9IW+KSQx/baB2ODMMwDMPIGSY8c8zyU/oOl7bUN0T5IpK33uv5RWgFnqI0fcmh9zWZ+DQMwzAMIyeY8Mwhr57YazSeXonK54tWdO4gJbBSS9OntZYetGLk3DrrcGQYhmEYRlaY8MwRKyf3GYenF/nKSSKRdCTKNQqkFZ7wEulrSst6PWfV7oZhGIZhZIMJzxywcnKfcWmR8xOiJ2rUHYlyjdDqw4KEx/d7bEkuGWAm84ZhGIZhhMSEZ5asPKXPOPHlfIXOJzoDBG0BmS8J5lR2Szw1wEzmDcMwDMMIgQnPLFh1cr/RKv5lvs/kuHUkyj3Sguh8EROfhmEYhmGEw4RnSF4/pe9wRK9VZZIinSGnc5+Isl1F7xdhTkm3CutwZBiGYRhGRpjwDMHyLwzqV7K15RaFycVhDp9DlBZVHksq322q2O9lq3Y3DMMwDKOjWOeiEJRsbZsFckaXVO1CN/GYmFbpXtm64RLAfD4NwzAMw+gQXVI7hWXtKYP6tSTairUjUU7RwOcT4ayh9zYsiXo8hmEYhmHEHxOeHeT10wcNx09/Q1S/qBS9OXxOEEgprPQ0dVpT6f5mMm8YhmEYxl4x4dkBXj+973DxE5eCfAG0SxQSdRAVSCvyhOBf05Qc8KyJT8MwDMMw9oQJz32w6rR+oz0SX0Y4TZXqqMcTRxRpBRYk0jpjc2m/5SY+DcMwDMPYHSY898Kq0waNFkl/ReBURUx07g2lRYXfJbzkbOBls1oyDMMwDGNXTHjugTVnDhqdSulXRNREZ8dpFuT3It7sA+BlMfFpGIZhGMZOmPDcDWvOHDRafbnMx58M0sk7EuUYpUVgvi/MKafPUwPm1lmHI8MwDMMwABOeH2DtF4YM99Nt1/owCbBCohCIsh3R+z1ljs9Biw6c+5RFPmOEqlbhnBm8An90GmgBtgNtIpKz80JVBagA+hd4n7LFBzaJyOaoB5IPVLUUKAPa/96Xd3QrwfkBbBORdNT7EDWq2hvoHWLV7SJSH/X497FvA3HnRSY0AZtFpOC1BKqaJDeuNmlicn6ragJ37+zGvq/RVnZco61hvwMTnjux9guD+vnq3YKvk1XMMikrVFoQfSyR8L/7bluVdTiKEap6LnA4UF7gj94GrAIagHXAm7ibWCr4e5uIpELuUzfgSOCLBd6nXByTR0Xk8agHki2qWoI7p5LsEJoDg2UQsB/Qax+bWYM7N9YBb+BERvuDblsUYiNqVHUyMDnD1VLAKhH5RdTj38e+XQv0yXC1Z4EFIrKuwGMtAQ4AjsnB5tYAL4lIY4H3wcNdm0mc2CzFvdQMAarZ9zW6HlgL1AfLOty5th33orO9I+OwzkUBa78wqF9KZZaonmFyPAeIdkOYmPa97lVYh6OYMRk4kXBRlFzSBKzEPUiWAveq6lshxWcJcAgwPeJ9CkMrUPTCE9gfOAEYC4wAPpnl9lLAu7hzYyHwiKou7oLi81gyP6+3A88AsRaewLk40ZMJtwPP40RPIdkf92J7XQ629RBwNbCkwPtQCgwHjsfN6o4CBhNeC27CnWdPAwtV9emOiE8TngTT637qek843URnTikV+Fg6mbjnrbMHn3XA3WuWRD0gI1ZUAkcFC8BPgDWq+n/APGCxiGzqyIZEpElVnwZupDjFZ1GiqqOAk4PlSHIbRU/iUic+GSzX4s6PhcDdwJMdPT8MIweMBS6NehCZoqoVuGvzNOBUYFgON98bF8Q4EXd9oqqLgEeBR3BR3W27rtTlheeaLx00Ou37V4onJ0Y9ls6IQlLgEMX7w9tfHHjaxta+1uHI2Bv7AV/G3SCfV9U/AfeKyPoOrPsW8AfgDNxbvJEnAsF5Lu6BMwDojoum5Jv9cA/QScBzGZ4fhhEKVT0Wd971jXosGYy5Evg8MBX3ct8Xl8eZb44BjgDOA14NAgmPiMiy9l/o0sLz7S9WjwC+oPAZEbGczrwhCUEPSVP6o17lzVdqLStlGpEnVRuxJMmO/KNxuGm4k4Ob1x9EZG8uCWnc1P31wC1R70hnIyhCGIqL+hyD+276UdjnSPv5UU7m54dhZEyQP34sMIEi0UxBHv9JwEjgINz1Uqhi0hJcnmgPXIH2UOBUVf0n8FcReagoDmI+WHvhmApp2jAxjU4RxKrX84uAJD3lk+Knz3zn/kNmw8pC5+cYxUclLh9pKC6CeaSqzgLW7K4aVERUVd8F7gUuwL11l0S9E52BoPr4U8A03JRjoQXn7sjo/DCMkByHy13uF/VA9oaqluNE5tnAKbic9+4U3r2kHQ/oGSxDcNfpKKDrCk+/acNhoBOAYZbXWRgUKlHOgvQ/6qaO3GRT7kYH6QaMxuUm+cA8VX12d0UmQWFSvar+HBf53J/obrxFT2AfczAuh3MqLvITN3Y+P0qAu1X1BYt+GtkSWM99Fvgo0b9o7WucY4HTcddq3PzHk8GY6tv/0SVJiH8UIkeZo1TBGaHCR/qWbV9K4asSjeLFwyWyX4CLPGxR1aUi0raH36/FPTAmkxvfvS5HIDpHAmficm6HRz2mvdB+fnwNF2H5napa8ZGRLZ/EvWzFTci9RzAbMR73YvgZCm+T11G2Av8HXVR4as34ZP3KVQepymDTnRHgc1RaUn/DhKeRORU4S5NVwF2q+voeIp/bVPVO3BTPkRSm8KXTEORzDgHOAb5EcRnzn43LLStV1YVxFZ+BsN/VYH937Mv7dE+UqeqQ3X00gW8ukLbI8O7ZqTjnw1GPZS9j7IeLcH6VeM5GtOMDm+nKwvOdlW9WqSd9RcUeRlHg6WGel8jUNNgwdmY6zkPuD7hq9g8gIver6sdw0YoDoh7wHvCDJTYEJtNDgatwU3fFJDrbaTdc91X1oTh4f6pqGTtMu5M4cbyzwf6eomphDMuTuHP+G7v5WRuwAVeI966qrmCHSf92nH9qm4ho1McsYsbjqsF7Rz2Q3RHkdJ4D/D+cb26c2QK8IiJLoIsKTz+RqEooPZWufl1FhEiFJ2JFH0Y2VOKmVf/NHoRnwK+ADxFf4bkRFwmIE5XANbgChWIuvJyME1KrKbxR9+44FmcDdSQwhvxO3yZxBVcd9bR9EWcC3r6swh27rswM4p1ecirFITrBdaub1/6PLik8gSC10+bZI6HLv0gbOeIQ4BRVXd3+Jr0rIrJCVf+I85qM41TU88CyrLeSW2bh8mOLWXS2Mxl4Q1V/LCKrC/nBwVTtKJzf6RmEnzIvBO2NHC4K/r1MVf+C80hdFPXgCo2qfgP3wpppH/lCjW8ycDHFITrBtdp8pP0fXVJ47l/atLqhtaLeBFBUeCs839sY9SiMTsHZuCnDJXv5nXtxfYiHE79ps0dwEaZYEDxwTyf3onM18BSu9eUyYFP7y4Kqjg9+ZxTOtuaj5C4aWIYrjtoMfDdfx21ndsm7G1eIz8wDw4Pl66q6EpgnIjVRD6oQqGpvoAbnQxk7VHUELho7NuqxdJDVwGMi8t7MVJcUnsxe26xfPWy9qL9ZXQWkUVDkdU1KY9SjMEKzEbgJ10O7I4zAWd2MBg7E5bnlinJglKqOFZFn9/A7zcDvcG/duS4UKMMV4YTpfPYv4FViMNUeFLoMxOUE9s7hph/GpTu8jDtvmnE5hDvTLrwX476nATjvxHPIjXDrD5ygqs+LyL15OYABqvpJ4DJcdL0Yc2N3pQw4HJiuqhOBHwALO3lB0jdwojOuNmztKQC5TFdrAJ4DXgLewF2ruzIAl7I0Ahcd72j60mrgfVHzLik8RdCG83S5ivdvQY+OejxdCVVt9jx5rl+fbm9lvzUjItLAs+xyM9kLi3B5g5U4g+MJwETcAy1bBDgUlze3W+EZGMu/jYt8LsjxsWiPboURnk8BK0QkDsVFFbi8zsFk/8BN43IEf4D7TlYDm/e0nyKycy5hU9AEYAMuin0UcDUurSIsCdy5dpqqPioiW3N98IJ+2Bfg8u7GBMczrsIlU5K4l5ExwHXAn1T1VyJSH/XAcklQVDcAF6mO5XcXdCSagLvv5CJX8Al2zLq8ibM82sYHXw5hh/NCT9y9/ABc4duYYEy7IwW8jrvXvUeXFJ4AHv6LaZGnwRuO+fwVDEH+Tz1dRuVLzVGPxQhNGmjKwKbmvd9T1WXAK7jo1hdwPnnZ9g8+BBipqt1EpGV3vxAYy68PlpwRCI4weVbNOEG+NpfjCbkPlbho9OfJ/pmwEfgncDvugdaYaRehnZoArMM9DBuA/8RNwYd1IqkCjsblrtbm+PhVA1fgqqCHE9O8wBxQhkuH6A30U9W7gRf24qVbbFTi2sHGrhBRVQU3u3Mhrud6IovNteKM3H+Pu0ZXAu/s8gLYkTFVAC/gZnzm4WYnPokT7+33kbXAEpH3z3B2WeFZddCBbze8+fZfEA4S5UQV8/nLNwLL8OVOb1vqNamJl4WMURiCKbqlqroGVzWbxOX1ZUMvXHedA4EVhdoXVS3F2eAcF2L15biK/C2FGu9e6AdMIfu8yo3A34Fbgb9l+iDblSBC+g4wP4hGTQeOJ5z49HBdrE5X1fnZjg3e8zrtD1yJyzXuS0wjZTlmCC5vtgK4U1WfKXbxGVhdjcB5BMeRCpzLxEfI7kW9FZf2cgdwv4isCrshEdkGrFTV13CR0+eBf+ByT4/E3ZNfD372Prqs8JSahamNF455Kp3eWoWnBwoyKuoxdV40jUqjJ9yWLk8s7PubZZ05P8joACLSqKoLcdM2H8KJgmyowuWRFkx44gTbKMJFSB7BRRki7SkePHCH4yKB2dAIPAncISIP53qcInKvqvbCHeuhhIv49MQ9FEcHY83muJXi0hLOxE2xl9O1bFIG4orQEsHxeDqIVBcrBwCn4UR1pqzHRUvzEukOXrr6AV/P8jNacXn5dwK/EpGczDoGfq/bCay4VPVvuOvsozjhWbfrOl3h7WyPVP3yucZEIrFIRG4TYRkCtuR2ETQteI2C3J8uSdza/6a6nOdXGcVJkCP2V4JuFlnSCydICkLwMDgU16IuU7YDDxD0LY6Ynrgo4rAstpHC5WPelufinXm482VDyPXb22p+JZtBBN/9QJzonImLRnUl0dlOFS5Sfg5wWNSDCYuqdsO1hj0v5CaeBV7L4xDLg/FlU2jn46a95wFzciU6d4eILBWR24Hv4F5EPxBo6tLCE6Dql3Wrm9Pe3SrejQjrRQRbcrN4kEakHuH+vs09Lx9wc12TiLn2G+9jDS7nLttoSW8Km5vVHfcwCNNV5lVgZT5v/h0hyBvbH/hYlptaC/wJV8GeN4KioBtwUZuwnYgqgZOD/LSw9Melh8zE6gOqcNHyiwIboqIiuAY+jCsQ7BdiE03An8nvTMtgXDQ2G94F7gN+Wqj7johsFJGG3f2sywtPgANvW7pRE/JbEb4Z9Vg6EyrSiCcLZGvPy+V3z0RuGWPEj+AmuAwnQLOhBCcGC8UhuCnbMJ/5a2JgoYQ7ZgeSfY7t3bh8sbw/0ERkBU7ghjWDb+/oMykL8XkMJjp3Zn/gczij/GKjGy5v8qyQ6z9M/mcuqtjRAjYs9wO35sPRIQxFleM5Ztbi4QiT8NMnKHI0yODgR38TZKmqzO+WbHn2qSuPz9icfMDNdU3A7eu/NhJBbyDc24/RjlAvyB19pP/18ruFoXI6L6ntX+nROjaRZpKixwscprBf8AF/E3gkmUjc22Nrz9dqzlvV1du7FTPbccbi52SxjVIKKwSOBT4dct3bcZGSqKkm+2jnw8BfsilSCMHtOAuXbNIDpuBcBbZlslJgdn9elp+9Kylc+sDf2eGN+zQ7WlaeQ+aibhNwY7vpu6qOws0K9MYVfRyJ++5ztR9DgG+q6sI9dRGLKeOBaYS7dzQCP8ZNY+elODlwTJiIe1kKy/PAwyISmw5pRSE8x97wzNAU3ldR/ayvepDglbBTkq3AMaAfQXRqq5Y+e/Ssf/6mpHrgX56admDGb+C+x7xS9cp89GrcjdnIGFmj4s9pK5Fb6TN+m9MUmTG9tsc4z2+5XJHRKtpP0DIRSbRP1Cv+MSBHpNLpixvL3/39pXf3+PUvzt4SmwvLyIgUe++33hF6UaDrVVUH4wqiMn0YbMNVeO7R07LA9Av2Ixv+QOFbfq7D5dV9hPD+nseSYaGGqlbh7GI+maP9WIrLb/4LO3qjt6cQ7PwiPTEHn/Uv3PPew0W6EzgROgInak/PwWdU4bpDZTstXBCC7/MTwRKGX+OcKfJ539kfd55nw5+Bv+VxjBkTe+E5ZtaScT5tFwreCaD9PWR3bxZlQJkA+HwM8Xqn3nxn0HE/fnPOU1dmJj4H3FzX1HTJyHtbfS8pHucpOjrqY1BUqK4VYY5XmrirqvfLDVLzr4wfsFfcXTVZ/fS3fGce3QvEA0F3yg4VpAwoQ6hKo19OJryh02t739W4tfcjt1v0sxjJNsczQW47eeyNo3HV7JlWVrcC98REdIIrkPloFuv/C+fJWtD2tyLiq+oLwWeHFZ4HAQer6oYMUgSOx4mUbHuur8CJgQdwwuXdvY1BVbOuFg8qzt+3HVXdhPvuVuCKTi7HndflIT8mCUxQ1XHA84HdTpyZQDgfYR/nLftr3PHLZ275/riXpLD8E+eZ3JDFNnJOrIXnmFlLxqFtM1RkDM6UdN85qUIv8D+iSLKNhq3H/fjNuzMVn5U319U3XTJyXpskkq6du4nPjqDoWsS7UZR5vda8/Ib8NDOvzppaSt+lz1hVf6bCaOlga0VBBoJMFNUefXq8W3bZA8Pu+/lJK1o6sq7RadhOATwxA/uhY8i861Irzgz9gcIfmt3uRy+c+MqmrePTQENEQnoJTnhOItw0Z7sZ+lKcmf9eCQpnPhWsk01txMO4KPFCYK2IhC2Syprge9sEbFLVt3Di5CLg44TzdG3vcHQ2zkIntsJTVYfg8iZHhlh9G+47/DegwT7n3EopR9foX3Hd0WJldRXL4qKRNXWlH/3JC6OQ1FV4MgEYCNrhsSpSjuoR+OmL2mg4e/xvXs/4pKi8ua6+LJm+B5G7QJ5HBFv2vIh4DYL80lPm9Zow/A2ZS0b+hDW1/Ss3Se/jBb0KGCdIRWbeTfQG+Zim5YLklobPX/bAsGy74RiFQ8j+xr0NNwWbbw7GTU/2zXC9JlyXl7BFMbmmP26KMJso8QvkuBNURxGR9TgLm2wKOz6Es5PqCKNxU55VWXzeQpy5/r0isipK0bkrItIkIo8BPyP7gpnPAEMCr9O4Mgn3Aplp9LoV1+nndhFpDTws+9HBIEmG7I+734S9Rjfjop1xsG17H7ETnuNvqqss79V6vO+nr8UlgFeE8Y9UkXJFjgL/m00bN35t/G9eL8NZJ3SY8hvrVpdo+g/Az/FkUdTiLq6LiNSrclMyUXJzr/1eXiXT5mYkOq+o7Vm1xWubKMjVokzJwja0UuBjivxHsqnhSzWPD+msres6G0nCGTfvTCuFKdj5HC5KkulsUT1uOjMu9CO7TkVv4abaoyySWoXrABWWEXS8qGQy4Qtx2nB5sN8DHsqg1WzBEZFFwC3AY4SPWA4BTiKmBbqqOgKX0xrm+6wHfr9LAVUl+SkuGkJ2OdhLgH/vzkczamIlPEfW1pVu3r79w6J6gZCVAHGLUIoyDNErmt59d8rYm5ZVZSo+K2+uqy/Bf0g9mS3I81F7Y8ZsSYuwEZE7SnqX31r5sxfWZ9oKs6a2f6XneZ/A5xxUJ+XAtL7cE44SZHrj+sYpNbUjS1W7pLlzUaCqSaAPLp83G/IuPFW1H24aMtOcru246NwTGa6XT/rh2n2GZSkuNzHKfNW3cZ1RwnIIHchnDKY8R5J5lBtcPuB6nLn+wly06iwAL+Dsd57PYhufJrvocF4IorBn4VJlMs1l3Qa8hPOsLQT746baw/I08bBt+wCxEZ5Ta2sT5a+nhnqiUxQ9O4cRuQRINcJ1fuv2cWNvWlZVU9PxaXtw4jPRVPGAn+AnAsuijjDGYREkjdAo4t3f2jd1fff/fmadZGgOX1Pbv7JJ2o5W9S5WZIqQmz+4ArTDBb2uSd45/uq7q3ub+Iwt3XHTmMOz3M5mwns7dpSxuChEppH0dcA/RaSgRTj7YADZFUWsIHpLqHfI7jsfDFR1YEp4RPC7YWZQmnFi5dZIjlAIghSAv+Gq7cN+xx8C9ovhdPthuH7sYc79N4EHAi/ZQtCX7GYlXsTl8MaOWAjPqbW1iTfeOLzaK0l9BfEuzcuHqA5DdJafbv70A/2e7aMZRj573fbUxlRb6l4P7zsirI+B9otugbR61Isn9/fUbpcPqMm8I1FN7cjSJmk72he5AHIS6dw13F0KMkzxb0qVbjvqe0tHlpj4jBdBtHMIubFy2UIeKzeDNomfI/MojuJE2qJ8jS0k5YSvXgbXfSnSzktBy9W3IKtuaAcCPfbxO58kfCX7GmBeHKc790ZwbJ9lh69opgzARRWzdQDIGcH95nzcNZypI0ULrkJ8d9FOD3L7bFHVBC7/uKM5yLuSwr3wxPK8i4XwXNUwsr+Wps/0Ra8A7Z633uHoMFSv99Mln55w+6qMi08G3FzX1OPnL8yTrt7hSGgUYUEq3e1y+Xm4jkRbkmvHqifTgbPz2SteRUf44t/ctHTN8d9bOrJQdjtGx+gHTADOyMG2Gslu2nVf9MQVTWQagWgBlovIX/M4tjD0JztT6nre7zUZFW1ANt1YKth38cYoXOVyGDYCDxX8qOSG1biq6LBUExPhGYjOA4DphPsuXwAeFJHdFTB25BzKlMFkV82+BtgUt2r2diIXnmNurKumtXUGPt8VvPJcTbfu8Y/KIaL8sGnTpq+FqXYH6PnTJbeLcJ6IdL3e7p5XryJzerb2vrRvSNH5zXuqJqPyfTR30+v7mHz/kEriV03L155mBUfxIDBvPhe4Lgeb2w68nueOKecSrrvJMrLLlYsrS4lHNKXdhzIsA9n393oA4abZ64FnRCTb5ghRsZrs8pL3Iz5tRauAn4Zcdxuu0v/ePfx8GLnPZ60gO6ePVWTvjZw3IhWeY3/+4lCP1pl4ejZCWT4jX7ssg0X42rbGd794XO2boaabtre2zRPxvqMiq6Of+y5QXqd4a1S4tUVLf8KA8aEqHr95T9VkX7lWYHQBv28QHSJ4327auPmLZrUULap6LPAD4GpyY0OyEng5z8P+f4Sb9nqBmHUNCTovZVtx3ASZWabFlAHs+xzcj3BVy+spfFenXNKGy09eGXL9I4hBZXvgwXo84Vvc/g1XqFPI1JJsI55L2dEFK3ZEJjzH3bi4Wn1/BuipqPQlxzkSe0VJgA5VlQtTaxsuOO7HmYvPATfXNUnSuxe4wesa1e5rEZmjvnfXgD7PNEhNTcbVrN+8p2qyqjdTkCNBKgoT7XzvT0KVYSJyYbdtGz9/7m8s8llIVLWfqn5OVX8E3ABMxQm5XNyDXsHlX+Vr7KOAQ8ncQqkB9wB4I19jC0kF2eV3AviBh2HUNOGmFcMi7OUcVNV2q5ww52kTsDbSo5MFwfe7nfDtbJPEo0nNYODrhHvJfReXKvF0gc/3bK/RjZCZw0whieSkGHfj4uoWPzHT85jkq/QVyazKPEeUgn+EiPfFdEnIDkc3/LO+6ZsfnZdOp5MeAkJn7XC0VpEbS9LMq1yzOFRHoi3JPmMVb6aIjtb8mO12hHJVOUISck5Vr8ZtuD7JRuYkgGpV3V0legnOHqkKd38Zhot6DMZNWbZPS+Wq2rUJJzzzWWk6jXDTXi8DS+NkFB6QIDvB30x2BT25ZBv5rdw9mMwLUdppIiKD/RyyFZc7nav+9AVFVQcC4wjfGvY+4O8ReK9me43GdpodCiw8p9bWJlY1jOzflmq9UjxOVYhKdDpEykGPwOeidEkD43/z+u8Wnjc0o4T5yhv+Wd/8rTH3pNPvlXV3KvEpUK/wy5Ik88qOGfqGTFucWUeix/tXNm3SoxOi09XXccE2I9whLVc43iOx9ap7+m/639Ma4lZtXAxUAl/AFQbtShJXJdwr+O8DcMn8uYpu7sqTwJP5eDAElew9gVNDbiKbquA4s5r4PNj8PI8lTAV0Oyli3Dayg6RxhXtFR1BQ9GHci2OYIqe3gAfJb9FivqgnxqkwBROeI2vrSt94JzXYo+1MFS5AKQcXJowSdeHso0RlevPWzVtH1tbdUzd1RBsZhNXLf/jc6uZvjbsnnd4OUAGSrSdhHAhuOHqHlCZuLRtVvT7TjkQ1j/ev3N4ox4roeaoyJeKv+j0EeuPxcRFt+eb9g7bdcMrazlj8kU/KcZ1couZtnNfg4jxtvww4mnAeo/W4iGc208BxJdYPNcMI2B/4BC6/MwwLgJdEpBiFd5xeDj9AQYSn8+lMDZYyPRNlprS3wYwPpaCHo1zX453W+nG3vPziItVNmYnPRaubvzXmHk0nUj76daR4xacoaXWi8/5tlc3X97+2bqvIM5n5dD7ev3L7psTRaUmdJ8rZUe/TB1AGqupJHimunj/ov7//ubXFXATQFUkDjwMLg77d+aCU8FZPLwHLRKRtb78UFD4MIbxdz+7YCLwtInnzNe1CpIhPWkEUJIhPZXqHCaKdx+AKisI6Evye8PmtUbONGJ+3eReeU2trE2+8c3i1V6Yno8xUNK4ncakzmZebUmn5+tS5S5+sVW3LJKG4/IfPrdaa4+7eti2dQrkOkcgr+jJGNY1IvaguqGjxLq+cVddETWabqKkbWbr93xuOVkldIMjZMXvJeA9BqlCdkta2spr5gy6u+dzaYs/H6ir4uErbO3D5nTlHVUtwFc8nh1g9hesa8nYHfncSzlswbFRmdzwM/CT4Ox9EbsNXQDYS/gEel+KabOiOy3MtNvoBnwKODbn+H4Hni834v1jI+w1kVcPI/uLpmSD/o0Jl1JZA+1oURiD+zW++03r8tLlLMzaFlZqnNlZUVPxW8YrTZN7zmhFZsL1FQpvDNy9fN9YXf7oi8Yt07oK6t/kztqXbZl01f1DxvSh0TZpwYu3JfUUUs6AXMJ5wJuvrgWdFpCPCcyyuJWMu6Ub2Vet7I1/5urFDRLKxpemHyzEsZkrJrm1jVBxLeNEJzvNzU9Q70VnJ681jzOy6as9PzSDNd2Mc6fwAqvoh4Fer16VOC2MyLzULmypvePp2z5PzpKjaa8pGhD9VNJWFNoef8Zf+k0nK90V0SvT7k8HicU7Sb7v16vl9izZFoovQCFyAm2LPZzRiIOGn2R+iA1X2qjoMZ9PUO4/7kQ+OIneuBJ2ZSopTtAEQ9FkfiOu7HoZ6ImgyELhtfB7XcSoM3xORVXHt+tNBRhHjazRvwvO4m54bVpJq+5EnXCQe5ZELiwwXRA7x4IctWzd/7ZTZi0PZ/5T/4OnbUS72RJbFwIdzX0s9wpyKsrJL5eaFoW4W/3l//zNI8xPQcYU1h8/R4nG6r95PZ97ff1y+rgsjND5OdI4H7hWRvLVrDLwbP0x4w+mH6Zi902ScvZQRnkqcwXs+eYZw0a9qnJVPsVINfCyL9d8mmu5WU3D3iUxpv8f8NIIx55rexHhWIi8DO+6m54aJJv8X9SYqdIteUYRbVBiM8LWGVMkVYcVnU1PTQ+J53xNPno9cTe9p8WSN73m3+l73n0C4jkQz/tJ/sqfedYJUF9gYPrd/RCb4eN+aMX/ApHxcG0YoNuGq18dRGF/MQwgvOl8EXqNjNjrH4CpvC80KOk+1fQXZdXjpCCsI17WmBDhQVYtVfGYrnOsosI+pqp4ATMDZuGXKRuC/gFCzfUbHybnwHDd7cbWSuF6RjyFaFTzPo9aQ4RZIqDJU4IwGv+SKSXe+2D3T4zHg5rqm0lJ9xEN+LhK/Dkcga0HmeL53V/fSj4fqSDTjvv6T8WUmosNVAseC4l1KfdHjRbj46vkDpuTkojDC0oTrFf1t4CpclXghzNgPAiaGXPdRoF5E9nodBdOBBxPOXzArginEbKcRq1U1n3mkHcUjvM8muM40+3pJeIlwXpaCi8aeGc2hCU9gvD6W8NPV4NqF1udheO/gepHvOuYKnOfuaDIv6mrFvYzdva9rt0A04IRwWAaGOAYFI6cDGzd7cXU6XTpTVD+tor1FAvlWzAilwAhP+fLmrXDK7MU/uf+iozOKCkrNUxu1ZvxDLS1tvfEUkFiYzKuy1vP0xtISbx51+78hczMTnTW1I0vbyt8dq6Rmakz2KReIUoXIJwRlxvwB237wuXWPRD2mLkYjzptzAc6E/ZUOFupkjapWA2MIF4lsBubTsQfGJFzVfFTTYdtwwj5s7n1/XESvkP2rd0dvwkW32lnHvoXnYsJPGfcFPq6qo0WkKPyCg9zOTwKfJfz58S9gXZ7yJLfvIdXmU7hZhN4htrkK+KWI5EMoh6ER1zUqLAfQ2afap9ZqYvxNdQN9v9uVAqfi0UckvjsdglIVhnoqX16fLrkwZMFRvXaTe0DuEonFtHs9nvyytMSbx4j935C5mZvDp8o3HK9e+ipFxhFdG8z8oOrEZ0IunvGATbvnGR83nb4EuBuYFSy3i8hfCyU6A0YAx+FEVaa8BKzoYNHTBJzwjIrNZBdRGUQ4f8ScEXg1VuKqx7M5Di37+J01uOhdmKhnEpe6cbmq9g66YcWdseyIHIZlEQWcZg/8cKfhjnWmAbX2trvzCzXeDtDMvs/LvXFAiONQMLIe2MjautJ33nlpsJ9Mnqmu2rTcKZtOhlKqMAy8K1q3b60P1eGoZtFqrRl3T0taELSCcB1Rst2PNEKjr9xRVt7tVg6tCtWRKLW15Fg/oefhM6UTftvtVInKRE8kOfPBQdv++zNrrb1mbmjGPcQ34h5ODbiIwzJchPO1KPzzVLUMJzyPCLmJe+hAZCyIqn4Y55EYFe/ijnt1yPUPImLhiWvN2ifLbTSwj6itiLSo6l9x085hUiO6A1OBvwPzVXVDJv7QhSLwrj0SOBvX8SdsMKEV+AeFbbU5HhelDfP9rAIeEpE4mcW/C2zJYv3BQLmqShzPtayEpzOHTwz2k5zp488UNG4diXJNArRa4bo+G7R+3N2ZdziSQHy2pTWlIl+nkO01lTSeNoLcX5ZIXM+3H9sqkpk5cs3j/StTTYmjSeh5ohpbc/gcUgmMF1+TNQ8PuqLmROtwFFAPdKSyvIkd+YTNQBuwAdf/eEXw91IRWR31DuGieCMJZ4HThBOeHUnDmYSbgs0mNzFbNpBd/t1g8usV2hH2I7xwBieQ3ungS84/cFPPw8n8uSk4EXc17rg/G4jPQuQrd4jAyeFDwPnA58jOBupV4GkK5IMZRDsvwp0PmV5TTbjobG0hxtpRRGSjqm7EnaNhbJH6BctbZBc5zQuhhacTnUdWJxPpk1X8mWjx+HRmi6DDVOQm2Ryuw5ETn8fd3Ua3lPj+dSpZTRV1DNW0iNSrJwtKaLlcap4J1ZEo9dqGo/H0Ao1jG8x8oVQqOjmVpsk6HAHuZv0n9m0Z1Br8TnuV6GqgIY+m76EJpkA/SbhiilbgRRHpiIUSwImEm8rPJe0R57AMJ3rheQCu3WhY3qaD5vAiskJVX8F1mArrRDAMl0JyE/CAqq7Opy3YvgjOeQ+XEzkWmAF8hOxaZPrAr4GNIpLRTFrIfSjDRTsnh1kdlx6zSESyuRbyxWaceA+bkjMSWE5nEp4NW0f2Ly1Nn6nquzaYnT/y9T4UHaGe3vx2I5dMm7v0STLsbhEUHP22zdPtqPwm3+MVTxoVb0EJ5ZdLzd9D2UW0rX13rJTIdPWZku/xxhFFz2hL6taa+YP+o4uLzyZgnogsjHogOaQC51kYpotQEzAvg98Pa0yfSxrIzlJpFNEb3x+AM+APy9t0LGrfzp9x4vGsLD5zGHA9TsDeDCzM7yHaK6W4F4hvAOfkYHs+bnr41xTOkqh3MP4wNONcKP5coLFmymbclHtY4fkxXHrHpqh3ZFdCCc9xd9ZVt27TK1H/QkTK6Wqqsx2VD/lpflW/Sa8Z/5vX71143tCM3l6lZmETcHtrzXgEbgDNS+RToF6RO0rgeql5MFTu3DUP7T/ZS+lMXxnXGcwKsuCcdEIqax4edI1Nu3cqxgGHEy5vsQm4PYPfv4L8tp1cgps+3CMiskpVl2f5OeNU9V8iUvCXsMA65/BgCUtGxvAi8ryqPoyLCmbzue05n6eoah3upWV+0J4z38dtCK6V5Dhc5D2XDQw2AdeJyKZ870ewLwOBL+FmKsLwCK4DWijv6gKwClf0FPZcO47oXw53S8bC8xNzXhzqN+sMz5NTfZWyLi1BHEMU/XZbqqn71No375477cCM7UVKYF6bRxnqXS1oNjlLH0CENarMSSYTt9L28W1hXrCveWj/yahc66NHdm3NGeD5J6Z9afv2Q4Nu+J/Ja4vCIsXYJ6fgKmIzpR54kMwiPL8mv1YnrXQskteIS38Ie885Bvg9BTYJDziCcN/Xziwhc5ukR3BT7d8h+1SDbrjp0EOBi1X1ddz59HTw89dx6RCDQ2y7Ejgj8Isl+JxK3DO/LPg7l04km3B5sL/O4TZ3xwrgraAQagRwbsjtNOBa276Q5/FmQ7azEocAB6nq0riJ64yE57jZddW+rzMQOVXV7ytdNtT5PhLqM0w8uXDNu5u6T619c06m4lNqFjZpzfh72zxNInqeaI48MVXXqsqcpCbuoi2cOfw1Dx0w2VN/psKRiHQuy6TwVCJMSsD2mQ8Ous2q3YuboMp8BOGmtDbiolUdvrZEJC6dUd4BniO88ByNK2BYGcHYjyJ8D/F2/k3mlcPrcE0NHgBOz/LzBScCy9hhC9WKE/TgpoJbCdcS1MMJj3bR2i4680EKdyx/VIBzu735wYG4Ir2wqRYP4AR+NpXj+WYNrgtaWEpxKR2vAHmPpmdCh9+6x82uq/ZhpopMUtW+iHgx8KKMx+JJuaoe4XnyxbWNm86eWvtmxm/CUrOwvsRnnqc58/l8R8S7MVmauIu6qjcyFZ01tSNLZz5YPc5TfybCaKST+XRmTxXKZIHzZz44qFhb4hmOz+Iq2jOtiN0OvIGzgCpGVpNdxGcAcEww5Vkwguni48iusGg5Lsczo0K3wBB9CfAH4OUc7paHi0D2DvZrCE5YH0W4CnMPJ2h7B0s+PR2X4iLfS/L4GTtTgssx/gzhKr5XAPcCK2PSpWhPbAHW4iKfYTmB7Jwf8sI+hefUWk2Mm11XreiPPNEzgGoRvOg7G8ZsESlXGCV433z73U1XnjI/897uUrOw3vP5g3ryc8RblE0bTBF+7PlaS8vHV2VsDv/QAVWpqk2TkpL+Pp6MQ6Qi6taesVw8Geh5ckrS866qeeRAM5kvQnZqsxfm4f4W8HQUOY45Yh2uK0/YKFUS5/n44QKPewouTzGb6usHgM1hhEcQ1XsEuAF4s8D7HjeWAX8E/ljA6dxRuJfFsBHv3wFLovAKzoTAFWA1kE0613Dg2GBWJzbsVXiOrK0rXbtl+TASeqV48nmgj1AUnRciQZRS0KF43pc3vVPmOhypZpSOIDUL6xMl/kOgvxRkgYi0ZCKBRVglCZntJbx5MH51xpHOx/tXpkQ+kfDlMhUskrdvqhQ+oaoXm/gsSo7ETdeFETGrgb9GvQNhCXwk27vyhGUk7vwfUogxq+ohuK5P2bTJBCccsxFKTbgcwR/jIt+xM+kuAKuB+4B7CthdrN19YiLhLMmW4XKy49Iac1+8jSuCC0sZzmrq+CAvNhbsUUSOrK0r7bWJER7pr6jKBaBlCBJ9aDHmiwv9D1OVK0g3Txl757KqjMXnfy6sT6T8B8XjRuARgfXCPv9sF5ElKt5sj9JbOCTE9Prj/StJlRyb8PQcVCdFfSiLZ9EqRCeq6mU1j1ebWC8uzsLl1mX6Qt2Im2L8V9Q7kCX1wJNZrF+JK8yaoHn2cg6i02fiIqxhP6sNJ5gWk4W/YRApXQ/8Eie+1uHshLoKq3E2RLUiUkh3jyrci2LYCN5duIYVkfmnZkgD8CLZdYH6CC4tIWxHtpyz27yPqbW1iTcaE4MTkp6qyjc8qGhXVUaHSCBUp1Wv65bW5k/duWzRx1XfrcmkAKFm4Xr98XGPybae63zx/58HYxAGolrOzrloIm2qrBeRNxD9o3f1o7eHGXDN4yMrSTUeDZyHMqUzdj3NM5UI40n5yZrHh1xBj76ra45+LlaVhMb7CTqenEm46t6VwOJCWcfkkU24qO2XCN/zfBSu281bqrpIRDJ29tgXQV/2o4GLCW/gDk543p+L9Iigacg2Vb0GuAYXiR1IuLzDYqJddN5aYNEJ2aVXrMJV3W8t8JhDIyJNqvoqLo/80yE3UwqMB1ar6qo4mOV/QHhOra1NvNN4ZHU3L30yMF2Uzt4GM58ME59Zrb5+5x93LntUVTdm1OHoyqeagWe1ZuoSSpuGQeoMRIaB7rixefq2KItIlDwh//lAqOmDmrqRpaxtPBq4ADjbNGdoKoHJtPlNbNnwHbKbwjTySNDxZBzhcjsV1xbwlaj3I1tEpFVVlwF/I7sq7fZCj42q+nIu20EGHXaGAdfiCprCthr1cS4Ev83V2ID2rkaXAt/GHcODcFZJnY0ULso7B/iViBTLdLXijNh/XkRj3pm1uGKoTxHehq0aOAmoU9V7CtmuVYMZ3521zweEZ8PWkf190meKMhNndGtkgcIwVK9vbYNpc5feQ4YdjgCkZm4rblrvv/IyyLVbxoJMB50S6cHqLIh/Bimk5uEh19ScuMrEZzypJHwHoWZccUKxVrPvSgPOxDwb4dkNl3fXHbiEHNm3BKKzJ66K/ENkF01sBd4Qkaez2MZuCQpVvq2q/wJmEq4DVtxZA/wHsKDIIv1pXK5kvj1G80UjrgPRFqBXFtsZjXt524TLTy4UJbjr9r1irvep53F31lWnVGbgyXcRqYzcpqizLJ4cIh4/rN8sp43/zethOqPkjZoFB0xG9PtIML1uS44WPR0v/dOaRy3nM24E07aDCN8mcBGFs47JO4GIWIiLemZDKa6LzBOqWpPtuIJUiDNwU6RHkf0U9jKccMobInI3TsD/EDclXeykcJX738OlVNxTZKIT3Pnz4yIcNwCBhddbwE9zsLnhwC2q+o18jllVq1X1XFW9B+cg8b6X/Pcinp+488WhpJiBcqqCdSTKNSqDPeHbvt8cusNRrrluwQGTfeRaXGWvkXsmiPht//3YQdtmfuoN63AUHwbiKj3D8iwxM2TOAetxouyfOdhWb2C6qk7EtRJ9GKgXkQ55ZqrqAbjo6Zk4sdMjR/v3DIV5YViBE5734M6zSbhK7GJiM1AX7MMDuOneUPZTEbMNV5wzL+qBZMlmXMT2StysQjbuQkOAq1V1Em4WdUkuiq2C7Y3CvXweAvQNxvqBlKQkwMQ766pbU8wAORXBOhLlBU0oMkyEC9dt2xyqw1EuqXm0epwvejUqR5o5fJ4QShU5Po1edv3j1bddM2G1dTiKB/2BL4Rcdy3uRlqMuWJ7w8dV6N8BfJ7sezz3BsbgHj5fApYHveFfw0WgdqUfLjfyw8EyLPh/uaiUb8V1aPp1IaqZgwjVu8G0+1vA/+Ei7ONw052H4nJV43bffRP3QvUsrur/NWADsC7wlCxG/g3MjVG3sLAo7t7zM+AiwhcCttMX+DhwC/Cyqi7CvXS+ui9/U1XtDwzF5Y0OxV23I4Mx9calA+wsjj8gkpMAqZRcCJwA0hfz6cwjWq7KEYL32YYtW5YCCwo+AkW+99yYcm9zwwwQ60iUf6qAyaq8/YNFB6+eMe61zjD9VrQE07cfAg4LuYnHgWWFTM4vBEEka7uq/hQn+sbgPACzoQw3tTcMd8zfDZZNu/ndClwu5yDcwyuXleHtEa+CWl8FhurbVPXt4LOX4Sry++Ae0vvhWlr2C45VDz7Yl70EJxIyze1rL6TasJufbWJH16ZNwe8tw+USbsC9GDTkw52gwKzH5Ub+PeqBZEtQmJNS1duBj+JeYrJ5didwL3WjcOJxDO5736Sq63DtdHdlIO4c7Yk7H9uXvmQohJPjf/PvUUrqFJBqUROdBaBc4SN4TPvMb1999sEvHVrQN7FZj+xX4ZVuOAVXIdcZKy/jyECET6faUstxESUjOg7ETQWFvWk/SSfuViMiS1T1FmAGTiyGrSDfmSQuwjcggl16C5gPPFLAzjrvIxANrbgp+BUAgZl3L1z0vQ/uXlwR/Htn9sdVI2eaK74d11P+3t38rAknylK4KdzNIrIqimOTZ5bgvvdCmdvnncBBYQ4uoHEkuXlBaxeQ7QVx7efHrlThxGrWOjEpop9TlYMESs27sTAI9AfvmNY2/3Byk1PVYVrLy3p6ab3QR2JV5NTpUR2BJ+NqHh9yX82EVZuiHk5XRFVLgcOBT4TcxGrcNPu7Ue9LnrkHlwf2Vdx0Wi7EZxTU46p37xORWM00BPmu69n9A/49VHU4LjqfqfBsxeXu3R71vkbERlyk86moB5IH/oK7PnvhcilzHTCsJDcpLnvE80U/TfxyTTo9gvbyRScU8jNra6cmBO2jwkcjL/ruYgsiFaoMSeIVuq+1sYMBuC4ew0Ou/zDOjicV9Y7kk2CK9Xbc9PRqnB1NsbEReAy4Q0RejnowRkHxcekV/4iDWXquCa7P3+Oi2aspwo5ZSVEdZ6VEUSC9VBldyE98fdBLFem25MHg5/Vtxtg9IjpAhMNwdjxG4RmBy2kKQwpX3dvpHmS7Q0TWqOqNOM/Si3BTwMWSirUJ14/7xyJibhJdj804a7BO+93vdH32Ak7F5VgWjZJLFtFYOxlS8Nt4aVtLogUqPfvKI0GQ7qi/X9Tj6IoEOXUfAY4LuYnldI4WmR0meLj9AngD+CZuei/OKTrt/dNvAW7vpHmLxt5J4dIrHukElex7Jbg+/wtX7X4hrlitKNJikqY7DaNAiJT41g0sKg7BRTv7hFx/Hjt13ugqiEiDqv4WZ0szCzgm6jHtAR/X2eUiIiwkMiJnPS7a/ULUAykEgfj8Ie7F+Dqcg0TsKZapEyNHJIg+37GrLqAbPdEVUZ8DXZRRhJ9mB5fz2OWEJ4CItIrIIpwR+hU425045ZXVAzcCQ0TkXhOdXZo7gCcL4dcaF0Rku4j8Afg07jqIPR7CKyK0ImBLQZcmtLAi5IoJqza1wZLIFViXXdgm4q3P/ps0MkFVq3Ci85CQm3gUeKuzFxXti2Dq8te4Cuv/xhmMR1l4tDQYxynA/+By+4yuy0pcxXesHAwKRZBacj3OGP5PxONFeRvOH/R930lSkL+i7C+SU8NeY99sVE8eKvSHJruVbiGVekLQYmvhVtwIrShv+q2tXWIKKGaMweV3loRc/56uLjrbEZHNqroMJ0AX4PyAJ+I8BQtRtLge58+4EOdTuQzY2NkM/Y1Q3A6s6OLnwkZc16lrgD/grs/2FpaF0njNwKu4FrXP4myt3mdInxRJ3K2kThakp4pNvRcG2aTo0uS2ZMFtPpJbU01a5t0NvgnPwvKqij7Zv9d+65yntVFAjsO1YcwUxRlxPxD1DsSJQISvUtW3cNGMJ3APtkNxPqmHEz66vCspXCRrNfASrlJ5LS7ndH0XFxnGDpbjWpN2do/dvdLegQxYpqqrcR2zHsRZyI3EXaPD+GCjgrC04o75Gtx3sAJ3T3gL1x3rbRH5wCxf0k8lnpdk+k8KZ+NaIhn5JQValxDvTwsuOqSx0B++PVm9tVuy/gFJtT2t6Eew7kX5R6RRVRd5Ce/xi45+ri3q4QANuO47m7JYv5hyqLbiboKZipQWnAl3l5y62xeBAF0NrFbVStzzoxo4GDgAV2XbDdd9pwwXEe3FniPP9bjzqgkXudmEO9feCn62Eni9i0Wf29jRxjITNhP++i4kT4fYt91xH/BaRLmdG3HnaCafvY7M70cZEeQ6L8OJ0CdxrhQHBH8PwonPgbhrtL0V5p6ioi2487AVN32+GSc41+Ou0QZ2CM51+3ohTC48b+j2ib9deXtaU70QPi+adfN5Y08IKXyWakJq063JgvdpB6iZsDAFrPrBooN/LsoVKhyJWppF/pAmfF3geXLf9l5ly6MeTcBfcW+m5SHXb8ZFnYqFx3AFMZne21pxU0XGPhCRJna0hPwrgKpW486xA9khOvuy54fbWzjR2YibmtsoIvVR71vEvAs8zj46HO2GVtyUa9y5g9xYdC0iupzGv+HEZyapJisooCdwEHVcDyxW1xq9OzAY96JYjrs2q9jzd9GME8vN7HgxXIebdchY7Ev7f5z4u+Vj28S7DF8nk/kN2tgHgviovg5yc2s37vrHtEMboh7TD58Ycjl4X/ZVhkth8rO6GNosKs+r7317e7/Sp2tG1tm0oGEYhtGlkZ3/ccLvlo+FxMXi6zQVtTaaOUN8UX+9el5NWwnz4iA62/nRU8POV18vsshnjhFaxZd/euJ/v2e3Po/EZIrdMAzDMCJFdv0fn/7dv0f56KWKfDXqwXUaVLfiedeXJMt++fC0A2PXcu9HTw07H5+vKzoq6rF0HuQVz+OSg3p2e3KaRToNwzAMA9iN8AQ4sXbFsHRKv6rKjKgHWOyIsFlUp3sl5fPjKDrb+eGTh01B9CpUx0U9lqJHeDGh3llNLYNWBDm1hmEYhmEAyd39z560rN6c7HZbqi3dH/Es8hkW1S0iTE+36aO9S54qeAV7JjSX9nikR+vmlC+CmvgMSyvCSi8QndeOX5iuiXpEhmEYhhEjZE8/mFpbV7opnTgynfa+Ip5cFvVAiwwF3eYpl3ol5fN78lTj3GnTouzw0SFmLT6sn9+qxyJ8Bxgb9XiKCqUZ9BURrtq6/YBFFuk0DMMwjA8ie/vh1Nq60oZUxcEJSZ0ryLeiHmyRkEZpEPWvbitpm7dw2sg4tK3qMDWLB1VUpLufgC9XiuiEqMdTHEiTon/38L/b1HzgiyY6DcMwDGP3yL5+YWptXelmulX7aZ0B3hcUq3bfCymUpajcmigp/WOcczr3xk7ic4aItdbcK0Kj+izwkv5tPaT3AqteNwzDMIw9s0/h2c6na18fhe9PV9WTMZ/PDxKYw4undyQ97nowRpZJYahZPKiiMl05CbhWYYRZLe0GoRHVBZLwb6uuKHvMqtcNwzAMY+90WHgCnFj72lgfvVh9PVlMfO5ASInPUhW9o8RL3v3AtKGdptvGrGcOO1+Qi1TUfD53QqERlQWS0NuqK0pMdBqGYRhGB8hIeEIgPlUvA+tw5JC0qK5ST25O4hd9pHN33PDs4Zd78GVVhmMdjgBtFnhcJfHDpu6edSQyDMMwjA6SsfCE9sinXCzqT1Poyjmfviiv43n/m6Bs3oPT9u90orOdWYsPO9/zvYsUPRK6dOSzFZEnEgmpKf9IxVMXieV0GoZhGEZHCSU8weV8Cv6lCl3W51Ngs+JN90jG2hw+V8xafNj5nsrXFUZFPZbIEF4sLdWzNmwwc3jDMAzDyJTQwhNchyP1El/F97tih6NGwTurhe6LFk4bUFSWSdnwk8UfmoJyldIFTeaFFyVRNv4bo6ZsFqnxox6OYRiGYRQbyWxW7knL6s1+z9t8SYmgXcbnU2ALKme10H1RfxY2Rz2eQtJIxSO9/a0pEkIXEp+tgqxMkjxrg4lOwzAMwwhNVhFPcD6fjV7Fwaqc2wXEp6JsU+TSNrrP60qRzp2ZtfiwfknxjkW5UqFTm8wrNIvyCiSvamzqZx2JDMMwDCMLshae0G4y37NavLYZCl+gUxYcSRr8Dep7PxGSv+wKOZ17Y/biMRXNsvUEVa/TmswrNIE+jcpPG8u9R6163TAMwzCyIyfCs52T/vz6KN9nuirT6FQdjiQt8IbCbxM+t3Qmn85smL14TMW2xLZJonKtoiOkM/l8Ck2qPO0hc6TnQfddfuiDLVEPyTAMwzCKnZwKT4AT//zaWFJ8F5EJdILIp4ikUd7wPf5Umkrc+H/TDlwT9Zjixk9eGHm+qH8RSKewWhJo8tGnPU/m9Ow1YP55Qxduj3pMhmEYhtEZyLnwBPjMPatO8OEKUf9YkOI1mVd8Fd5AuKukJPnL/zvFROee+NnzH74c/It9OFiKWnxKs6LPi8fPpHvrfZcfusIinYZhGIaRI/IiPAFO/vNrY328y9T3J2txis+0wCoRuVnLut314Emd1xw+V/zsxQ9fLr5+WWG4FmGHI1GaVfRxTSR+uCnhW0ciwzAMw8gxeROeACfe/9pYSScuFr/oOhz5Irzuwf/63crmmejsOL94YeT5ilzko0cWU+RToVXgCS/h1ZQcUWodiQzDMAwjD+RVeEJQcIRcihZPhyMR2Sz409PlyfkPT+7a1eth+MWLI89Xpdg6HL0onnfWhg19rSORYRiGYeSJvAtPgBPve3NYQvyvalqLocNRo3h6VveW7ovmdlGfzlzw85eOmCLqX6UQd5P5VpRXUlpiHYkMwzAMI89k1bmoo/Rs2bx6c7eet3maEkRiaTIv4ANbCUQnXawjUa4pbS19pC3ZkhKBGIvPJoF/qieXNB5hotMwDMMw8k1BIp7gTOa3exUHpzzvXDziJj7TAg2of3X3tu7zLNKZG2YvHtOvrVvLsfhcicSuw1ETyt89ke+u29D3RZteNwzDMIz8UzDhCUGHo249qxPoDFRj0uFIUuAvFfVurWiTP87t4h2Jcs3sxWMq2rq1nIDPDIRYdDgSaFRlgYrcVtpauuCio62QyDAMwzAKQUGFZzsn/fmtUZLwp6vqySjRWS2JpFB/qSfeHemSlrsePOlQq17PA7MXj6lIl7ZOUtFrfRghKpFVu4vQpL4+rCK37ZfwH5tmlkmGYRiGUTAiEZ4AJ9//5lhVvRjVk5XCi09B0opf5+Hd4SfTdz/wWWuDmW9+8a8jzxfVixSislpqAp4W5cf9THQahmEYRsGJTHhCu/jkMpTJoAUUn+KDviGe94t0ImHm8AXkFy9/+HJBvgwMBymcybzSLMLzPvKz9V7qXjOHNwzDMIzCE6nwhEB8il6ML9NAC5DzKb7gr1fPu9X3kr8w0Vl4bl466nzx/YsUCtXbvRXkn3jy/VRJ0wJrg2kYhmEY0RC58AQ46S9vjZK0fykUwGRe2Ooh16e9brc/8NkBNr0eETcvHXU+ql8HHVWAj3tFPO+Svv6hT04bOdcinYZhGIYREbEQngAnPvTmsGSrzkDyJz4F2ex7Mj2d6DH/4cm9rHo9YmYvHTVFVfNtMv9iKp08a8OGHtaRyDAMwzAipiAG8h2h5+bNq1u69bhVARXJufgUZUs6IdO9Mn20+4aHG6PeXwPYlnjE655KpZVSYGyOt94KujKVKjlrw4YeK64dvzBdE/X+GoZhGEYXJzYRT3A+ny09e1ZrivOV3JjMC/goW8VLTOtWkVxEw8LmudOmpaPeV8Mxe/GYCumeOsFXvkXuIp9NIvpP2kouefuIU/5dYx2JDMMwDCMWxEp4QtDhqKziYLzkuTkQn2mgQUSuLqsonTd3gnUkiiOzl4/p5/upYxW50iPrDkdNqP/3hCS/O6y+54sTbHrdMAzDMGJD7IQnvC/yOQPkC0iIDkdKCtWlInJrt2SPP861nM5YM3vxmAq/e+oEQWZI+A5HjagsEI/bRm/xFhxtHYkMwzAMI1bEUni2M+Uvb41ST6b7vp5MRibzrg2mInekxXw6i4XZa8dUsCU9SZBrVXUEZNThqBFlgXip23qnzBzeMAzDMOJIrIUnwMkPvT3W89Nnq+opghyg+/J9VDap6Mui3h/S0nqPdSQqPmYvH3M++KcLHKfQA8Xb6woiK8XnaTz9Xe9Uq4lOwzAMw4gpsReeACff/+ZgLynnqepEQQ4A+ipSKWgSQIXtqDQJrFP0ZRG5u023PfzgSYeaUXiRMmfF6BNI69mqjEJkf6AnsFOnI20SpAl4W0X/4qUSf+z5oeZ/TxMTnYZhGIYRV4pCeLbz+QfeHuHjf0qE41A5EujudkLXqLDEU1lQXs6i308YtD7qsRrZM3vtmIrkFv94H5mAcowKh+z041c8T5Z4+L+VZK/Xzhu6cHvU4zUMwzAMY+/8fxqFnYGg/KHAAAAAAElFTkSuQmCC;direction=east;" parent="mm0ojPfIeQABG_KORU4J-85" vertex="1">
          <mxGeometry x="31.610000000000127" y="102.66000000000014" width="208.79" height="47.99" as="geometry" />
        </mxCell>
        <mxCell id="mm0ojPfIeQABG_KORU4J-90" value="" style="group" parent="1" vertex="1" connectable="0">
          <mxGeometry x="424" y="700" width="922.9099999999999" height="270" as="geometry" />
        </mxCell>
        <mxCell id="mm0ojPfIeQABG_KORU4J-91" value="" style="rounded=1;whiteSpace=wrap;html=1;dashed=1;" parent="mm0ojPfIeQABG_KORU4J-90" vertex="1">
          <mxGeometry width="922.91" height="270" as="geometry" />
        </mxCell>
        <mxCell id="mm0ojPfIeQABG_KORU4J-92" value="Схематичные обозначения:" style="text;html=1;align=left;verticalAlign=middle;resizable=0;points=[];autosize=1;strokeColor=none;fillColor=none;rotation=0;fontStyle=1;fontSize=20;" parent="mm0ojPfIeQABG_KORU4J-90" vertex="1">
          <mxGeometry x="29.050000000000068" y="14.079999999999927" width="280" height="40" as="geometry" />
        </mxCell>
        <mxCell id="mm0ojPfIeQABG_KORU4J-93" value="" style="ellipse;whiteSpace=wrap;html=1;aspect=fixed;fillColor=#ffffff;" parent="mm0ojPfIeQABG_KORU4J-90" vertex="1">
          <mxGeometry x="28.219999999999914" y="73.07999999999993" width="20" height="20" as="geometry" />
        </mxCell>
        <mxCell id="mm0ojPfIeQABG_KORU4J-94" value="&lt;font style=&quot;font-size: 10px; font-weight: normal;&quot;&gt;Исходящее соединение&lt;/font&gt;" style="text;html=1;align=left;verticalAlign=middle;resizable=0;points=[];autosize=1;strokeColor=none;fillColor=none;rotation=0;fontStyle=1;fontSize=20;" parent="mm0ojPfIeQABG_KORU4J-90" vertex="1">
          <mxGeometry x="58.500000000000114" y="58.950000000000045" width="130" height="40" as="geometry" />
        </mxCell>
        <mxCell id="mm0ojPfIeQABG_KORU4J-95" value="" style="rounded=0;whiteSpace=wrap;html=1;fillColor=#ffffff;" parent="mm0ojPfIeQABG_KORU4J-90" vertex="1">
          <mxGeometry x="197.76999999999998" y="76.94999999999982" width="21.66" height="12.95" as="geometry" />
        </mxCell>
        <mxCell id="mm0ojPfIeQABG_KORU4J-96" value="&lt;font style=&quot;font-size: 10px; font-weight: normal;&quot;&gt;Входящее соединение&lt;/font&gt;" style="text;html=1;align=left;verticalAlign=middle;resizable=0;points=[];autosize=1;strokeColor=none;fillColor=none;rotation=0;fontStyle=1;fontSize=20;" parent="mm0ojPfIeQABG_KORU4J-90" vertex="1">
          <mxGeometry x="228.05000000000018" y="58.94999999999982" width="130" height="40" as="geometry" />
        </mxCell>
        <mxCell id="mm0ojPfIeQABG_KORU4J-97" value="&lt;div&gt;&lt;br&gt;&lt;/div&gt;" style="rounded=1;whiteSpace=wrap;html=1;fillStyle=cross-hatch;fillColor=#cb3a3a;align=right;" parent="mm0ojPfIeQABG_KORU4J-90" vertex="1">
          <mxGeometry x="358.74" y="67.52999999999997" width="63" height="29.88" as="geometry" />
        </mxCell>
        <mxCell id="mm0ojPfIeQABG_KORU4J-98" value="&lt;span style=&quot;font-size: 10px; font-weight: 400;&quot;&gt;Виртуальный IP адрес&lt;/span&gt;" style="text;html=1;align=left;verticalAlign=middle;resizable=0;points=[];autosize=1;strokeColor=none;fillColor=none;rotation=0;fontStyle=1;fontSize=20;" parent="mm0ojPfIeQABG_KORU4J-90" vertex="1">
          <mxGeometry x="434.57000000000005" y="58.94999999999982" width="130" height="40" as="geometry" />
        </mxCell>
        <mxCell id="mm0ojPfIeQABG_KORU4J-99" value="Цветовые обозначения:" style="text;html=1;align=left;verticalAlign=middle;resizable=0;points=[];autosize=1;strokeColor=none;fillColor=none;rotation=0;fontStyle=1;fontSize=20;" parent="mm0ojPfIeQABG_KORU4J-90" vertex="1">
          <mxGeometry x="29.210000000000093" y="120" width="250" height="40" as="geometry" />
        </mxCell>
        <mxCell id="mm0ojPfIeQABG_KORU4J-100" value="" style="ellipse;whiteSpace=wrap;html=1;aspect=fixed;fillColor=#ff6600;" parent="mm0ojPfIeQABG_KORU4J-90" vertex="1">
          <mxGeometry x="28.220000000000027" y="173" width="20" height="20" as="geometry" />
        </mxCell>
        <mxCell id="mm0ojPfIeQABG_KORU4J-101" value="&lt;span style=&quot;font-size: 10px; font-weight: 400;&quot;&gt;Подключение сервисов к RabbitMQ&lt;/span&gt;" style="text;html=1;align=left;verticalAlign=middle;resizable=0;points=[];autosize=1;strokeColor=none;fillColor=none;rotation=0;fontStyle=1;fontSize=20;" parent="mm0ojPfIeQABG_KORU4J-90" vertex="1">
          <mxGeometry x="54.3900000000001" y="160" width="190" height="40" as="geometry" />
        </mxCell>
        <mxCell id="mm0ojPfIeQABG_KORU4J-102" value="" style="ellipse;whiteSpace=wrap;html=1;aspect=fixed;fillColor=#9e3f00;" parent="mm0ojPfIeQABG_KORU4J-90" vertex="1">
          <mxGeometry x="28.220000000000027" y="203.43000000000006" width="20" height="20" as="geometry" />
        </mxCell>
        <mxCell id="mm0ojPfIeQABG_KORU4J-103" value="&lt;span style=&quot;font-size: 10px; font-weight: 400;&quot;&gt;Подключение к интерфейсу RabbitMQ&lt;/span&gt;" style="text;html=1;align=left;verticalAlign=middle;resizable=0;points=[];autosize=1;strokeColor=none;fillColor=none;rotation=0;fontStyle=1;fontSize=20;" parent="mm0ojPfIeQABG_KORU4J-90" vertex="1">
          <mxGeometry x="54.389999999999986" y="191.20000000000005" width="200" height="40" as="geometry" />
        </mxCell>
        <mxCell id="mm0ojPfIeQABG_KORU4J-104" value="" style="ellipse;whiteSpace=wrap;html=1;aspect=fixed;fillColor=#ef5098;" parent="mm0ojPfIeQABG_KORU4J-90" vertex="1">
          <mxGeometry x="254.39" y="174.62999999999982" width="20" height="20" as="geometry" />
        </mxCell>
        <mxCell id="mm0ojPfIeQABG_KORU4J-105" value="" style="ellipse;whiteSpace=wrap;html=1;aspect=fixed;fillColor=#fec514;" parent="mm0ojPfIeQABG_KORU4J-90" vertex="1">
          <mxGeometry x="254.39" y="203.43000000000006" width="20" height="20" as="geometry" />
        </mxCell>
        <mxCell id="mm0ojPfIeQABG_KORU4J-106" value="&lt;span style=&quot;font-size: 10px; font-weight: 400;&quot;&gt;Подключение к ElasticSearch&lt;/span&gt;" style="text;html=1;align=left;verticalAlign=middle;resizable=0;points=[];autosize=1;strokeColor=none;fillColor=none;rotation=0;fontStyle=1;fontSize=20;" parent="mm0ojPfIeQABG_KORU4J-90" vertex="1">
          <mxGeometry x="280.71000000000004" y="191.19999999999982" width="160" height="40" as="geometry" />
        </mxCell>
        <mxCell id="mm0ojPfIeQABG_KORU4J-107" value="&lt;span style=&quot;font-size: 10px; font-weight: 400;&quot;&gt;Подключение к Kibana&lt;/span&gt;" style="text;html=1;align=left;verticalAlign=middle;resizable=0;points=[];autosize=1;strokeColor=none;fillColor=none;rotation=0;fontStyle=1;fontSize=20;" parent="mm0ojPfIeQABG_KORU4J-90" vertex="1">
          <mxGeometry x="282.39" y="163.42999999999978" width="130" height="40" as="geometry" />
        </mxCell>
        <mxCell id="mm0ojPfIeQABG_KORU4J-108" value="" style="ellipse;whiteSpace=wrap;html=1;aspect=fixed;fillColor=#03a9f4;" parent="mm0ojPfIeQABG_KORU4J-90" vertex="1">
          <mxGeometry x="461.2699999999999" y="176.83000000000007" width="20" height="20" as="geometry" />
        </mxCell>
        <mxCell id="mm0ojPfIeQABG_KORU4J-109" value="" style="ellipse;whiteSpace=wrap;html=1;aspect=fixed;fillColor=#336791;" parent="mm0ojPfIeQABG_KORU4J-90" vertex="1">
          <mxGeometry x="461.2699999999999" y="206.75999999999985" width="20" height="20" as="geometry" />
        </mxCell>
        <mxCell id="mm0ojPfIeQABG_KORU4J-110" value="&lt;span style=&quot;font-size: 10px; font-weight: 400;&quot;&gt;Подключение к хранилищу&lt;/span&gt;" style="text;html=1;align=left;verticalAlign=middle;resizable=0;points=[];autosize=1;strokeColor=none;fillColor=none;rotation=0;fontStyle=1;fontSize=20;" parent="mm0ojPfIeQABG_KORU4J-90" vertex="1">
          <mxGeometry x="495.21999999999997" y="164.6299999999998" width="150" height="40" as="geometry" />
        </mxCell>
        <mxCell id="mm0ojPfIeQABG_KORU4J-111" value="&lt;span style=&quot;font-size: 10px; font-weight: 400;&quot;&gt;Подключение к СУБД Postgres&lt;/span&gt;" style="text;html=1;align=left;verticalAlign=middle;resizable=0;points=[];autosize=1;strokeColor=none;fillColor=none;rotation=0;fontStyle=1;fontSize=20;" parent="mm0ojPfIeQABG_KORU4J-90" vertex="1">
          <mxGeometry x="495.21999999999997" y="194.52999999999983" width="170" height="40" as="geometry" />
        </mxCell>
        <mxCell id="mm0ojPfIeQABG_KORU4J-112" value="" style="ellipse;whiteSpace=wrap;html=1;aspect=fixed;fillColor=#53a92e;" parent="mm0ojPfIeQABG_KORU4J-90" vertex="1">
          <mxGeometry x="28.219999999999914" y="231.19999999999982" width="20" height="20" as="geometry" />
        </mxCell>
        <mxCell id="mm0ojPfIeQABG_KORU4J-113" value="" style="ellipse;whiteSpace=wrap;html=1;aspect=fixed;fillColor=#4c0099;" parent="mm0ojPfIeQABG_KORU4J-90" vertex="1">
          <mxGeometry x="253.93000000000006" y="231.19999999999982" width="20" height="20" as="geometry" />
        </mxCell>
        <mxCell id="mm0ojPfIeQABG_KORU4J-114" value="" style="ellipse;whiteSpace=wrap;html=1;aspect=fixed;fillColor=#000000;" parent="mm0ojPfIeQABG_KORU4J-90" vertex="1">
          <mxGeometry x="461.27000000000015" y="234.53000000000029" width="20" height="20" as="geometry" />
        </mxCell>
        <mxCell id="mm0ojPfIeQABG_KORU4J-115" value="&lt;span style=&quot;font-size: 10px; font-weight: 400;&quot;&gt;Подключение к registry&lt;/span&gt;" style="text;html=1;align=left;verticalAlign=middle;resizable=0;points=[];autosize=1;strokeColor=none;fillColor=none;rotation=0;fontStyle=1;fontSize=20;" parent="mm0ojPfIeQABG_KORU4J-90" vertex="1">
          <mxGeometry x="54.389999999999986" y="221.19999999999982" width="130" height="40" as="geometry" />
        </mxCell>
        <mxCell id="mm0ojPfIeQABG_KORU4J-116" value="&lt;span style=&quot;font-size: 10px; font-weight: 400;&quot;&gt;Подключение к DirectumLauncher&lt;/span&gt;" style="text;html=1;align=left;verticalAlign=middle;resizable=0;points=[];autosize=1;strokeColor=none;fillColor=none;rotation=0;fontStyle=1;fontSize=20;" parent="mm0ojPfIeQABG_KORU4J-90" vertex="1">
          <mxGeometry x="281.27" y="221.19999999999982" width="180" height="40" as="geometry" />
        </mxCell>
        <mxCell id="mm0ojPfIeQABG_KORU4J-117" value="&lt;span style=&quot;font-size: 10px; font-weight: 400;&quot;&gt;Подключение пользователей к Directum RX&lt;/span&gt;" style="text;html=1;align=left;verticalAlign=middle;resizable=0;points=[];autosize=1;strokeColor=none;fillColor=none;rotation=0;fontStyle=1;fontSize=20;" parent="mm0ojPfIeQABG_KORU4J-90" vertex="1">
          <mxGeometry x="495.21999999999997" y="224.52999999999983" width="230" height="40" as="geometry" />
        </mxCell>
        <mxCell id="mm0ojPfIeQABG_KORU4J-118" value="" style="endArrow=none;html=1;rounded=0;exitX=0.5;exitY=0;exitDx=0;exitDy=0;strokeWidth=3;strokeColor=#ff6600;" parent="1" source="mm0ojPfIeQABG_KORU4J-66" edge="1">
          <mxGeometry width="50" height="50" relative="1" as="geometry">
            <mxPoint x="1030" y="150" as="sourcePoint" />
            <mxPoint x="1110" y="80" as="targetPoint" />
          </mxGeometry>
        </mxCell>
        <mxCell id="mm0ojPfIeQABG_KORU4J-119" value="" style="endArrow=none;html=1;rounded=0;strokeWidth=3;strokeColor=#ff6600;exitX=0.5;exitY=0;exitDx=0;exitDy=0;" parent="1" source="mm0ojPfIeQABG_KORU4J-65" edge="1">
          <mxGeometry width="50" height="50" relative="1" as="geometry">
            <mxPoint x="964" y="150" as="sourcePoint" />
            <mxPoint x="964" y="80" as="targetPoint" />
          </mxGeometry>
        </mxCell>
        <mxCell id="mm0ojPfIeQABG_KORU4J-120" value="" style="endArrow=none;html=1;rounded=0;exitX=0.5;exitY=0;exitDx=0;exitDy=0;strokeWidth=3;strokeColor=#ff6600;" parent="1" source="mm0ojPfIeQABG_KORU4J-64" edge="1">
          <mxGeometry width="50" height="50" relative="1" as="geometry">
            <mxPoint x="826" y="157.13" as="sourcePoint" />
            <mxPoint x="830" y="80" as="targetPoint" />
          </mxGeometry>
        </mxCell>
        <mxCell id="mm0ojPfIeQABG_KORU4J-125" value="" style="group" parent="1" vertex="1" connectable="0">
          <mxGeometry x="550.01" y="126.63" width="157.52" height="170" as="geometry" />
        </mxCell>
        <mxCell id="mm0ojPfIeQABG_KORU4J-126" value="" style="group" parent="mm0ojPfIeQABG_KORU4J-125" vertex="1" connectable="0">
          <mxGeometry width="157.52" height="170" as="geometry" />
        </mxCell>
        <mxCell id="mm0ojPfIeQABG_KORU4J-127" value="" style="rounded=1;whiteSpace=wrap;html=1;" parent="mm0ojPfIeQABG_KORU4J-126" vertex="1">
          <mxGeometry width="157.52" height="170" as="geometry" />
        </mxCell>
        <mxCell id="mm0ojPfIeQABG_KORU4J-128" value="Directum Launcher" style="shape=image;verticalLabelPosition=bottom;labelBackgroundColor=default;verticalAlign=top;aspect=fixed;imageAspect=0;image=https://www.directum.ru/application/images/logo_rx_vertical.svg;" parent="mm0ojPfIeQABG_KORU4J-126" vertex="1">
          <mxGeometry x="14.439333333333334" y="11.333333333333334" width="129.08764" height="88.69688666666666" as="geometry" />
        </mxCell>
        <mxCell id="mm0ojPfIeQABG_KORU4J-129" value="" style="rounded=0;whiteSpace=wrap;html=1;fillColor=#420085;" parent="1" vertex="1">
          <mxGeometry x="647.35" y="113.68000000000006" width="21.66" height="12.95" as="geometry" />
        </mxCell>
        <mxCell id="mm0ojPfIeQABG_KORU4J-133" value="" style="ellipse;whiteSpace=wrap;html=1;aspect=fixed;fillColor=#336791;" parent="1" vertex="1">
          <mxGeometry x="925.1800000000002" y="139.0599999999999" width="20" height="20" as="geometry" />
        </mxCell>
        <mxCell id="mm0ojPfIeQABG_KORU4J-134" value="" style="endArrow=none;html=1;rounded=0;strokeWidth=3;strokeColor=#336791;entryX=0.5;entryY=0;entryDx=0;entryDy=0;" parent="1" target="mm0ojPfIeQABG_KORU4J-133" edge="1">
          <mxGeometry width="50" height="50" relative="1" as="geometry">
            <mxPoint x="935" y="80" as="sourcePoint" />
            <mxPoint x="990.4300000000001" y="276.88" as="targetPoint" />
            <Array as="points" />
          </mxGeometry>
        </mxCell>
        <mxCell id="mm0ojPfIeQABG_KORU4J-135" value="" style="rounded=1;whiteSpace=wrap;html=1;dashed=1;" parent="1" vertex="1">
          <mxGeometry x="465.95000000000016" y="393.25136161082696" width="269.99999999999994" height="296.74863838917304" as="geometry" />
        </mxCell>
        <mxCell id="mm0ojPfIeQABG_KORU4J-136" value="" style="rounded=1;whiteSpace=wrap;html=1;" parent="1" vertex="1">
          <mxGeometry x="503.69774193548403" y="458.64862188479935" width="87.96774193548386" height="185.21208120151834" as="geometry" />
        </mxCell>
        <mxCell id="mm0ojPfIeQABG_KORU4J-137" value="&lt;font style=&quot;font-size: 18px;&quot;&gt;Cluster&amp;nbsp;&lt;/font&gt;&lt;span style=&quot;font-size: 18px; background-color: initial;&quot;&gt;PostgreSQL&lt;/span&gt;" style="text;html=1;align=left;verticalAlign=middle;resizable=0;points=[];autosize=1;strokeColor=none;fillColor=none;rotation=0;fontStyle=1;fontSize=20;" parent="1" vertex="1">
          <mxGeometry x="491.9930715287518" y="393.25136161082696" width="180" height="40" as="geometry" />
        </mxCell>
        <mxCell id="mm0ojPfIeQABG_KORU4J-138" value="" style="shape=image;verticalLabelPosition=bottom;labelBackgroundColor=default;verticalAlign=top;aspect=fixed;imageAspect=0;image=https://cdn.iconscout.com/icon/free/png-256/free-postgresql-11-1175122.png;" parent="1" vertex="1">
          <mxGeometry x="515.8912903225806" y="549.9244099686416" width="62.54676404768757" height="62.54676404768757" as="geometry" />
        </mxCell>
        <mxCell id="mm0ojPfIeQABG_KORU4J-139" value="" style="shape=image;verticalLabelPosition=bottom;labelBackgroundColor=default;verticalAlign=top;aspect=fixed;imageAspect=0;image=https://user-images.githubusercontent.com/38751470/96045233-f76ad880-0e71-11eb-8755-24adafa117f8.png;" parent="1" vertex="1">
          <mxGeometry x="511.5364516129033" y="467.9501567915497" width="66.00329574505977" height="39.758344357155096" as="geometry" />
        </mxCell>
        <mxCell id="mm0ojPfIeQABG_KORU4J-140" value="" style="rounded=1;whiteSpace=wrap;html=1;" parent="1" vertex="1">
          <mxGeometry x="607.3429032258065" y="458.64862188479935" width="87.09677419354838" height="185.21208120151834" as="geometry" />
        </mxCell>
        <mxCell id="mm0ojPfIeQABG_KORU4J-141" value="" style="shape=image;verticalLabelPosition=bottom;labelBackgroundColor=default;verticalAlign=top;aspect=fixed;imageAspect=0;image=https://cdn.iconscout.com/icon/free/png-256/free-postgresql-11-1175122.png;" parent="1" vertex="1">
          <mxGeometry x="619.5364516129033" y="549.9244099686416" width="62.54676404768757" height="62.54676404768757" as="geometry" />
        </mxCell>
        <mxCell id="mm0ojPfIeQABG_KORU4J-142" value="" style="shape=image;verticalLabelPosition=bottom;labelBackgroundColor=default;verticalAlign=top;aspect=fixed;imageAspect=0;image=https://user-images.githubusercontent.com/38751470/96045233-f76ad880-0e71-11eb-8755-24adafa117f8.png;" parent="1" vertex="1">
          <mxGeometry x="615.1816129032259" y="467.9501567915497" width="66.00329574505977" height="39.758344357155096" as="geometry" />
        </mxCell>
        <mxCell id="mm0ojPfIeQABG_KORU4J-143" value="" style="rounded=0;whiteSpace=wrap;html=1;fillColor=#336791;direction=west;" parent="1" vertex="1">
          <mxGeometry x="591.5164516129034" y="380" width="18.865161290322575" height="13.251361610826862" as="geometry" />
        </mxCell>
        <mxCell id="mm0ojPfIeQABG_KORU4J-144" value="" style="endArrow=none;html=1;rounded=0;strokeWidth=5;" parent="1" edge="1">
          <mxGeometry width="50" height="50" relative="1" as="geometry">
            <mxPoint x="414" y="340" as="sourcePoint" />
            <mxPoint x="414" y="80" as="targetPoint" />
          </mxGeometry>
        </mxCell>
        <mxCell id="mm0ojPfIeQABG_KORU4J-145" value="" style="endArrow=none;html=1;rounded=0;exitX=0.5;exitY=0;exitDx=0;exitDy=0;strokeWidth=3;strokeColor=#ff6600;" parent="1" source="mm0ojPfIeQABG_KORU4J-9" edge="1">
          <mxGeometry width="50" height="50" relative="1" as="geometry">
            <mxPoint x="265.9200000000001" y="162.83500000000004" as="sourcePoint" />
            <mxPoint x="413" y="163" as="targetPoint" />
          </mxGeometry>
        </mxCell>
        <mxCell id="mm0ojPfIeQABG_KORU4J-146" value="5672" style="edgeLabel;html=1;align=center;verticalAlign=middle;resizable=0;points=[];labelBorderColor=#ff6600;" parent="mm0ojPfIeQABG_KORU4J-145" vertex="1" connectable="0">
          <mxGeometry x="-0.7691" y="1" relative="1" as="geometry">
            <mxPoint x="7" y="-8" as="offset" />
          </mxGeometry>
        </mxCell>
        <mxCell id="mm0ojPfIeQABG_KORU4J-147" value="" style="endArrow=none;html=1;rounded=0;exitX=0.5;exitY=0;exitDx=0;exitDy=0;strokeWidth=3;strokeColor=#03a9f4;" parent="1" edge="1">
          <mxGeometry width="50" height="50" relative="1" as="geometry">
            <mxPoint x="885.8300000000002" y="394.25" as="sourcePoint" />
            <mxPoint x="886.0000000000001" y="340" as="targetPoint" />
          </mxGeometry>
        </mxCell>
        <mxCell id="mm0ojPfIeQABG_KORU4J-148" value="139 / 445" style="edgeLabel;html=1;align=center;verticalAlign=middle;resizable=0;points=[];labelBorderColor=#03a9f4;" parent="mm0ojPfIeQABG_KORU4J-147" vertex="1" connectable="0">
          <mxGeometry x="-0.1918" y="-1" relative="1" as="geometry">
            <mxPoint x="-2" as="offset" />
          </mxGeometry>
        </mxCell>
        <mxCell id="mm0ojPfIeQABG_KORU4J-149" value="" style="endArrow=none;html=1;rounded=0;strokeWidth=3;entryX=0.5;entryY=1;entryDx=0;entryDy=0;strokeColor=#4c0099;" parent="1" target="mm0ojPfIeQABG_KORU4J-38" edge="1">
          <mxGeometry width="50" height="50" relative="1" as="geometry">
            <mxPoint x="1267" y="80" as="sourcePoint" />
            <mxPoint x="1435.5" y="24.310000000000002" as="targetPoint" />
            <Array as="points" />
          </mxGeometry>
        </mxCell>
        <mxCell id="mm0ojPfIeQABG_KORU4J-150" value="" style="endArrow=none;html=1;rounded=0;strokeWidth=3;entryX=0.5;entryY=1;entryDx=0;entryDy=0;strokeColor=#ef5098;" parent="1" target="mm0ojPfIeQABG_KORU4J-39" edge="1">
          <mxGeometry width="50" height="50" relative="1" as="geometry">
            <mxPoint x="1291" y="80" as="sourcePoint" />
            <mxPoint x="1435" y="-14" as="targetPoint" />
            <Array as="points" />
          </mxGeometry>
        </mxCell>
        <mxCell id="mm0ojPfIeQABG_KORU4J-151" value="" style="group" parent="1" vertex="1" connectable="0">
          <mxGeometry x="1270" y="430" width="281" height="362.19999999999993" as="geometry" />
        </mxCell>
        <mxCell id="mm0ojPfIeQABG_KORU4J-152" value="" style="rounded=1;whiteSpace=wrap;html=1;dashed=1;" parent="mm0ojPfIeQABG_KORU4J-151" vertex="1">
          <mxGeometry x="-474.96" y="-22.799999999999955" width="180" height="230" as="geometry" />
        </mxCell>
        <mxCell id="mm0ojPfIeQABG_KORU4J-153" value="" style="rounded=0;whiteSpace=wrap;html=1;fillColor=#03a9f4;" parent="mm0ojPfIeQABG_KORU4J-151" vertex="1">
          <mxGeometry x="-394.96" y="-35.749999999999886" width="21.66" height="12.95" as="geometry" />
        </mxCell>
        <mxCell id="mm0ojPfIeQABG_KORU4J-154" value="" style="endArrow=none;html=1;rounded=0;strokeWidth=5;" parent="mm0ojPfIeQABG_KORU4J-151" edge="1">
          <mxGeometry width="50" height="50" relative="1" as="geometry">
            <mxPoint x="90" y="-90" as="sourcePoint" />
            <mxPoint x="90" y="-350" as="targetPoint" />
          </mxGeometry>
        </mxCell>
        <mxCell id="mm0ojPfIeQABG_KORU4J-155" value="" style="rounded=0;whiteSpace=wrap;html=1;fillColor=#000000;direction=south;" parent="1" vertex="1">
          <mxGeometry x="1387.0549999999998" y="235.82499999999993" width="12.95" height="21.66" as="geometry" />
        </mxCell>
        <mxCell id="mm0ojPfIeQABG_KORU4J-156" value="" style="endArrow=none;html=1;rounded=0;strokeWidth=3;" parent="1" source="mm0ojPfIeQABG_KORU4J-155" edge="1">
          <mxGeometry width="50" height="50" relative="1" as="geometry">
            <mxPoint x="1536.9999999999998" y="79.94999999999999" as="sourcePoint" />
            <mxPoint x="1360" y="247" as="targetPoint" />
          </mxGeometry>
        </mxCell>
        <mxCell id="mm0ojPfIeQABG_KORU4J-157" value="" style="endArrow=none;html=1;rounded=0;exitX=0.5;exitY=1;exitDx=0;exitDy=0;strokeWidth=3;strokeColor=#336791;" parent="1" source="mm0ojPfIeQABG_KORU4J-143" edge="1">
          <mxGeometry width="50" height="50" relative="1" as="geometry">
            <mxPoint x="357.18" y="580" as="sourcePoint" />
            <mxPoint x="601.1800000000001" y="340" as="targetPoint" />
          </mxGeometry>
        </mxCell>
        <mxCell id="mm0ojPfIeQABG_KORU4J-158" value="5432" style="edgeLabel;html=1;align=center;verticalAlign=middle;resizable=0;points=[];labelBorderColor=#336791;" parent="mm0ojPfIeQABG_KORU4J-157" vertex="1" connectable="0">
          <mxGeometry x="-0.0262" y="1" relative="1" as="geometry">
            <mxPoint as="offset" />
          </mxGeometry>
        </mxCell>
        <mxCell id="mm0ojPfIeQABG_KORU4J-159" value="" style="endArrow=none;html=1;rounded=0;exitX=0.5;exitY=0;exitDx=0;exitDy=0;strokeWidth=3;strokeColor=#fec514;" parent="1" source="mm0ojPfIeQABG_KORU4J-68" edge="1">
          <mxGeometry width="50" height="50" relative="1" as="geometry">
            <mxPoint x="1225.8300000000002" y="124" as="sourcePoint" />
            <mxPoint x="1226" y="80" as="targetPoint" />
          </mxGeometry>
        </mxCell>
        <mxCell id="mm0ojPfIeQABG_KORU4J-160" value="" style="endArrow=none;html=1;rounded=0;exitX=0.5;exitY=0;exitDx=0;exitDy=0;strokeWidth=3;strokeColor=#ff6600;" parent="1" edge="1">
          <mxGeometry width="50" height="50" relative="1" as="geometry">
            <mxPoint x="1249.17" y="139.06" as="sourcePoint" />
            <mxPoint x="1249.17" y="80.06" as="targetPoint" />
          </mxGeometry>
        </mxCell>
        <mxCell id="mm0ojPfIeQABG_KORU4J-161" value="" style="endArrow=none;html=1;rounded=0;exitX=0.5;exitY=0;exitDx=0;exitDy=0;strokeWidth=3;strokeColor=#fec514;" parent="1" edge="1">
          <mxGeometry width="50" height="50" relative="1" as="geometry">
            <mxPoint x="1083.22" y="139" as="sourcePoint" />
            <mxPoint x="1083.22" y="80" as="targetPoint" />
          </mxGeometry>
        </mxCell>
        <mxCell id="mm0ojPfIeQABG_KORU4J-162" value="" style="endArrow=none;html=1;rounded=0;exitX=0.5;exitY=0;exitDx=0;exitDy=0;strokeWidth=3;strokeColor=#03a9f4;" parent="1" source="mm0ojPfIeQABG_KORU4J-69" edge="1">
          <mxGeometry width="50" height="50" relative="1" as="geometry">
            <mxPoint x="1135.74" y="134" as="sourcePoint" />
            <mxPoint x="1135.74" y="80" as="targetPoint" />
          </mxGeometry>
        </mxCell>
        <mxCell id="mm0ojPfIeQABG_KORU4J-163" value="" style="endArrow=none;html=1;rounded=0;exitX=0.5;exitY=0;exitDx=0;exitDy=0;strokeWidth=3;strokeColor=#03a9f4;" parent="1" edge="1">
          <mxGeometry width="50" height="50" relative="1" as="geometry">
            <mxPoint x="1272.75" y="139.06" as="sourcePoint" />
            <mxPoint x="1272.49" y="80.06" as="targetPoint" />
          </mxGeometry>
        </mxCell>
        <mxCell id="mm0ojPfIeQABG_KORU4J-165" value="" style="ellipse;whiteSpace=wrap;html=1;aspect=fixed;fillColor=#336791;" parent="1" vertex="1">
          <mxGeometry x="791.1700000000002" y="139.0599999999999" width="20" height="20" as="geometry" />
        </mxCell>
        <mxCell id="mm0ojPfIeQABG_KORU4J-166" value="" style="endArrow=none;html=1;rounded=0;strokeWidth=3;strokeColor=#336791;entryX=0.5;entryY=0;entryDx=0;entryDy=0;" parent="1" target="mm0ojPfIeQABG_KORU4J-165" edge="1">
          <mxGeometry width="50" height="50" relative="1" as="geometry">
            <mxPoint x="800.99" y="80" as="sourcePoint" />
            <mxPoint x="856.4200000000001" y="276.88" as="targetPoint" />
            <Array as="points" />
          </mxGeometry>
        </mxCell>
        <mxCell id="mm0ojPfIeQABG_KORU4J-167" value="" style="shape=image;aspect=fixed;image=data:image/svg+xml,PD94bWwgdmVyc2lvbj0iMS4wIiBlbmNvZGluZz0iVVRGLTgiPz4NCjwhRE9DVFlQRSBzdmcgUFVCTElDICItLy9XM0MvL0RURCBTVkcgMS4xLy9FTiIgImh0dHA6Ly93d3cudzMub3JnL0dyYXBoaWNzL1NWRy8xLjEvRFREL3N2ZzExLmR0ZCI+DQo8IS0tIENyZWF0b3I6IENvcmVsRFJBVyBYNSAtLT4NCjxzdmcgeG1sbnM9Imh0dHA6Ly93d3cudzMub3JnLzIwMDAvc3ZnIiB4bWw6c3BhY2U9InByZXNlcnZlIiB3aWR0aD0iMjA0OHB4IiBoZWlnaHQ9IjIwNDhweCIgc3R5bGU9InNoYXBlLXJlbmRlcmluZzpnZW9tZXRyaWNQcmVjaXNpb247IHRleHQtcmVuZGVyaW5nOmdlb21ldHJpY1ByZWNpc2lvbjsgaW1hZ2UtcmVuZGVyaW5nOm9wdGltaXplUXVhbGl0eTsgZmlsbC1ydWxlOmV2ZW5vZGQ7IGNsaXAtcnVsZTpldmVub2RkIg0Kdmlld0JveD0iMCAwIDIwNDggMjA0OCINCiB4bWxuczp4bGluaz0iaHR0cDovL3d3dy53My5vcmcvMTk5OS94bGluayI+DQogPGRlZnM+DQogIDxzdHlsZSB0eXBlPSJ0ZXh0L2NzcyI+DQogICA8IVtDREFUQVsNCiAgICAuZmlsMCB7ZmlsbDpub25lfQ0KICAgIC5maWwxIHtmaWxsOiMwM0E5RjR9DQogICAgLmZpbDIge2ZpbGw6IzA0MTgyMX0NCiAgICAuZmlsMyB7ZmlsbDojMjYzMjM4fQ0KICAgIC5maWw2IHtmaWxsOiMwMEM4NTM7ZmlsbC1ydWxlOm5vbnplcm99DQogICAgLmZpbDcge2ZpbGw6IzIxOTZGMztmaWxsLXJ1bGU6bm9uemVyb30NCiAgICAuZmlsNCB7ZmlsbDojMzc0NzRGO2ZpbGwtcnVsZTpub256ZXJvfQ0KICAgIC5maWw1IHtmaWxsOiNENTAwMDA7ZmlsbC1ydWxlOm5vbnplcm99DQogICAgLmZpbDgge2ZpbGw6I0ZGQzQwMDtmaWxsLXJ1bGU6bm9uemVyb30NCiAgIF1dPg0KICA8L3N0eWxlPg0KIDwvZGVmcz4NCiA8ZyBpZD0iTGF5ZXJfeDAwMjBfMSI+DQogIDxtZXRhZGF0YSBpZD0iQ29yZWxDb3JwSURfMENvcmVsLUxheWVyIi8+DQogIDxyZWN0IGNsYXNzPSJmaWwwIiB3aWR0aD0iMjA0OCIgaGVpZ2h0PSIyMDQ4Ii8+DQogIDxnIGlkPSJfMjIxMDgzODg4Ij4NCiAgIDxnPg0KICAgIDxwYXRoIGNsYXNzPSJmaWwxIiBkPSJNMTY0NCAxNjk0bDAgMzljMCwzMyAtMjc4LDYwIC02MjAsNjAgLTM0MiwwIC02MjAsLTI3IC02MjAsLTYwbDAgLTM5YzExMSwyMiAzNDcsMzggNjIwLDM4IDI3MywwIDUwOSwtMTUgNjIwLC0zOHoiLz4NCiAgICA8ZWxsaXBzZSBjbGFzcz0iZmlsMiIgY3g9IjEwMjQiIGN5PSIxMzIxIiByeD0iNjg5IiByeT0iNjYiLz4NCiAgICA8cGF0aCBjbGFzcz0iZmlsMyIgZD0iTTE3MTMgMTMxNmwwIDM0OWMwLDM3IC0zMDgsNjYgLTY4OSw2NiAtMzgwLDAgLTY4OSwtMzAgLTY4OSwtNjZsMCAtMzQ5YzAsMzcgMzA4LDY2IDY4OSw2NiAzODAsMCA2ODksLTMwIDY4OSwtNjZ6Ii8+DQogICAgPHBhdGggY2xhc3M9ImZpbDEiIGQ9Ik0xNDc4IDExODRsNTAgMTIyYy0xMjYsMTMgLTMwNSwyMSAtNTA0LDIxIC0xOTksMCAtMzc4LC04IC01MDQsLTIxbDUwIC0xMjIgOTA3IDB6Ii8+DQogICAgPHBhdGggY2xhc3M9ImZpbDQiIGQ9Ik0xNjQ0IDE1MjdjLTU3LDEwIC0xMTgsMTcgLTE4MSwyMSAtNjQsNSAtMTMyLDggLTIwMCwxMWwwIC0zOWM2NiwtMyAxMzIsLTYgMTk4LC0xMSA2NSwtNSAxMjcsLTEyIDE4NCwtMjJsMCAzOXoiLz4NCiAgICA8cGF0aCBjbGFzcz0iZmlsNSIgZD0iTTcwNyAxNTE4YzIzLDEgNDUsMiA2OCwzbC0yIDM5Yy0yMiwtMSAtNDQsLTIgLTY3LC0zbDAgLTM5eiIvPg0KICAgIDxwYXRoIGNsYXNzPSJmaWw2IiBkPSJNNTk5IDE1MTJjMjQsMiA0NywzIDcxLDRsMCAzOWMtMjQsLTEgLTQ4LC0zIC03MSwtNGwwIC0zOXoiLz4NCiAgICA8cGF0aCBjbGFzcz0iZmlsNyIgZD0iTTQ5MiAxNTAyYzIzLDMgNDcsNSA3MSw3bDAgMzljLTI0LC0yIC00OCwtNCAtNzEsLTdsMCAtMzl6Ii8+DQogICAgPHBhdGggY2xhc3M9ImZpbDgiIGQ9Ik0zODcgMTQ4N2MyMiw0IDQ1LDcgNjgsMTBsMCAzOWMtMjMsLTMgLTQ2LC02IC02OCwtMTBsMCAtMzggMCAtMXoiLz4NCiAgIDwvZz4NCiAgIDxnPg0KICAgIDxlbGxpcHNlIGNsYXNzPSJmaWwyIiBjeD0iMTAyNCIgY3k9Ijg2MCIgcng9IjY4OSIgcnk9IjY2Ii8+DQogICAgPHBhdGggY2xhc3M9ImZpbDMiIGQ9Ik0xNzEzIDg1NGwwIDM0OWMwLDM3IC0zMDgsNjYgLTY4OSw2NiAtMzgwLDAgLTY4OSwtMzAgLTY4OSwtNjZsMCAtMzQ5YzAsMzcgMzA4LDY2IDY4OSw2NiAzODAsMCA2ODksLTMwIDY4OSwtNjZ6Ii8+DQogICAgPHBhdGggY2xhc3M9ImZpbDEiIGQ9Ik0xNDc4IDcyMmw1MCAxMjJjLTEyNiwxMyAtMzA1LDIxIC01MDQsMjEgLTE5OSwwIC0zNzgsLTggLTUwNCwtMjFsNTAgLTEyMiA5MDcgMHoiLz4NCiAgICA8cGF0aCBjbGFzcz0iZmlsNCIgZD0iTTE2NDQgMTA2NWMtNTcsMTAgLTExOCwxNyAtMTgxLDIxIC02NCw1IC0xMzIsOCAtMjAwLDExbDAgLTM5YzY2LC0zIDEzMiwtNiAxOTgsLTExIDY1LC01IDEyNywtMTIgMTg0LC0yMmwwIDM5eiIvPg0KICAgIDxwYXRoIGNsYXNzPSJmaWw1IiBkPSJNNzA3IDEwNTZjMjMsMSA0NSwyIDY4LDNsLTIgMzljLTIyLC0xIC00NCwtMiAtNjcsLTNsMCAtMzl6Ii8+DQogICAgPHBhdGggY2xhc3M9ImZpbDYiIGQ9Ik01OTkgMTA1MGMyNCwyIDQ3LDMgNzEsNGwwIDM5Yy0yNCwtMSAtNDgsLTMgLTcxLC00bDAgLTM5eiIvPg0KICAgIDxwYXRoIGNsYXNzPSJmaWw3IiBkPSJNNDkyIDEwNDFjMjMsMyA0Nyw1IDcxLDdsMCAzOWMtMjQsLTIgLTQ4LC00IC03MSwtN2wwIC0zOXoiLz4NCiAgICA8cGF0aCBjbGFzcz0iZmlsOCIgZD0iTTM4NyAxMDI2YzIyLDQgNDUsNyA2OCwxMGwwIDM5Yy0yMywtMyAtNDYsLTYgLTY4LC0xMGwwIC0zOCAwIC0xeiIvPg0KICAgPC9nPg0KICAgPGc+DQogICAgPGVsbGlwc2UgY2xhc3M9ImZpbDIiIGN4PSIxMDI0IiBjeT0iMzk0IiByeD0iNjg5IiByeT0iNjYiLz4NCiAgICA8cGF0aCBjbGFzcz0iZmlsMyIgZD0iTTE3MTMgMzg4bDAgMzQ5YzAsMzcgLTMwOCw2NiAtNjg5LDY2IC0zODAsMCAtNjg5LC0zMCAtNjg5LC02NmwwIC0zNDljMCwzNyAzMDgsNjYgNjg5LDY2IDM4MCwwIDY4OSwtMzAgNjg5LC02NnoiLz4NCiAgICA8cGF0aCBjbGFzcz0iZmlsMSIgZD0iTTE0NzggMjU2bDUwIDEyMmMtMTI2LDEzIC0zMDUsMjEgLTUwNCwyMSAtMTk5LDAgLTM3OCwtOCAtNTA0LC0yMWw1MCAtMTIyIDkwNyAweiIvPg0KICAgIDxwYXRoIGNsYXNzPSJmaWw0IiBkPSJNMTY0NCA1OTljLTU3LDEwIC0xMTgsMTcgLTE4MSwyMSAtNjQsNSAtMTMyLDggLTIwMCwxMWwwIC0zOWM2NiwtMyAxMzIsLTYgMTk4LC0xMSA2NSwtNSAxMjcsLTEyIDE4NCwtMjJsMCAzOXoiLz4NCiAgICA8cGF0aCBjbGFzcz0iZmlsNSIgZD0iTTcwNyA1OTBjMjMsMSA0NSwyIDY4LDNsLTIgMzljLTIyLC0xIC00NCwtMiAtNjcsLTNsMCAtMzl6Ii8+DQogICAgPHBhdGggY2xhc3M9ImZpbDYiIGQ9Ik01OTkgNTg0YzI0LDIgNDcsMyA3MSw0bDAgMzljLTI0LC0xIC00OCwtMyAtNzEsLTRsMCAtMzl6Ii8+DQogICAgPHBhdGggY2xhc3M9ImZpbDciIGQ9Ik00OTIgNTc0YzIzLDMgNDcsNSA3MSw3bDAgMzljLTI0LC0yIC00OCwtNCAtNzEsLTdsMCAtMzl6Ii8+DQogICAgPHBhdGggY2xhc3M9ImZpbDgiIGQ9Ik0zODcgNTYwYzIyLDQgNDUsNyA2OCwxMGwwIDM5Yy0yMywtMyAtNDYsLTYgLTY4LC0xMGwwIC0zOCAwIC0xeiIvPg0KICAgPC9nPg0KICA8L2c+DQogIDxyZWN0IGNsYXNzPSJmaWwwIiB3aWR0aD0iMjA0OCIgaGVpZ2h0PSIyMDQ4Ii8+DQogPC9nPg0KPC9zdmc+DQo=;" parent="1" vertex="1">
          <mxGeometry x="800.5400000000001" y="457.130000000001" width="169" height="169" as="geometry" />
        </mxCell>
        <mxCell id="mm0ojPfIeQABG_KORU4J-168" value="Хранилище" style="text;html=1;align=left;verticalAlign=middle;resizable=0;points=[];autosize=1;strokeColor=none;fillColor=none;rotation=0;fontStyle=1;fontSize=20;" parent="1" vertex="1">
          <mxGeometry x="820.0400000000001" y="422.93000000000006" width="130" height="40" as="geometry" />
        </mxCell>
        <mxCell id="mm0ojPfIeQABG_KORU4J-169" value="" style="ellipse;whiteSpace=wrap;html=1;aspect=fixed;fillColor=#03a9f4;" parent="1" vertex="1">
          <mxGeometry x="1387.06" y="289.88" width="20" height="20" as="geometry" />
        </mxCell>
        <mxCell id="mm0ojPfIeQABG_KORU4J-170" value="" style="rounded=1;whiteSpace=wrap;html=1;dashed=1;" parent="1" vertex="1">
          <mxGeometry x="1035.95" y="396" width="270" height="290.2" as="geometry" />
        </mxCell>
        <mxCell id="mm0ojPfIeQABG_KORU4J-171" value="&lt;b&gt;Nginx&amp;nbsp; &amp;nbsp; &amp;nbsp; &amp;nbsp;&amp;nbsp;&lt;/b&gt;&lt;div&gt;&lt;br&gt;&lt;/div&gt;&lt;div&gt;&lt;br&gt;&lt;/div&gt;&lt;div&gt;&lt;br&gt;&lt;/div&gt;&lt;div&gt;&lt;br&gt;&lt;/div&gt;" style="rounded=1;whiteSpace=wrap;html=1;fillStyle=cross-hatch;fillColor=#000000;align=right;" parent="1" vertex="1">
          <mxGeometry x="1045.95" y="407.20000000000005" width="250" height="110" as="geometry" />
        </mxCell>
        <mxCell id="mm0ojPfIeQABG_KORU4J-172" value="" style="shape=link;html=1;rounded=0;entryX=0.25;entryY=0;entryDx=0;entryDy=0;strokeColor=#fec514;" parent="1" source="mm0ojPfIeQABG_KORU4J-178" target="mm0ojPfIeQABG_KORU4J-171" edge="1">
          <mxGeometry width="100" relative="1" as="geometry">
            <mxPoint x="1109.95" y="347.2" as="sourcePoint" />
            <mxPoint x="1106.95" y="397.20000000000005" as="targetPoint" />
          </mxGeometry>
        </mxCell>
        <mxCell id="mm0ojPfIeQABG_KORU4J-173" value="&lt;font style=&quot;font-size: 18px;&quot;&gt;Узел полнотекстового поиска&lt;/font&gt;&lt;div&gt;&lt;font style=&quot;font-size: 18px;&quot;&gt;Elasticsearch, Kibana, Nginx&lt;/font&gt;&lt;/div&gt;" style="text;html=1;align=left;verticalAlign=middle;resizable=0;points=[];autosize=1;strokeColor=none;fillColor=none;rotation=0;fontSize=20;" parent="1" vertex="1">
          <mxGeometry x="1046.95" y="616.2" width="270" height="60" as="geometry" />
        </mxCell>
        <mxCell id="mm0ojPfIeQABG_KORU4J-174" value="" style="rounded=1;whiteSpace=wrap;html=1;" parent="1" vertex="1">
          <mxGeometry x="1055.25" y="462.93000000000006" width="95.71" height="149.27" as="geometry" />
        </mxCell>
        <mxCell id="mm0ojPfIeQABG_KORU4J-175" value="" style="shape=image;aspect=fixed;image=data:image/svg+xml,PHN2ZyB4bWxucz0iaHR0cDovL3d3dy53My5vcmcvMjAwMC9zdmciIGlkPSJMYXllcl8xIiBkYXRhLW5hbWU9IkxheWVyIDEiIHZpZXdCb3g9IjAgMCA3MyA4MCI+PGRlZnM+PHN0eWxlPi5jbHMtMXtmaWxsOiMzNDM3NDE7fS5jbHMtMSwuY2xzLTIsLmNscy0ze2ZpbGwtcnVsZTpldmVub2RkO30uY2xzLTJ7ZmlsbDojZmVjNTE0O30uY2xzLTN7ZmlsbDojMDBiZmIzO308L3N0eWxlPjwvZGVmcz48dGl0bGU+RWxhc3RpYyBTZWFyY2ggQ29sb3I8L3RpdGxlPjxwYXRoIGNsYXNzPSJjbHMtMSIgZD0iTTgsNDBhMzIsMzIsMCwwLDAsMS4wNSw4SDQ4YTgsOCwwLDAsMCw4LThoMGE4LDgsMCwwLDAtOC04SDkuMDlBMzIsMzIsMCwwLDAsOCw0MFoiLz48cGF0aCBjbGFzcz0iY2xzLTIiIGQ9Ik02MS44OSwyMy4zMkEyOS41OSwyOS41OSwwLDAsMCw2NSwyMGEzMS45MiwzMS45MiwwLDAsMC01My42Nyw2SDU1LjA2QTEwLjA3LDEwLjA3LDAsMCwwLDYxLjg5LDIzLjMyWiIvPjxwYXRoIGNsYXNzPSJjbHMtMyIgZD0iTTU1LjA2LDU0SDExLjMzQTMxLjkyLDMxLjkyLDAsMCwwLDY1LDYwYTI5LjU5LDI5LjU5LDAsMCwwLTMuMTEtMy4zMkExMC4wNywxMC4wNywwLDAsMCw1NS4wNiw1NFoiLz48L3N2Zz4=;" parent="1" vertex="1">
          <mxGeometry x="1055.25" y="482.2700000000002" width="93.41" height="102.27" as="geometry" />
        </mxCell>
        <mxCell id="mm0ojPfIeQABG_KORU4J-176" value="" style="rounded=1;whiteSpace=wrap;html=1;" parent="1" vertex="1">
          <mxGeometry x="1190.24" y="464.20000000000005" width="95.71" height="148" as="geometry" />
        </mxCell>
        <mxCell id="mm0ojPfIeQABG_KORU4J-177" value="" style="shape=image;aspect=fixed;image=data:image/svg+xml,PD94bWwgdmVyc2lvbj0iMS4wIiBlbmNvZGluZz0iVVRGLTgiPz4KPCEtLSBVcGxvYWRlZCB0bzogU1ZHIFJlcG8sIHd3dy5zdmdyZXBvLmNvbSwgR2VuZXJhdG9yOiBTVkcgUmVwbyBNaXhlciBUb29scyAtLT4KPHN2ZyB3aWR0aD0iODAwcHgiIGhlaWdodD0iODAwcHgiIHZpZXdCb3g9Ii00MyAwIDM0MiAzNDIiIHZlcnNpb249IjEuMSIgeG1sbnM9Imh0dHA6Ly93d3cudzMub3JnLzIwMDAvc3ZnIiB4bWxuczp4bGluaz0iaHR0cDovL3d3dy53My5vcmcvMTk5OS94bGluayIgcHJlc2VydmVBc3BlY3RSYXRpbz0ieE1pZFlNaWQiPgogICAgPGc+CgkJCQk8cGF0aCBkPSJNMCwzMDYuOTI5NDMxIEwwLDM0MC45NDE1MyBMMTUuOTg1Njg2NCwzNDAuOTQxNTMgTDE1Ni4zMTk2MDYsMTcyLjcxNzY4OSBDMTQ2LjU4ODYzNSwxNjYuMzkyOTk3IDEzNi40NTQwMzEsMTYwLjcxMjE2NiAxMjUuOTgwODE0LDE1NS43MTE2NCBMMCwzMDYuOTI5NDMxIFoiIGZpbGw9IiMwMDlCOTAiPgoNPC9wYXRoPgoJCQkJPHBhdGggZD0iTTE1Ni4zMjQxNCwxNzIuNzE3Njg5IEwxNS45MjIxOTU3LDM0MS4wMDk1NTQgTDI1NS41NzE0NDQsMzQxLjAwOTU1NCBDMjU1LjU3MTQ0NCwyNzIuNDQxMTYzIDIxNi42NjE2MDMsMjExLjQ5MTQ4MiAxNTYuMzI0MTQsMTcyLjcxNzY4OSBaIiBmaWxsPSIjNDBCRUIwIj4KDTwvcGF0aD4KCQkJCTxwb2x5Z29uIGZpbGw9IiNFRjUwOTgiIHBvaW50cz0iLTUuMjQwMjUyNjhlLTE0IDAgLTEuMjc4OTc2OTJlLTEzIDMwNy40NDUzNjggMjU2IDAiPgoNPC9wb2x5Z29uPgoJCQkJPHBhdGggZD0iTTAuMDY4MTg4NjUwNCwzMDcuMzM5MjA5IEwxMjYuMjQzMTY0LDE1NS44NDUxMzMgQzg2LjY5MzIzNDIsMTM3LjM3MTkzNCA0My42NTEwNzc3LDEyNy44MDQ0NDYgMCwxMjguMDAzMDU4IEwwLjA2ODE4ODY1MDQsMzA3LjMzOTIwOSBaIiBmaWxsPSIjMzUzNTM1Ij4KDTwvcGF0aD4KCQk8L2c+Cjwvc3ZnPg==;rotation=0;" parent="1" vertex="1">
          <mxGeometry x="1195.95" y="489.20000000000005" width="90" height="90" as="geometry" />
        </mxCell>
        <mxCell id="mm0ojPfIeQABG_KORU4J-178" value="" style="rounded=0;whiteSpace=wrap;html=1;fillColor=#fec514;" parent="1" vertex="1">
          <mxGeometry x="1095.86" y="394.2500000000002" width="21.66" height="12.95" as="geometry" />
        </mxCell>
        <mxCell id="mm0ojPfIeQABG_KORU4J-179" value="" style="rounded=0;whiteSpace=wrap;html=1;fillColor=#ef5098;" parent="1" vertex="1">
          <mxGeometry x="1127" y="394.2500000000002" width="21.66" height="12.95" as="geometry" />
        </mxCell>
        <mxCell id="mm0ojPfIeQABG_KORU4J-180" value="" style="endArrow=none;html=1;rounded=0;exitX=0.5;exitY=0;exitDx=0;exitDy=0;strokeWidth=3;strokeColor=#ef5098;" parent="1" source="mm0ojPfIeQABG_KORU4J-179" edge="1">
          <mxGeometry width="50" height="50" relative="1" as="geometry">
            <mxPoint x="1336.01" y="590" as="sourcePoint" />
            <mxPoint x="1138.01" y="340" as="targetPoint" />
          </mxGeometry>
        </mxCell>
        <mxCell id="mm0ojPfIeQABG_KORU4J-181" value="5601" style="edgeLabel;html=1;align=center;verticalAlign=middle;resizable=0;points=[];labelBorderColor=#ef5098;" parent="mm0ojPfIeQABG_KORU4J-180" vertex="1" connectable="0">
          <mxGeometry x="-0.1756" y="-1" relative="1" as="geometry">
            <mxPoint x="-1" y="2" as="offset" />
          </mxGeometry>
        </mxCell>
        <mxCell id="mm0ojPfIeQABG_KORU4J-182" value="" style="endArrow=none;html=1;rounded=0;exitX=0.5;exitY=0;exitDx=0;exitDy=0;strokeWidth=3;strokeColor=#fec514;" parent="1" source="mm0ojPfIeQABG_KORU4J-178" edge="1">
          <mxGeometry width="50" height="50" relative="1" as="geometry">
            <mxPoint x="1504.96" y="490" as="sourcePoint" />
            <mxPoint x="1106.96" y="340" as="targetPoint" />
          </mxGeometry>
        </mxCell>
        <mxCell id="mm0ojPfIeQABG_KORU4J-183" value="9200" style="edgeLabel;html=1;align=center;verticalAlign=middle;resizable=0;points=[];labelBorderColor=#fec514;" parent="mm0ojPfIeQABG_KORU4J-182" vertex="1" connectable="0">
          <mxGeometry x="-0.2472" y="-1" relative="1" as="geometry">
            <mxPoint x="-1" as="offset" />
          </mxGeometry>
        </mxCell>
        <mxCell id="mm0ojPfIeQABG_KORU4J-184" value="" style="endArrow=none;html=1;rounded=0;strokeWidth=5;" parent="1" edge="1">
          <mxGeometry width="50" height="50" relative="1" as="geometry">
            <mxPoint x="414" y="340" as="sourcePoint" />
            <mxPoint x="1361" y="340" as="targetPoint" />
          </mxGeometry>
        </mxCell>
        <mxCell id="mm0ojPfIeQABG_KORU4J-185" value="" style="endArrow=none;html=1;rounded=0;strokeWidth=3;exitX=0.5;exitY=0;exitDx=0;exitDy=0;entryX=0.5;entryY=1;entryDx=0;entryDy=0;" parent="1" source="mm0ojPfIeQABG_KORU4J-187" target="mm0ojPfIeQABG_KORU4J-41" edge="1">
          <mxGeometry width="50" height="50" relative="1" as="geometry">
            <mxPoint x="1225.79" y="24.310000000000002" as="sourcePoint" />
            <mxPoint x="1225.79" y="-48.69" as="targetPoint" />
            <Array as="points" />
          </mxGeometry>
        </mxCell>
        <mxCell id="mm0ojPfIeQABG_KORU4J-186" value="80, 443" style="edgeLabel;html=1;align=center;verticalAlign=middle;resizable=0;points=[];fontSize=12;labelBorderColor=default;rotation=90;" parent="1" vertex="1" connectable="0">
          <mxGeometry x="1372.0049450208578" y="209.06429887182261" as="geometry">
            <mxPoint x="14" y="-3.999999999999999" as="offset" />
          </mxGeometry>
        </mxCell>
        <mxCell id="mm0ojPfIeQABG_KORU4J-187" value="" style="rounded=0;whiteSpace=wrap;html=1;fillColor=#000000;direction=south;" parent="1" vertex="1">
          <mxGeometry x="1070.005" y="-11.004999999999932" width="12.95" height="21.66" as="geometry" />
        </mxCell>
        <mxCell id="mm0ojPfIeQABG_KORU4J-188" value="443" style="edgeLabel;html=1;align=center;verticalAlign=middle;resizable=0;points=[];labelBorderColor=#53a92e;fontSize=12;" parent="1" vertex="1" connectable="0">
          <mxGeometry x="519.9999999999995" y="34.311428571428394" as="geometry" />
        </mxCell>
        <mxCell id="mm0ojPfIeQABG_KORU4J-189" value="" style="group" parent="1" vertex="1" connectable="0">
          <mxGeometry x="460" y="-121.57000000000005" width="120" height="121.24000000000001" as="geometry" />
        </mxCell>
        <mxCell id="mm0ojPfIeQABG_KORU4J-190" value="" style="rounded=1;whiteSpace=wrap;html=1;" parent="mm0ojPfIeQABG_KORU4J-189" vertex="1">
          <mxGeometry width="120" height="121.24" as="geometry" />
        </mxCell>
        <mxCell id="mm0ojPfIeQABG_KORU4J-191" value="regestry.directum.ru" style="shape=image;verticalLabelPosition=bottom;labelBackgroundColor=default;verticalAlign=top;aspect=fixed;imageAspect=0;image=https://static-00.iconduck.com/assets.00/harbor-icon-2034x2048-hl34ycc9.png;" parent="mm0ojPfIeQABG_KORU4J-189" vertex="1">
          <mxGeometry x="17.299999999999955" y="6.240000000000009" width="85.4" height="85.97" as="geometry" />
        </mxCell>
        <mxCell id="mm0ojPfIeQABG_KORU4J-192" value="" style="rounded=0;whiteSpace=wrap;html=1;fillColor=#53a92e;" parent="1" vertex="1">
          <mxGeometry x="509.1700000000001" y="-2.842170943040401e-14" width="21.66" height="12.95" as="geometry" />
        </mxCell>
        <mxCell id="mm0ojPfIeQABG_KORU4J-193" value="" style="endArrow=none;html=1;rounded=0;strokeWidth=3;strokeColor=#4c0099;exitX=0.5;exitY=0;exitDx=0;exitDy=0;" parent="1" source="mm0ojPfIeQABG_KORU4J-129" edge="1">
          <mxGeometry width="50" height="50" relative="1" as="geometry">
            <mxPoint x="657.81" y="122.13" as="sourcePoint" />
            <mxPoint x="658" y="80" as="targetPoint" />
            <Array as="points" />
          </mxGeometry>
        </mxCell>
        <mxCell id="mm0ojPfIeQABG_KORU4J-194" value="5000" style="edgeLabel;html=1;align=center;verticalAlign=middle;resizable=0;points=[];labelBorderColor=#420085;" parent="1" vertex="1" connectable="0">
          <mxGeometry x="658.18" y="99.99666666666661" as="geometry" />
        </mxCell>
        <mxCell id="mm0ojPfIeQABG_KORU4J-195" value="" style="endArrow=none;html=1;rounded=0;strokeWidth=3;entryX=0.5;entryY=1;entryDx=0;entryDy=0;exitX=0.5;exitY=0;exitDx=0;exitDy=0;strokeColor=#53a92e;" parent="1" source="mm0ojPfIeQABG_KORU4J-196" edge="1">
          <mxGeometry width="50" height="50" relative="1" as="geometry">
            <mxPoint x="598.13" y="147" as="sourcePoint" />
            <mxPoint x="598.13" y="80" as="targetPoint" />
          </mxGeometry>
        </mxCell>
        <mxCell id="mm0ojPfIeQABG_KORU4J-196" value="" style="ellipse;whiteSpace=wrap;html=1;aspect=fixed;fillColor=#53a92e;" parent="1" vertex="1">
          <mxGeometry x="588.4400000000003" y="113.68000000000006" width="20" height="20" as="geometry" />
        </mxCell>
        <mxCell id="mm0ojPfIeQABG_KORU4J-197" value="" style="endArrow=none;html=1;rounded=0;strokeWidth=5;" parent="1" edge="1">
          <mxGeometry width="50" height="50" relative="1" as="geometry">
            <mxPoint x="410" y="80" as="sourcePoint" />
            <mxPoint x="1360" y="80" as="targetPoint" />
          </mxGeometry>
        </mxCell>
      </root>
    </mxGraphModel>
  </diagram>
</mxfile>
